<svg height="32" viewBox="0 0 32 32" width="32" xmlns="http://www.w3.org/2000/svg"><path d="m5.828 24.453c-1.203-.12-2.401-.349-3.573-.667l-.109-.027.027-.109c.349-1.129.787-2.239 1.307-3.291l.052-.105.095.052c.787.439 1.629.839 2.468 1.188l.079.027-.011.077c-.135.896-.203 1.813-.229 2.735v.12zm2.584-16.146v-.025c-.693.011-1.385.052-2.063.131.077.708.213 1.4.359 2.083.48-.801 1.052-1.536 1.704-2.188zm-2.464 16.958v-.093l-.093-.011c-1.016-.093-2.043-.265-3.052-.511l-.272-.063.152.24c.916 1.385 2.036 2.609 3.333 3.651l.213.172-.041-.265c-.147-1.068-.229-2.12-.24-3.12zm4.948-24.333c-1.245.428-2.417 1-3.495 1.708.812.147 1.625.333 2.411.573.324-.787.683-1.531 1.084-2.281zm5.156-.853c-.615 0-1.213.041-1.812.109.839.583 1.656 1.224 2.411 1.932l.641.588-.625.599c-.521.496-1.016 1.027-1.495 1.6l-.027.025s-.093.109-.239.281c.375-.041.76-.068 1.145-.068 5.989 0 10.855 4.855 10.855 10.855 0 5.984-4.855 10.855-10.855 10.855-2.079 0-4.025-.589-5.667-1.6-.812.095-1.625.131-2.453.131-.385 0-.76-.011-1.145-.025.025 1.239.145 2.504.349 3.837 2.547 1.724 5.609 2.735 8.916 2.735 8.803 0 15.921-7.129 15.921-15.916 0-8.803-7.119-15.937-15.921-15.937zm-2.104 3.76c.317-.369.64-.735.973-1.093-.749-.641-1.536-1.215-2.359-1.729-.511.848-.948 1.744-1.323 2.651.719.265 1.411.573 2.109.907.301-.412.531-.652.599-.735zm-10.812 9.093.061.095.095-.068c.735-.532 1.511-1.027 2.307-1.464l.084-.025-.032-.095c-.239-.896-.421-1.828-.547-2.776l-.011-.104-.109.027c-1.172.213-2.344.531-3.463.932l-.109.041.041.104c.468 1.147 1.025 2.265 1.683 3.333zm-.188 1.537-.093.061c-.855.699-1.667 1.469-2.417 2.297l-.077.079.077.067c.828.72 1.724 1.387 2.656 1.975l.095.068.052-.095c.411-.749.896-1.484 1.4-2.187l.053-.068-.053-.068c-.588-.651-1.135-1.333-1.64-2.052zm6.249 10.036.281-.011-.213-.177c-.853-.692-1.583-1.505-2.187-2.437v-.025l-.172-.084-.027.151c-.109.797-.172 1.625-.187 2.48v.104h.109c.369.025.76.025 1.129.025.417.016.839 0 1.265-.025zm-.53-17.584c.172-.785.385-1.561.64-2.323-1-.281-2.025-.495-3.052-.64-.093 1.041-.109 2.083-.041 3.109.813-.095 1.641-.136 2.453-.147zm1.53-.057c.699-.437 1.443-.812 2.229-1.093-.563-.249-1.12-.489-1.708-.703-.197.583-.369 1.197-.521 1.796zm-7.394 12.939-.084-.057c-.823-.516-1.615-1.095-2.359-1.704l-.215-.177.043.281c.197 1.537.624 3.016 1.249 4.428l.109.255.093-.255c.308-.907.693-1.803 1.12-2.652zm2.036-15.11c-.943.947-1.787 2-2.464 3.161.823-.24 1.652-.443 2.489-.589-.052-.853-.061-1.703-.025-2.572zm.478 11.171.016-.276c.041-.973.197-1.921.495-2.843l.079-.267-.24.136c-.625.359-1.24.76-1.828 1.188l-.093.061.067.095c.417.588.855 1.161 1.324 1.708zm.11 1.631-.041-.265-.156.24c-.443.624-.855 1.265-1.229 1.932l-.052.093.093.052c.667.375 1.371.719 2.079 1.027l.255.109-.12-.256c-.416-.932-.692-1.921-.828-2.932zm-3.11-3.802.084-.068-.052-.079c-.495-.801-.948-1.64-1.349-2.495l-.12-.24-.077.267c-.469 1.443-.724 2.948-.761 4.468l-.015.281.203-.203c.651-.693 1.359-1.36 2.088-1.932z"/></svg>