<?xml version="1.0" standalone="no"?>
<!DOCTYPE svg PUBLIC "-//W3C//DTD SVG 20010904//EN"
 "http://www.w3.org/TR/2001/REC-SVG-20010904/DTD/svg10.dtd">
<svg version="1.0" xmlns="http://www.w3.org/2000/svg"
 width="330.000000pt" height="330.000000pt" viewBox="0 0 330.000000 330.000000"
 preserveAspectRatio="xMidYMid meet">
<metadata>
Created by potrace 1.16, written by Peter Selinger 2001-2019
</metadata>
<g transform="translate(0.000000,330.000000) scale(0.100000,-0.100000)"
fill="#000000" stroke="none">
<path d="M1480 3213 c-334 -36 -694 -208 -933 -447 -200 -198 -320 -402 -407
-691 -29 -97 -53 -279 -54 -405 -2 -347 118 -685 345 -970 96 -121 263 -274
384 -352 74 -48 277 -148 299 -148 7 0 49 -11 92 -25 141 -45 373 -79 474 -70
189 17 328 39 344 55 5 5 19 10 31 10 31 0 163 48 245 89 75 38 166 92 219
128 l64 44 131 -135 c195 -202 216 -213 294 -155 49 36 142 155 142 182 0 36
-95 155 -227 283 -40 39 -73 75 -73 81 0 6 30 55 66 110 125 184 206 379 249
596 17 83 27 241 22 347 -10 203 -53 384 -137 570 -88 194 -163 301 -318 456
-246 247 -525 385 -887 439 -91 13 -276 18 -365 8z m-95 -227 c-17 -36 -116
-136 -134 -136 -6 0 -29 9 -51 21 -53 28 -98 20 -130 -23 -20 -28 -21 -30 -4
-23 54 22 89 21 143 -7 34 -17 60 -24 70 -19 24 12 264 -7 308 -24 l38 -15
-40 5 c-202 28 -358 7 -523 -72 -41 -19 -75 -33 -77 -31 -1 2 1 23 5 48 5 25
13 69 18 99 8 44 16 60 48 87 73 63 125 87 234 109 58 11 107 20 108 19 2 -1
-4 -18 -13 -38z m628 23 c26 -6 50 -16 53 -21 7 -11 -16 -47 -57 -89 -27 -27
-35 -30 -67 -24 -20 3 -83 9 -140 12 -56 2 -100 8 -97 13 3 4 33 23 67 40 35
18 77 43 93 55 17 13 39 25 50 28 21 5 23 4 98 -14z m-388 -299 c152 -41 311
-141 409 -259 244 -293 243 -736 -3 -1022 -86 -99 -222 -195 -336 -238 -235
-88 -499 -58 -713 81 -196 128 -322 324 -360 558 -46 291 104 620 354 776 200
125 430 161 649 104z m1092 -401 c44 -76 143 -463 128 -501 -3 -8 -1 -27 5
-43 6 -15 9 -29 7 -31 -8 -8 -125 58 -150 85 -23 24 -37 31 -67 31 -36 0 -41
4 -66 48 -42 71 -83 121 -116 138 -24 13 -34 13 -64 2 -31 -11 -40 -10 -66 5
-16 9 -38 17 -49 17 -25 0 -48 37 -55 91 l-5 44 56 33 c31 17 60 32 65 32 4 0
27 -9 51 -20 24 -11 66 -20 93 -20 44 0 53 4 92 43 33 33 47 58 60 105 l17 63
22 -43 c12 -24 31 -59 42 -79z m-422 -321 c14 -12 25 -26 25 -30 0 -5 14 -23
30 -41 17 -18 39 -54 49 -82 20 -54 46 -79 60 -57 12 19 40 3 47 -27 4 -14 13
-34 22 -43 13 -16 13 -18 -2 -24 -24 -9 -19 -24 9 -24 25 0 46 -26 38 -47 -3
-7 -13 -13 -24 -13 -12 0 -25 -13 -37 -37 -16 -35 -21 -38 -59 -38 -22 0 -39
3 -37 7 6 9 -36 32 -44 24 -3 -3 0 -6 7 -6 7 0 11 -6 8 -12 -2 -7 12 -25 32
-40 41 -31 92 -36 112 -12 14 17 35 15 114 -11 28 -9 56 -19 64 -21 11 -4 12
-22 7 -94 -7 -78 -11 -94 -32 -115 -14 -14 -29 -25 -34 -25 -4 0 -10 -3 -12
-7 -8 -18 -80 -64 -93 -59 -7 2 -19 -2 -26 -10 -9 -11 -22 -14 -41 -10 -31 6
-38 -8 -11 -23 10 -5 15 -13 11 -17 -12 -12 -91 33 -132 75 -29 30 -48 41 -69
41 -23 0 -41 13 -82 55 l-52 55 4 68 c7 122 11 137 78 305 11 28 25 20 26 -15
0 -18 3 -27 6 -20 2 6 10 12 16 12 20 0 16 72 -4 90 -16 13 -18 27 -12 133 3
64 8 117 9 117 2 0 15 -10 29 -22z m-202 -578 c37 -43 24 -70 -73 -151 -86
-72 -92 -73 -126 -38 l-29 30 30 22 c17 12 62 52 100 89 39 37 72 68 75 68 3
0 13 -9 23 -20z m-1427 -72 c25 -50 148 -182 217 -234 34 -26 103 -67 152 -91
127 -61 235 -82 450 -85 l170 -2 78 42 c43 23 88 42 99 42 39 0 168 -72 188
-106 28 -44 26 -60 -7 -59 -16 0 -31 -3 -34 -8 -4 -5 -20 -2 -37 7 -45 23 -52
19 -17 -9 40 -33 42 -94 5 -143 -24 -32 -24 -34 -7 -63 9 -17 17 -47 17 -66 0
-34 -1 -35 -32 -31 -22 4 -47 -3 -77 -19 -31 -16 -54 -22 -72 -18 -15 3 -42 0
-60 -7 -58 -23 -342 -1 -381 29 -7 5 -33 15 -57 22 -24 7 -64 27 -90 45 -26
19 -57 36 -69 40 -11 4 -35 20 -53 37 -17 16 -35 29 -39 29 -5 0 -17 11 -28
25 -11 14 -23 25 -26 25 -8 0 -114 113 -113 120 1 13 -25 50 -34 47 -6 -1 -16
14 -23 34 -7 20 -22 49 -33 65 -24 36 -62 125 -78 184 -7 25 -16 44 -21 43 -5
-1 -7 19 -5 44 2 25 -2 50 -8 56 -6 6 -11 17 -11 24 0 24 19 13 36 -19z m1510
-83 c35 -36 64 -72 64 -79 0 -14 -107 -116 -122 -116 -8 0 -121 117 -126 130
-3 8 107 130 117 130 2 0 32 -29 67 -65z m146 -92 c34 -32 35 -50 5 -84 -35
-40 -147 -129 -162 -129 -7 0 -24 13 -38 30 l-25 29 86 90 c48 50 91 90 96 91
6 0 23 -12 38 -27z m167 -183 c62 -60 117 -110 121 -110 4 0 10 -9 13 -21 3
-11 15 -23 26 -26 12 -3 21 -10 21 -17 0 -6 39 -49 86 -96 47 -46 88 -89 92
-95 4 -5 19 -17 33 -25 23 -13 70 -63 132 -139 9 -12 17 -26 17 -31 0 -6 4
-10 8 -10 15 0 36 -92 25 -109 -15 -23 -69 -26 -103 -4 -73 46 -226 194 -577
555 l-121 126 18 29 c16 27 77 83 91 83 3 0 56 -49 118 -110z"/>
<path d="M1280 2664 c-159 -30 -337 -132 -430 -247 -87 -106 -170 -312 -158
-389 2 -14 8 3 15 39 32 170 148 351 286 446 86 59 203 107 263 107 60 0 84
-20 84 -69 0 -58 13 -69 87 -76 129 -12 227 -36 310 -75 74 -36 84 -38 107
-27 14 8 34 24 44 37 19 23 20 23 46 7 33 -22 110 -119 136 -172 11 -22 20
-34 20 -27 0 7 -16 45 -36 84 -26 51 -59 94 -118 152 -92 92 -162 136 -279
179 -74 27 -96 30 -217 33 -74 1 -146 0 -160 -2z"/>
<path d="M682 1935 c-4 -196 78 -380 236 -526 63 -58 167 -127 177 -117 3 2
-24 23 -59 46 -122 80 -206 179 -273 322 -44 94 -57 150 -77 315 -1 17 -4 -1
-4 -40z"/>
</g>
</svg>
