<?xml version="1.0" encoding="UTF-8"?>
<svg version="1.1" xmlns="http://www.w3.org/2000/svg" width="650" height="650">
<path d="M0 0 C0.85142578 -0.01224609 1.70285156 -0.02449219 2.58007812 -0.03710938 C10.40550967 -0.05498926 17.54973166 0.98244557 24.5625 4.625 C25.37460938 5.03621094 26.18671875 5.44742187 27.0234375 5.87109375 C29.10975939 7.14021014 30.63413057 8.30842408 32.1875 10.1875 C32.1875 10.8475 32.1875 11.5075 32.1875 12.1875 C32.8475 12.1875 33.5075 12.1875 34.1875 12.1875 C36.28102976 15.62117856 36.42187612 18.28113593 36.3828125 22.265625 C36.37636719 23.42578125 36.36992187 24.5859375 36.36328125 25.78125 C36.33814453 27.59109375 36.33814453 27.59109375 36.3125 29.4375 C36.30347656 30.65953125 36.29445313 31.8815625 36.28515625 33.140625 C36.26159513 36.15644782 36.22869706 39.17187492 36.1875 42.1875 C37.06317627 42.14822388 37.06317627 42.14822388 37.95654297 42.1081543 C59.35195493 41.27388108 59.35195493 41.27388108 67.1875 47.1875 C67.1875 47.8475 67.1875 48.5075 67.1875 49.1875 C67.8475 49.1875 68.5075 49.1875 69.1875 49.1875 C70.00915509 50.89144893 70.81940645 52.60089898 71.625 54.3125 C72.30369141 55.73949219 72.30369141 55.73949219 72.99609375 57.1953125 C76.85513136 66.88719056 77.26417708 83.45418964 73.1875 93.1875 C69.51120377 100.26994928 64.95048117 105.59983961 57.1875 108.1875 C55.45404193 108.2753506 53.71736731 108.30514814 51.98168945 108.30102539 C50.39037956 108.30091209 50.39037956 108.30091209 48.766922 108.30079651 C47.62309555 108.29563522 46.4792691 108.29047394 45.30078125 108.28515625 C44.12863571 108.2837413 42.95649017 108.28232635 41.74882507 108.28086853 C37.99919093 108.27526388 34.24961615 108.26271056 30.5 108.25 C27.96028732 108.2449856 25.4205737 108.24042259 22.88085938 108.23632812 C16.64971927 108.22529294 10.41861388 108.20855025 4.1875 108.1875 C4.1875 108.8475 4.1875 109.5075 4.1875 110.1875 C14.7475 110.1875 25.3075 110.1875 36.1875 110.1875 C36.27 113.838125 36.3525 117.48875 36.4375 121.25 C36.47391602 122.38703369 36.51033203 123.52406738 36.54785156 124.69555664 C36.61779236 131.11149651 35.9615766 134.94985433 32.1875 140.1875 C31.5275 140.1875 30.8675 140.1875 30.1875 140.1875 C30.1875 140.8475 30.1875 141.5075 30.1875 142.1875 C16.96286149 150.44881739 1.57324279 152.74622178 -13.74609375 149.4609375 C-20.08664 147.65773013 -24.6110784 145.14058041 -29.8125 141.1875 C-32.14335418 140.2874672 -34.3653635 139.73685717 -36.8125 139.1875 C-34.8325 138.1975 -34.8325 138.1975 -32.8125 137.1875 C-33.30363281 136.44242188 -33.79476562 135.69734375 -34.30078125 134.9296875 C-36.75168124 130.02788753 -36.12833232 124.65638923 -36 119.3125 C-35.97969727 117.70761719 -35.97969727 117.70761719 -35.95898438 116.0703125 C-35.92378624 113.44218489 -35.87454693 110.81510806 -35.8125 108.1875 C-36.65844727 108.2189209 -36.65844727 108.2189209 -37.52148438 108.25097656 C-40.11830249 108.33498501 -42.71483362 108.38642229 -45.3125 108.4375 C-46.199375 108.47101563 -47.08625 108.50453125 -48 108.5390625 C-55.70482871 108.6523688 -60.80506113 106.79394702 -66.625 101.75 C-73.71532648 93.44418898 -74.17507827 85.3461239 -74.1875 74.8125 C-74.21199219 73.72710937 -74.23648438 72.64171875 -74.26171875 71.5234375 C-74.287272 64.47074136 -73.2457431 59.34855885 -69.8125 53.1875 C-69.255625 52.115 -68.69875 51.0425 -68.125 49.9375 C-64.33154402 45.42636316 -59.81195208 42.63995183 -53.92086792 41.75131226 C-50.64285348 41.61174575 -47.40120457 41.62462149 -44.12109375 41.69921875 C-42.93524185 41.70629349 -41.74938995 41.71336823 -40.52760315 41.72065735 C-36.76774017 41.74847925 -33.00940723 41.81119962 -29.25 41.875 C-26.68947474 41.90009843 -24.12892597 41.92290887 -21.56835938 41.94335938 C-15.31589079 41.99826611 -9.06430474 42.08177127 -2.8125 42.1875 C-2.8125 41.5275 -2.8125 40.8675 -2.8125 40.1875 C-13.7025 40.1875 -24.5925 40.1875 -35.8125 40.1875 C-35.895 36.8875 -35.9775 33.5875 -36.0625 30.1875 C-36.09891602 29.16398437 -36.13533203 28.14046875 -36.17285156 27.0859375 C-36.25920119 19.8882784 -34.79963229 14.82148089 -30.20703125 9.234375 C-20.93381929 1.63263087 -11.72695645 0.008758 0 0 Z M-23.8125 14.1875 C-26.65197797 16.61336422 -26.65197797 16.61336422 -27.8125 20.1875 C-27.8125 24.1475 -27.8125 28.1075 -27.8125 32.1875 C-17.2525 32.1875 -6.6925 32.1875 4.1875 32.1875 C4.1875 37.7975 4.1875 43.4075 4.1875 49.1875 C2.56328125 49.17178955 0.9390625 49.1560791 -0.734375 49.13989258 C-6.78005992 49.0854522 -12.8257233 49.05109828 -18.87158203 49.02270508 C-21.48457487 49.00765067 -24.09754258 48.9872027 -26.71044922 48.96118164 C-30.47369605 48.92465222 -34.23660775 48.9077396 -38 48.89453125 C-39.74265137 48.87130547 -39.74265137 48.87130547 -41.52050781 48.84761047 C-49.36350983 48.84599565 -55.64536799 49.23151012 -61.625 54.8125 C-67.55486593 63.06623231 -68.12084272 73.36400653 -66.8125 83.1875 C-64.94815582 90.17687264 -62.79564903 94.95062892 -56.8125 99.1875 C-54.46397472 100.36176264 -53.07475935 100.30258173 -50.4609375 100.28515625 C-49.18476562 100.28032227 -49.18476562 100.28032227 -47.8828125 100.27539062 C-46.54863281 100.26282227 -46.54863281 100.26282227 -45.1875 100.25 C-44.2903125 100.24548828 -43.393125 100.24097656 -42.46875 100.23632812 C-40.24993352 100.22452591 -38.03124982 100.20806155 -35.8125 100.1875 C-35.78671875 99.04152344 -35.7609375 97.89554687 -35.734375 96.71484375 C-35.67805657 95.1848597 -35.6207101 93.65491325 -35.5625 92.125 C-35.54832031 91.37283203 -35.53414062 90.62066406 -35.51953125 89.84570312 C-35.27556504 84.21008376 -34.22242137 80.73963359 -30.8125 76.1875 C-24.90851243 71.87651351 -20.19842831 71.64765697 -13.0234375 71.75390625 C-10.92708257 71.74430568 -8.83072842 71.73453497 -6.734375 71.72460938 C-3.45141142 71.73322543 -0.16864212 71.75012689 3.11425781 71.7722168 C6.29791558 71.78672256 9.48044508 71.77150094 12.6640625 71.75390625 C14.13451523 71.77862755 14.13451523 71.77862755 15.63467407 71.80384827 C21.42518039 71.76700771 21.42518039 71.76700771 26.28271484 68.71459961 C26.91129395 67.88065674 27.53987305 67.04671387 28.1875 66.1875 C28.5175 65.8575 28.8475 65.5275 29.1875 65.1875 C29.29070628 63.79684743 29.32599362 62.40105236 29.33276367 61.0065918 C29.33914352 60.11864426 29.34552338 59.23069672 29.35209656 58.31584167 C29.35320938 57.34923111 29.3543222 56.38262054 29.35546875 55.38671875 C29.35879715 54.39879837 29.36212555 53.41087799 29.36555481 52.39302063 C29.37062935 50.29725613 29.37296297 48.20148352 29.37280273 46.10571289 C29.3749836 42.89911524 29.39311827 39.69286457 29.41210938 36.48632812 C29.4150443 34.45312618 29.41702843 32.4199226 29.41796875 30.38671875 C29.42874702 28.94591194 29.42874702 28.94591194 29.43974304 27.47599792 C29.4351281 26.12989189 29.4351281 26.12989189 29.43041992 24.7565918 C29.43184494 23.96907028 29.43326996 23.18154877 29.43473816 22.37016296 C29.15867538 19.93303107 28.40175702 18.30135438 27.1875 16.1875 C26.5275 16.1875 25.8675 16.1875 25.1875 16.1875 C25.1875 15.5275 25.1875 14.8675 25.1875 14.1875 C10.70204481 5.25764292 -9.48830529 4.19973143 -23.8125 14.1875 Z M36.1875 49.1875 C36.18339111 49.76193848 36.17928223 50.33637695 36.17504883 50.92822266 C36.14194003 53.55732647 36.07128307 56.18416529 36 58.8125 C35.99419922 59.71613281 35.98839844 60.61976563 35.98242188 61.55078125 C35.77520672 67.85933143 34.8217976 70.83469307 30.1875 75.1875 C27.051084 77.278444 26.29643371 77.44169718 22.71948242 77.47460938 C21.81812057 77.48802368 20.91675873 77.50143799 19.98808289 77.51525879 C18.53025139 77.52317444 18.53025139 77.52317444 17.04296875 77.53125 C15.53915398 77.5531842 15.53915398 77.5531842 14.00495911 77.57556152 C10.79501333 77.62211209 7.58512924 77.65627073 4.375 77.6875 C0.15992946 77.72870923 -4.05471041 77.78244935 -8.26953125 77.84375 C-9.71825371 77.85166565 -9.71825371 77.85166565 -11.19624329 77.85974121 C-18.22478035 77.93765621 -18.22478035 77.93765621 -24.8125 80.1875 C-28.83317083 84.51271887 -28.2468037 89.77526984 -28.2109375 95.34375 C-28.21380768 96.32363892 -28.21667786 97.30352783 -28.21963501 98.31311035 C-28.22167263 100.38078389 -28.21616391 102.44847683 -28.20361328 104.51611328 C-28.18755565 107.67654627 -28.20347254 110.83570042 -28.22265625 113.99609375 C-28.22067377 116.00781532 -28.21682998 118.01953609 -28.2109375 120.03125 C-28.21701019 120.97407837 -28.22308289 121.91690674 -28.2293396 122.88830566 C-28.17688316 127.79429533 -28.04512615 131.22532408 -24.8125 135.1875 C-22.86722122 136.75685857 -22.86722122 136.75685857 -20.625 137.875 C-19.90957031 138.27074219 -19.19414063 138.66648437 -18.45703125 139.07421875 C-12.08246771 141.75774993 -6.14292316 142.51214943 0.6875 142.4375 C1.39519531 142.44523437 2.10289062 142.45296875 2.83203125 142.4609375 C12.32471501 142.42622933 19.84109249 139.79409347 27.125 133.75 C30.27307859 128.99848779 30.27307859 128.99848779 29.1875 117.1875 C18.6275 117.1875 8.0675 117.1875 -2.8125 117.1875 C-2.8125 111.5775 -2.8125 105.9675 -2.8125 100.1875 C-1.05663574 100.20844727 0.69922852 100.22939453 2.50830078 100.25097656 C8.32364129 100.31559762 14.13896942 100.3614935 19.95456123 100.39474869 C23.47902694 100.41558269 27.00310253 100.44382202 30.52734375 100.48925781 C34.58337043 100.54121956 38.63899029 100.56047967 42.6953125 100.578125 C43.95489777 100.59877014 45.21448303 100.61941528 46.51223755 100.64068604 C55.15712402 100.66773432 55.15712402 100.66773432 62.1875 96.1875 C67.72492189 90.2379909 67.64832662 82.6767189 67.6875 75 C67.69378418 74.04947754 67.70006836 73.09895508 67.70654297 72.11962891 C67.5653962 64.29626078 65.99944691 57.84236726 60.1875 52.1875 C52.69257586 48.00763846 44.52025257 48.91446078 36.1875 49.1875 Z " fill="#000000" transform="translate(136.8125,255.8125)"/>
<path d="M0 0 C1.27088954 -0.00262956 1.27088954 -0.00262956 2.56745362 -0.00531223 C5.41960509 -0.00998122 8.27170578 -0.00750441 11.12385941 -0.00507832 C13.18416105 -0.00694584 15.24446235 -0.0092463 17.30476308 -0.01194364 C22.97688174 -0.01807537 28.64898569 -0.01792643 34.32110691 -0.01674926 C40.4344067 -0.0165456 46.54770172 -0.02206072 52.6609993 -0.02680683 C64.64226351 -0.03512156 76.62352146 -0.03787499 88.6047878 -0.03841921 C98.341912 -0.0388786 108.07903461 -0.04093616 117.81615829 -0.04411983 C120.61813966 -0.04501737 123.42012103 -0.04590718 126.2221024 -0.04679471 C127.26695317 -0.04712628 127.26695317 -0.04712628 128.33291204 -0.04746456 C147.92903349 -0.05361969 167.52515439 -0.05756503 187.12127686 -0.05712128 C187.86024994 -0.0571057 188.59922302 -0.05709012 189.36058923 -0.05707407 C193.10607807 -0.05699096 196.85156692 -0.05689192 200.59705576 -0.05678936 C201.34093312 -0.05676942 202.08481048 -0.05674947 202.85122957 -0.05672892 C204.35553158 -0.05668848 205.85983359 -0.05664669 207.3641356 -0.05660353 C230.76738715 -0.05599081 254.17062421 -0.06349639 277.57387161 -0.07717609 C303.86301366 -0.0925363 330.15214618 -0.10114234 356.441293 -0.10021287 C359.24453179 -0.10013824 362.04777058 -0.10008953 364.85100937 -0.10005856 C365.5412453 -0.1000469 366.23148123 -0.10003525 366.9426334 -0.10002324 C378.05116268 -0.09999246 389.15967939 -0.10637884 400.26820493 -0.11499082 C411.43286319 -0.12346729 422.59750326 -0.12428571 433.76216456 -0.1178815 C439.81077679 -0.11461065 445.85934343 -0.11457998 451.90795135 -0.12323475 C457.44471612 -0.13107573 462.98139897 -0.12969291 468.51816168 -0.12095062 C470.5215242 -0.11941032 472.52489276 -0.12125164 474.52824816 -0.12681069 C477.25195326 -0.13386822 479.97537079 -0.12857906 482.69906616 -0.12025452 C483.47616652 -0.1252227 484.25326688 -0.13019088 485.05391574 -0.13530961 C505.59338495 -0.00266672 524.84001037 11.75948868 538.90712357 25.94919109 C547.86756334 35.36332402 552.61344525 45.8871076 556.60121536 58.12863445 C556.95441849 58.98457195 557.30762161 59.84050945 557.67152786 60.72238445 C559.80587406 66.24657462 559.74950941 71.60203789 559.74647903 77.44186687 C559.75151695 78.8380122 559.75151695 78.8380122 559.75665665 80.26236248 C559.76614686 83.33628968 559.768109 86.41016227 559.76918411 89.4841032 C559.77239877 91.62776493 559.775763 93.77142643 559.77927017 95.9150877 C559.78525714 100.4098591 559.78711059 104.9046113 559.7865181 109.39938641 C559.78641667 115.14120644 559.80005083 120.88290227 559.81729031 126.62469292 C559.82844573 131.05410095 559.83043619 135.48347933 559.82990837 139.91289997 C559.83108384 142.02865621 559.83548116 144.14441334 559.84324074 146.26015568 C559.85310923 149.22966685 559.8501353 152.19891335 559.84413528 155.16842937 C559.84975479 156.03164303 559.8553743 156.89485668 559.86116409 157.78422832 C559.75400031 178.80299471 549.14662234 197.95953767 534.51918411 212.51144695 C532.60121536 214.12863445 532.60121536 214.12863445 530.60121536 214.12863445 C530.36402786 214.72804852 530.12684036 215.32746258 529.88246536 215.9450407 C527.44027448 220.10718919 522.73338676 221.87366609 518.60121536 224.12863445 C517.77750443 224.5875407 516.95379349 225.04644695 516.10512161 225.51925945 C510.11623011 228.70055862 504.16078349 230.50979667 497.60121536 232.12863445 C496.56750998 232.46738149 495.53380459 232.80612854 494.4687748 233.15514064 C490.16358624 234.238789 486.39233141 234.4068405 481.98198318 234.38031673 C480.71179844 234.38467706 480.71179844 234.38467706 479.4159534 234.38912547 C476.57740697 234.39642648 473.73907663 234.38948158 470.90053177 234.38260174 C468.84532752 234.38490612 466.7901241 234.3880825 464.73492241 234.39205623 C459.08624603 234.40041586 453.4376371 234.39627362 447.78896046 234.39008379 C441.69754514 234.3855651 435.60614155 234.39254017 429.51472855 234.39804363 C418.27107522 234.40643088 407.02744353 234.40569293 395.78379065 234.4002207 C385.39685976 234.39519022 375.00993677 234.39387588 364.62300491 234.39626598 C363.93410127 234.39641875 363.24519762 234.39657152 362.53541811 234.39672892 C359.73895623 234.3973516 356.94249436 234.3979884 354.14603249 234.39864845 C327.91135864 234.40476689 301.6766985 234.39921882 275.44202676 234.38845466 C252.13245207 234.3789634 228.82289924 234.37981265 205.51332474 234.38937664 C179.32673113 234.40008515 153.14014964 234.40433298 126.95355415 234.39815211 C124.16217804 234.39751067 121.37080193 234.39688499 118.57942581 234.39626598 C117.89211434 234.39610783 117.20480286 234.39594967 116.49666376 234.39578673 C106.11608535 234.39351147 95.7355157 234.39617291 85.35493851 234.40122509 C73.55214371 234.4069408 61.74936978 234.40532718 49.9465766 234.3946636 C43.92250319 234.38940069 37.89847419 234.38736072 31.87440109 234.39396191 C26.36248994 234.3999106 20.85066444 234.39666405 15.33876109 234.3860068 C13.34222459 234.3837682 11.34568088 234.38491934 9.34914899 234.38975838 C6.63947836 234.39582331 3.93010269 234.38961851 1.22044754 234.38031673 C0.44187354 234.38499907 -0.33670046 234.3896814 -1.13886762 234.39450562 C-5.88345939 234.36186338 -9.84685437 233.6178483 -14.39878464 232.12863445 C-15.59374557 231.81925945 -16.78870651 231.50988445 -18.01987839 231.19113445 C-37.94295171 225.64448559 -55.4551873 212.99158138 -65.94565964 194.8981657 C-66.66495651 193.52724773 -66.66495651 193.52724773 -67.39878464 192.12863445 C-67.94019089 191.10125164 -68.48159714 190.07386883 -69.03940964 189.0153532 C-76.41060346 174.07616184 -76.8518157 160.19985866 -76.79722214 143.87863445 C-76.79924763 141.73117251 -76.802163 139.58371125 -76.80591965 137.43625164 C-76.81032062 132.95473913 -76.80398405 128.47340708 -76.78989792 123.9919157 C-76.77280758 118.27967236 -76.78266075 112.56785207 -76.80061531 106.8556242 C-76.81151354 102.42694253 -76.80797922 97.99835931 -76.80023193 93.56967449 C-76.79824659 91.46477488 -76.80062986 89.359866 -76.80767059 87.25497723 C-76.86904679 63.755283 -72.38464764 44.16343718 -55.89878464 26.44113445 C-54.66128464 25.29644695 -54.66128464 25.29644695 -53.39878464 24.12863445 C-52.86253464 23.53824383 -52.32628464 22.9478532 -51.77378464 22.33957195 C-42.46078264 12.28929063 -31.17772026 7.29146954 -18.39878464 3.12863445 C-17.54284714 2.77543133 -16.68690964 2.4222282 -15.80503464 2.05832195 C-10.59803727 0.04652752 -5.52311476 -0.0144339 0 0 Z M-14.39878464 5.12863445 C-15.51253464 5.44961102 -16.62628464 5.77058758 -17.77378464 6.1012907 C-38.70332032 12.39368344 -54.13802371 25.81321009 -64.89097214 44.7575407 C-67.45036247 49.59615142 -69.27978151 54.42970278 -70.72300339 59.70675945 C-71.39878464 62.12863445 -71.39878464 62.12863445 -72.40261459 64.91432476 C-75.58465035 75.18169673 -74.56144769 86.84671665 -74.56675339 97.5153532 C-74.56997968 99.06790985 -74.57334469 100.62046621 -74.57683945 102.17302227 C-74.58278246 105.40945418 -74.58468439 108.64585959 -74.58408737 111.88229656 C-74.58398608 115.97524466 -74.59762639 120.06801803 -74.61485958 124.16092491 C-74.62612425 127.36393759 -74.6280022 130.56690995 -74.62747765 133.76994038 C-74.62863659 135.27621149 -74.6329366 136.78248441 -74.64081001 138.28873539 C-74.67957296 146.46978592 -74.40538364 154.55173651 -73.57188034 162.69430828 C-73.50268229 163.41995574 -73.43348425 164.1456032 -73.36218929 164.89323997 C-72.77640515 170.03586468 -71.35642005 174.33644472 -69.39878464 179.12863445 C-69.03397995 180.12507977 -68.66917526 181.12152508 -68.29331589 182.1481657 C-65.35755029 189.7260444 -61.49263155 195.81834649 -56.39878464 202.12863445 C-55.76972214 202.92269695 -55.14065964 203.71675945 -54.49253464 204.53488445 C-39.78293424 222.13817674 -18.54747599 229.61660263 3.60121536 232.12863445 C10.28104382 232.61125306 16.97516461 232.54405294 23.66836929 232.52304363 C25.62949547 232.52794466 27.59061876 232.53414001 29.55173725 232.54150152 C34.88999697 232.55777077 40.22810776 232.55560988 45.56638348 232.55012655 C51.34371343 232.54744013 57.1210051 232.5620183 62.89831924 232.57422161 C74.19804028 232.59521073 85.49770993 232.59982018 96.79744817 232.59803373 C105.98969773 232.5967227 115.18193136 232.60054759 124.37417793 232.60795879 C127.02869747 232.61005815 129.68321701 232.61215575 132.33773655 232.61425161 C133.32786754 232.6150376 133.32786754 232.6150376 134.33800117 232.61583947 C152.88278608 232.63040596 171.42756533 232.63871278 189.97235584 232.63408947 C191.01923994 232.63383154 191.01923994 232.63383154 192.08727322 232.63356839 C195.62391675 232.63267962 199.16056026 232.63173481 202.69720376 232.63077039 C203.39948099 232.63057935 204.10175822 232.63038832 204.82531658 232.6301915 C206.24548983 232.6298044 207.66566307 232.62941407 209.08583632 232.62902052 C231.16888637 232.62305453 253.25183153 232.63847789 275.33485794 232.67062664 C300.1970456 232.70679141 325.05916677 232.72602433 349.92138237 232.72108793 C363.065923 232.71884999 376.21035968 232.72398717 389.35487938 232.74898052 C400.54721733 232.77008208 411.73939433 232.77349831 422.9317391 232.75468093 C428.63214418 232.74557716 434.33224988 232.74421412 440.03263092 232.76503658 C487.28319662 233.68498973 487.28319662 233.68498973 528.60121536 213.12863445 C529.18902786 212.67101727 529.77684036 212.21340008 530.38246536 211.7419157 C535.28994031 207.81378334 538.92795033 203.20164251 542.60121536 198.12863445 C543.39205521 197.09609539 543.39205521 197.09609539 544.19887161 196.04269695 C548.86188091 189.62658697 551.1918816 182.63100827 553.60121536 175.12863445 C553.91187943 174.23789227 554.22254349 173.34715008 554.54262161 172.4294157 C558.37337471 160.93715641 557.75249098 148.64092346 557.73402786 136.6637907 C557.73470371 135.09782681 557.73567607 133.53186301 557.73692703 131.96589947 C557.73839122 128.70250723 557.73629127 125.43914259 557.73158646 122.17575359 C557.72589474 118.0296464 557.72917287 113.88360405 557.73515892 109.73749924 C557.73880339 106.50895496 557.73760818 103.2804256 557.73503113 100.05188084 C557.73437231 98.52473664 557.73515291 96.99759101 557.73751068 95.47044849 C557.92808721 76.95278765 557.92808721 76.95278765 553.60121536 59.12863445 C553.26219193 58.05871258 552.92316849 56.9887907 552.57387161 55.88644695 C546.10295195 35.97257297 532.29354566 20.97990794 513.90980911 11.21457195 C509.58845534 9.18185394 505.13121315 7.62578266 500.60121536 6.12863445 C499.7646138 5.83859539 498.92801224 5.54855633 498.06605911 5.2497282 C485.85829392 1.24496213 472.98318635 1.98540854 460.28836441 2.00165081 C458.32401785 2.00049753 456.3596715 1.99890861 454.3953256 1.99692357 C449.01619081 1.99275872 443.63707382 1.99480808 438.25793898 1.99790978 C432.44939468 2.00017526 426.64085342 1.99667854 420.83230972 1.99392986 C409.46046835 1.98948541 398.08863357 1.99044278 386.71679194 1.9933425 C377.47325831 1.99560184 368.22972653 1.99590675 358.9861927 1.99481869 C357.01201737 1.99458884 357.01201737 1.99458884 354.99795971 1.99435434 C352.99451926 1.9941164 350.99107881 1.99387519 348.98763837 1.99362745 C323.96489337 1.99057019 298.94215196 1.9933391 273.91940752 1.99872435 C251.70339688 2.00346921 229.48739197 2.00304559 207.27138138 1.99826336 C182.29511678 1.99290489 157.31885536 1.99078759 132.34259027 1.99387562 C129.67841144 1.99419633 127.01423262 1.99450854 124.35005379 1.99481869 C123.03927071 1.99497296 121.72848763 1.99512724 120.37798386 1.99528619 C111.14766093 1.99614906 101.91734005 1.99469339 92.68701744 1.99233913 C81.4352644 1.98953236 70.18351834 1.99029793 58.9317661 1.99561988 C53.19261896 1.9982451 47.45348344 1.99928192 41.7143364 1.99597073 C36.45708775 1.99298347 31.19986147 1.994641 25.94261485 1.99994828 C24.044358 2.00106211 22.14609925 2.00050431 20.24784363 1.99807249 C2.60275705 1.42573277 2.60275705 1.42573277 -14.39878464 5.12863445 Z " fill="#5C5C5C" transform="translate(83.39878463745117,207.87136554718018)"/>
<path d="M0 0 C1.36421082 -0.00855011 1.36421082 -0.00855011 2.75598145 -0.01727295 C4.68952261 -0.0267442 6.62308008 -0.03326532 8.55664062 -0.03710938 C11.49118161 -0.04674346 14.42500076 -0.07771621 17.359375 -0.109375 C19.23957918 -0.11591212 21.11978837 -0.1211598 23 -0.125 C23.86911011 -0.1373468 24.73822021 -0.1496936 25.63366699 -0.16241455 C34.65358451 -0.13007187 41.75268323 2.02700674 48.30078125 8.33984375 C54.21737797 14.71053593 54.46087002 19.33585544 54.3671875 27.8984375 C53.64919931 34.96143764 50.17627706 39.52152869 45.03125 44.203125 C35.79145337 50.22972312 26.82030786 50.3521832 16.09375 50.265625 C14.49563477 50.25885742 14.49563477 50.25885742 12.86523438 50.25195312 C10.25384709 50.24024287 7.64257876 50.22384224 5.03125 50.203125 C5.03648682 51.22784912 5.04172363 52.25257324 5.04711914 53.30834961 C5.06516969 57.09707776 5.0766822 60.88580209 5.08618164 64.67456055 C5.09122174 66.31681964 5.09805378 67.95907423 5.10668945 69.60131836 C5.11876926 71.95687979 5.12448139 74.31238209 5.12890625 76.66796875 C5.13406754 77.40651596 5.13922882 78.14506317 5.14454651 78.9059906 C5.1447425 80.67210588 5.09319719 82.43809646 5.03125 84.203125 C3.22378866 86.01058634 0.52679219 85.37615983 -1.90625 85.390625 C-2.98777344 85.40480469 -4.06929688 85.41898437 -5.18359375 85.43359375 C-7.96875 85.203125 -7.96875 85.203125 -9.96875 83.203125 C-10.16190817 80.58837877 -10.23105952 78.08000587 -10.21166992 75.46459961 C-10.21356827 74.66612106 -10.21546661 73.86764252 -10.21742249 73.04496765 C-10.22113561 70.39836902 -10.21041936 67.7520431 -10.19921875 65.10546875 C-10.19802724 63.2722629 -10.19757373 61.43905644 -10.1978302 59.60585022 C-10.19626446 55.76152736 -10.18796725 51.91729751 -10.17456055 48.07299805 C-10.15755862 43.13398963 -10.15374649 38.19508341 -10.15450573 33.25604916 C-10.15423442 29.47037268 -10.14875976 25.68471875 -10.14150429 21.89904976 C-10.13831212 20.07729831 -10.13634894 18.2555443 -10.13561058 16.43379021 C-10.13345347 13.89323403 -10.12472333 11.35278846 -10.11401367 8.81225586 C-10.11446686 8.05223267 -10.11492004 7.29220947 -10.11538696 6.50915527 C-10.06634702 -1.40677224 -7.02027242 0.03370063 0 0 Z M5.03125 14.203125 C5.03125 21.133125 5.03125 28.063125 5.03125 35.203125 C9.03198585 35.31157868 13.029749 35.39067125 17.03125 35.453125 C18.15660156 35.48664063 19.28195312 35.52015625 20.44140625 35.5546875 C27.45431034 35.63670977 32.1407429 35.14178949 38.03125 31.203125 C39.78484028 27.4936071 40.3412098 25.44296421 39.34375 21.453125 C37.10278785 17.61147559 36.01308365 16.51347472 31.6328125 15.12890625 C26.28403679 13.84874903 21.00087071 13.98481126 15.53125 14.078125 C14.51804687 14.08714844 13.50484375 14.09617187 12.4609375 14.10546875 C9.98427128 14.12883353 7.50772829 14.16469689 5.03125 14.203125 Z " fill="#292929" transform="translate(454.96875,281.796875)"/>
<path d="M0 0 C4.29 0 8.58 0 13 0 C15.88981439 5.1374478 17.80688598 10.30161601 19.5 15.9375 C21.03660271 21.04940108 22.70976576 25.88069226 24.984375 30.71875 C28.14293892 37.8133705 30.42252945 45.32702657 32.95703125 52.6640625 C33.30411133 53.66679199 33.65119141 54.66952148 34.00878906 55.70263672 C34.69429824 57.68514959 35.37737243 59.66850666 36.05761719 61.65283203 C37.95438174 67.14700667 39.99644717 72.50558905 42.36108398 77.81738281 C43 80 43 80 42 84 C38.37 84 34.74 84 31 84 C24 70.48275862 24 70.48275862 24 64 C12.78 64 1.56 64 -10 64 C-10.33 65.32 -10.66 66.64 -11 68 C-11.79255862 70.57098284 -12.6029588 73.13034897 -13.4375 75.6875 C-13.65470703 76.37650391 -13.87191406 77.06550781 -14.09570312 77.77539062 C-14.6725048 79.53697413 -15.33068159 81.27144873 -16 83 C-18.64458379 84.32229189 -20.67761301 84.09677194 -23.625 84.0625 C-24.62789063 84.05347656 -25.63078125 84.04445313 -26.6640625 84.03515625 C-27.43492187 84.02355469 -28.20578125 84.01195312 -29 84 C-30.1878977 80.43630691 -29.77832681 79.88104472 -28.3125 76.5625 C-26.69691938 72.74839729 -25.27639259 68.94105281 -24 65 C-22.52362542 60.48470653 -20.8705196 56.09733131 -19.0703125 51.703125 C-17.34356522 47.34214281 -15.80404 42.91573324 -14.24609375 38.4921875 C-12.87320564 34.64465781 -11.44341194 30.82147339 -10 27 C-9.51151161 25.70190085 -9.02322845 24.40372444 -8.53515625 23.10546875 C-8.2942627 22.46480469 -8.05336914 21.82414062 -7.80517578 21.1640625 C-5.16017252 14.1246324 -2.55415755 7.07305167 0 0 Z M6 20 C5.61328125 21.03898437 5.2265625 22.07796875 4.828125 23.1484375 C4.30227294 24.55736245 3.77621748 25.96621149 3.25 27.375 C2.97776611 28.10509277 2.70553223 28.83518555 2.42504883 29.58740234 C0.63598482 34.36492648 -1.23144314 39.09797258 -3.23828125 43.7890625 C-4.26615257 46.57406043 -4.26615257 46.57406043 -5 52 C2.92 52 10.84 52 19 52 C15.50144516 40.23393957 15.50144516 40.23393957 10.84765625 28.90625 C9.56043586 26.0114871 8.78272513 23.06567344 8 20 C7.34 20 6.68 20 6 20 Z " fill="#1E1E1E" transform="translate(283,282)"/>
<path d="M0 0 C4.62 0 9.24 0 14 0 C17.8724209 7.38461661 21.05958627 14.63670207 23.7734375 22.515625 C26.6956757 31.9516458 26.6956757 31.9516458 32 40 C34.65576775 33.66673567 37.28308021 27.32308028 39.859375 20.95703125 C40.57287109 19.19456055 40.57287109 19.19456055 41.30078125 17.39648438 C42.03450458 15.58195295 42.76816919 13.76739661 43.49951172 11.9519043 C44.22134121 10.16102126 44.94654862 8.37150086 45.671875 6.58203125 C46.0956543 5.53249268 46.51943359 4.4829541 46.95605469 3.40161133 C48 1 48 1 49 0 C51.53049402 -0.07313567 54.03304837 -0.09247527 56.5625 -0.0625 C57.62887695 -0.05573242 57.62887695 -0.05573242 58.71679688 -0.04882812 C60.47790013 -0.03700864 62.23896036 -0.01907263 64 0 C63.39848751 5.566235 61.40777652 10.1772988 59.1875 15.25 C58.45643084 16.95156508 57.72595547 18.65338541 56.99609375 20.35546875 C56.64788574 21.16290527 56.29967773 21.9703418 55.94091797 22.80224609 C54.21374955 26.83648846 52.60695982 30.91686119 51 35 C50.33424443 36.66703082 49.66755192 38.33368771 49 40 C48.00902506 42.47550938 47.01928102 44.95144618 46.03515625 47.4296875 C43.42831976 53.983421 40.74447601 60.50269417 38 67 C37.64808594 67.84175781 37.29617188 68.68351562 36.93359375 69.55078125 C31.78443114 81.56549401 31.78443114 81.56549401 26 85 C21.38702977 86.8122383 15.59676586 86.53225529 11 85 C11 80.38 11 75.76 11 71 C13.97 71.33 16.94 71.66 20 72 C20.5259375 70.2365625 20.5259375 70.2365625 21.0625 68.4375 C21.25972656 67.77621094 21.45695313 67.11492187 21.66015625 66.43359375 C23.07089624 56.33139822 17.14072012 45.21951755 13.01953125 36.23828125 C9.47015445 28.44597126 6.34643787 20.45681925 3.1875 12.5 C2.87321045 11.72213135 2.5589209 10.9442627 2.23510742 10.14282227 C1.94482666 9.40475342 1.6545459 8.66668457 1.35546875 7.90625 C1.09403076 7.24947266 0.83259277 6.59269531 0.56323242 5.91601562 C0 4 0 4 0 0 Z " fill="#242424" transform="translate(514,302)"/>
<path d="M0 0 C0.82757813 0.47050781 1.65515625 0.94101562 2.5078125 1.42578125 C8.78666112 5.23442453 8.78666112 5.23442453 9.75 8.69140625 C9.8325 9.45324219 9.915 10.21507812 10 11 C8.7636832 11.89422914 7.51028438 12.76487891 6.25 13.625 C5.55390625 14.11226563 4.8578125 14.59953125 4.140625 15.1015625 C2 16 2 16 -0.01171875 15.3125 C-0.66785156 14.879375 -1.32398438 14.44625 -2 14 C-8.6331803 9.66544654 -13.97439869 7.43100059 -22 9 C-27.98084384 11.33959041 -33.14119024 14.85085594 -36.21484375 20.6015625 C-38.16884602 26.57050475 -38.2188217 32.77035963 -35.99609375 38.66015625 C-32.45988572 44.69488164 -27.60470017 47.90533788 -21 50 C-12.9547553 51.65838945 -6.58909223 47.970973 0.02734375 43.6875 C2 43 2 43 4.140625 43.8984375 C4.83671875 44.38570313 5.5328125 44.87296875 6.25 45.375 C7.30960937 46.09816406 7.30960937 46.09816406 8.390625 46.8359375 C8.92171875 47.22007812 9.4528125 47.60421875 10 48 C9.73077143 51.23074278 9.32256093 52.67743907 7 55 C-0.76107919 60.1740528 -6.80872228 63.18544425 -16.25 63.25 C-16.98863281 63.270625 -17.72726562 63.29125 -18.48828125 63.3125 C-27.75201489 63.37785262 -35.0938123 58.90496115 -42 53 C-48.06937421 45.83390109 -50.35349379 38.83529579 -50.3125 29.5625 C-50.32861328 28.83740234 -50.34472656 28.11230469 -50.36132812 27.36523438 C-50.36600924 22.15514916 -49.33962823 18.65681398 -47 14 C-46.62101562 13.21753906 -46.24203125 12.43507813 -45.8515625 11.62890625 C-41.47311359 4.2524748 -34.10899216 -0.808598 -26.05078125 -3.69921875 C-16.85432945 -5.04803168 -8.03976566 -4.93004498 0 0 Z " fill="#1E1E1E" transform="translate(426,304)"/>
<path d="M0 0 C0 4.29 0 8.58 0 13 C-1.85625 12.9175 -3.7125 12.835 -5.625 12.75 C-10.96842824 12.76885916 -14.03577722 13.13488279 -18 17 C-21.92500118 22.6482055 -22.58933551 26.82437703 -22.57421875 33.6171875 C-22.58838333 34.51494904 -22.60254791 35.41271057 -22.61714172 36.337677 C-22.65883233 39.1835758 -22.67425196 42.02883956 -22.6875 44.875 C-22.71653768 47.74229074 -22.75099744 50.60942096 -22.78999329 53.47659302 C-22.8125239 55.25603956 -22.82831692 57.03558625 -22.83683777 58.81515503 C-22.89037934 64.89037934 -22.89037934 64.89037934 -24 66 C-25.66429051 66.09823937 -27.33281931 66.12973631 -29 66.125 C-30.36125 66.12886719 -30.36125 66.12886719 -31.75 66.1328125 C-34 66 -34 66 -35 65 C-35.0940067 63.03630847 -35.11743381 61.06920801 -35.11352539 59.10327148 C-35.11344986 57.84203964 -35.11337433 56.5808078 -35.11329651 55.28135681 C-35.1081891 53.89460206 -35.10297309 52.50784771 -35.09765625 51.12109375 C-35.09579201 49.71004791 -35.09436814 48.29900143 -35.09336853 46.88795471 C-35.08954379 43.16759465 -35.0797139 39.4472734 -35.06866455 35.72692871 C-35.05844948 31.93319219 -35.05387071 28.13944942 -35.04882812 24.34570312 C-35.03809158 16.89711564 -35.02049515 9.4485682 -35 2 C-31.04 2 -27.08 2 -23 2 C-22.67 3.32 -22.34 4.64 -22 6 C-21.01 5.67 -20.02 5.34 -19 5 C-19 4.34 -19 3.68 -19 3 C-12.36280445 -0.00552251 -7.28168069 -0.27306303 0 0 Z " fill="#292929" transform="translate(369,300)"/>
<path d="M0 0 C0 3.70103827 -1.3608576 5.72171521 -3 9 C-3 9.99 -3 10.98 -3 12 C-4.35546875 13.8671875 -4.35546875 13.8671875 -6.1875 15.875 C-6.82429687 16.57367188 -7.46109375 17.27234375 -8.1171875 17.9921875 C-8.73851562 18.65476562 -9.35984375 19.31734375 -10 20 C-10.49757813 20.53882813 -10.99515625 21.07765625 -11.5078125 21.6328125 C-12.62417945 22.80265811 -13.80657891 23.90887214 -15 25 C-15.66 25 -16.32 25 -17 25 C-17.35578125 25.89912109 -17.35578125 25.89912109 -17.71875 26.81640625 C-20.16094088 30.97855474 -24.8678286 32.74503164 -29 35 C-29.82371094 35.45890625 -30.64742187 35.9178125 -31.49609375 36.390625 C-37.48498525 39.57192417 -43.44043188 41.38116222 -50 43 C-51.03370539 43.33874704 -52.06741077 43.67749408 -53.13244057 44.02650619 C-57.43762912 45.11015454 -61.20888395 45.27820605 -65.61923218 45.25168228 C-66.88941692 45.2560426 -66.88941692 45.2560426 -68.18526196 45.26049101 C-71.02380839 45.26779202 -73.86213873 45.26084712 -76.70068359 45.25396729 C-78.75588784 45.25627167 -80.81109126 45.25944805 -82.86629295 45.26342177 C-88.51496934 45.27178141 -94.16357826 45.26763916 -99.81225491 45.26144934 C-105.90367023 45.25693065 -111.99507381 45.26390571 -118.08648682 45.26940918 C-129.33014014 45.27779643 -140.57377183 45.27705848 -151.81742471 45.27158624 C-162.2043556 45.26655577 -172.59127859 45.26524143 -182.97821045 45.26763153 C-183.66711409 45.2677843 -184.35601774 45.26793707 -185.06579725 45.26809447 C-187.86225913 45.26871714 -190.658721 45.26935394 -193.45518287 45.270014 C-219.68985673 45.27613244 -245.92451686 45.27058437 -272.1591886 45.2598202 C-295.46876329 45.25032895 -318.77831613 45.2511782 -342.08789062 45.26074219 C-368.27448423 45.2714507 -394.46106572 45.27569853 -420.64766121 45.26951766 C-423.43903732 45.26887622 -426.23041343 45.26825054 -429.02178955 45.26763153 C-429.70910103 45.26747338 -430.3964125 45.26731522 -431.1045516 45.26715227 C-441.48513001 45.26487702 -451.86569966 45.26753846 -462.24627686 45.27259064 C-474.04907165 45.27830635 -485.85184558 45.27669273 -497.65463877 45.26602915 C-503.67871217 45.26076624 -509.70274118 45.25872627 -515.72681427 45.26532745 C-521.23872542 45.27127615 -526.75055092 45.2680296 -532.26245427 45.25737235 C-534.25899078 45.25513374 -536.25553448 45.25628489 -538.25206637 45.26112393 C-540.961737 45.26718886 -543.67111268 45.26098405 -546.38076782 45.25168228 C-547.15934182 45.25636461 -547.93791583 45.26104695 -548.74008298 45.26587117 C-553.51976304 45.23298752 -557.45903876 44.50931493 -562 43 C-559.12598865 41.56299433 -557.15988036 42.46894508 -554 43 C-551.2188056 43.09122005 -548.46343309 43.13612652 -545.68284416 43.12863445 C-544.85656987 43.13038749 -544.03029558 43.13214053 -543.17898268 43.13394669 C-540.40428836 43.13860659 -537.62964645 43.13614121 -534.85494995 43.13371277 C-532.84796898 43.13558073 -530.84098837 43.13788137 -528.83400834 43.14057809 C-523.31411787 43.14670405 -517.79424254 43.14656157 -512.27434945 43.14538372 C-506.32340018 43.14517992 -500.37245579 43.15069637 -494.42150879 43.15544128 C-482.76223827 43.16375208 -471.10297154 43.16650924 -459.44369851 43.16705366 C-449.97114339 43.16751309 -440.4985899 43.16957084 -431.02603531 43.17275429 C-428.30006826 43.17365181 -425.57410121 43.17454163 -422.84813416 43.17542917 C-421.83164608 43.17576074 -421.83164608 43.17576074 -420.79462289 43.17609901 C-401.73470417 43.18225282 -382.67478601 43.18619959 -363.61486626 43.18575573 C-362.53700658 43.18573236 -362.53700658 43.18573236 -361.43737196 43.18570852 C-357.79526582 43.18562541 -354.15315969 43.18552637 -350.51105355 43.18542381 C-349.7877037 43.18540387 -349.06435385 43.18538392 -348.31908431 43.18536337 C-346.85629655 43.18532294 -345.39350879 43.18528114 -343.93072102 43.18523798 C-321.15839748 43.18462486 -298.38608882 43.19213876 -275.61376953 43.20581055 C-250.03662746 43.22115989 -224.45949515 43.22977752 -198.88234818 43.22884732 C-196.15700984 43.22877269 -193.4316715 43.22872399 -190.70633316 43.22869301 C-190.03527072 43.22868135 -189.36420828 43.2286697 -188.67281062 43.22865769 C-177.85996546 43.22862688 -167.04713319 43.23502054 -156.23429187 43.24362527 C-145.37565771 43.25208802 -134.51704339 43.25293039 -123.65840779 43.24651595 C-117.77242898 43.2432384 -111.88649704 43.24323839 -106.00052261 43.2518692 C-100.61826043 43.25968056 -95.23608271 43.25835823 -89.85382272 43.24958507 C-87.90104977 43.2480382 -85.94827068 43.24991039 -83.99550496 43.25544515 C-81.35205716 43.26244456 -78.70891068 43.25725971 -76.06547356 43.24888897 C-75.29798481 43.25385715 -74.53049607 43.25882533 -73.73975009 43.26394406 C-69.93260423 43.23825563 -67.27782051 42.95101724 -64 41 C-61.31009554 40.48629317 -58.64251712 40.03474319 -55.9375 39.625 C-36.51128189 36.37874159 -19.54370759 27.28379242 -7.640625 11.3203125 C-5.01049843 7.60056207 -2.47029717 3.8276033 0 0 Z " fill="#C0C0C0" transform="translate(631,397)"/>
<path d="M0 0 C3.28537103 2.19024735 3.43272747 2.41333135 4.17132568 6.01454163 C5.1218939 10.95215562 5.28243064 15.75135064 5.25878906 20.76733398 C5.2622937 21.69868164 5.26579834 22.6300293 5.26940918 23.58959961 C5.27814932 26.6418421 5.27240423 29.69384925 5.265625 32.74609375 C5.26697398 34.88403874 5.26891645 37.02198342 5.27142334 39.15992737 C5.27436426 43.63081801 5.27011062 48.10162848 5.26074219 52.57250977 C5.24935528 58.2828406 5.25590896 63.99298323 5.26788712 69.70330715 C5.27513952 74.11555887 5.27280217 78.52776651 5.26763153 82.94001961 C5.26630402 85.04460739 5.26791103 87.14919927 5.27259064 89.25378227 C5.27771085 92.20371866 5.26986867 95.15335709 5.25878906 98.10327148 C5.26283752 98.96020096 5.26688599 99.81713043 5.27105713 100.70002747 C5.17716211 114.30088903 0.83902067 130.23678735 -8.3125 140.625 C-8.869375 141.07875 -9.42625 141.5325 -10 142 C-10 139 -10 139 -8.6875 136.875 C-6.4685843 133.09462511 -5.27481158 129.16550274 -4 125 C-3.80083984 124.3797998 -3.60167969 123.75959961 -3.39648438 123.12060547 C-2.70921983 120.98025282 -2.0408938 118.83458983 -1.375 116.6875 C-1.04749756 115.67574707 -1.04749756 115.67574707 -0.71337891 114.64355469 C2.71489689 103.33691436 2.15092235 91.30568987 2.1328125 79.60546875 C2.13348848 78.04429611 2.13446095 76.48312358 2.13571167 74.92195129 C2.13717611 71.66695137 2.13507565 68.4119791 2.13037109 65.15698242 C2.12468895 61.02900824 2.12795127 56.90109933 2.13394356 52.77312756 C2.13759554 49.55308053 2.1363893 46.3330484 2.13381577 43.11300087 C2.1331585 41.59309188 2.1339318 40.07318145 2.13629532 38.55327415 C2.15198395 25.62887774 1.57695039 12.84088174 0 0 Z " fill="#7A7A7A" transform="translate(638,265)"/>
<path d="M0 0 C0.33 0 0.66 0 1 0 C1.10957031 1.2065625 1.21914062 2.413125 1.33203125 3.65625 C1.49161774 5.27088975 1.65180619 6.88547008 1.8125 8.5 C1.88275391 9.29148437 1.95300781 10.08296875 2.02539062 10.8984375 C2.5850193 16.36041339 3.8782048 20.95264769 6 26 C6.36480469 26.99644531 6.72960938 27.99289062 7.10546875 29.01953125 C10.04106694 36.59697785 13.92712365 42.67600964 19 49 C19.55558594 49.72058594 20.11117188 50.44117188 20.68359375 51.18359375 C35.0945907 68.91223029 56.43246114 74.83676097 78 78 C78 78.33 78 78.66 78 79 C54.71763947 78.83871225 37.40834105 73.73262611 20.5625 57.125 C15.14060573 51.58015021 10.61921117 45.89790516 7 39 C6.18789062 37.45892578 6.18789062 37.45892578 5.359375 35.88671875 C0.74885579 26.54258394 -2.73577686 16.54613499 -2 6 C-1.67 6 -1.34 6 -1 6 C-0.67 4.02 -0.34 2.04 0 0 Z " fill="#A6A6A6" transform="translate(9,361)"/>
<path d="M0 0 C0.6640625 1.7109375 0.6640625 1.7109375 1 4 C-0.0390625 6.2265625 -0.0390625 6.2265625 -1.625 8.625 C-6.27326607 15.98026093 -10.02145266 23.15819499 -12.32421875 31.578125 C-13 34 -13 34 -14.00440979 36.79670715 C-17.42392465 47.79893213 -16.20608369 60.74852354 -16.31640625 72.20703125 C-16.33702687 74.02691565 -16.35802448 75.84679582 -16.37937927 77.66667175 C-16.43407337 82.41265388 -16.48371055 87.15867536 -16.53222656 91.90472412 C-16.58283093 96.7652936 -16.63831189 101.62580729 -16.69335938 106.48632812 C-16.80029486 115.99083754 -16.901878 125.49539579 -17 135 C-19.62514313 131.09389168 -19.28838564 126.92078358 -19.2746582 122.39868164 C-19.27976913 121.53140442 -19.28488007 120.6641272 -19.29014587 119.77056885 C-19.30405439 116.90036119 -19.30308277 114.03039364 -19.30078125 111.16015625 C-19.30467028 109.15677298 -19.30900538 107.15339054 -19.31376648 105.15000916 C-19.32123344 100.94429865 -19.32093599 96.73867205 -19.31567383 92.53295898 C-19.30990845 87.1735836 -19.32673661 81.81455711 -19.3500185 76.4552393 C-19.36484489 72.31221037 -19.36561499 68.16926346 -19.36250877 64.02621269 C-19.36301851 62.05248771 -19.3681902 60.07875772 -19.37832069 58.10505867 C-19.47734865 36.09374301 -15.07477997 18.37033821 -1 1 C-0.67 0.67 -0.34 0.34 0 0 Z " fill="#848484" transform="translate(26,236)"/>
<path d="M0 0 C13.44610981 10.90434879 25.88626379 24.95597723 28.1640625 42.76953125 C28.41900224 45.91378801 28.60678937 49.04270523 28.70703125 52.1953125 C27.71703125 51.7003125 27.71703125 51.7003125 26.70703125 51.1953125 C26.02344754 48.88187418 25.43869962 46.60399034 24.89453125 44.2578125 C19.93975481 24.515724 7.36620166 9.49919675 -9.61328125 -1.27734375 C-14.50454657 -4.14373042 -19.53977306 -6.1123784 -24.91015625 -7.91015625 C-27.29296875 -8.8046875 -27.29296875 -8.8046875 -30.29296875 -10.8046875 C-19.8975021 -14.05327083 -8.05980621 -5.86398499 0 0 Z " fill="#A9A9A9" transform="translate(611.29296875,223.8046875)"/>
<path d="M0 0 C0 3.70103827 -1.3608576 5.72171521 -3 9 C-3 9.99 -3 10.98 -3 12 C-4.35546875 13.8671875 -4.35546875 13.8671875 -6.1875 15.875 C-6.82429687 16.57367188 -7.46109375 17.27234375 -8.1171875 17.9921875 C-8.73851562 18.65476562 -9.35984375 19.31734375 -10 20 C-10.49757813 20.53882813 -10.99515625 21.07765625 -11.5078125 21.6328125 C-12.62417945 22.80265811 -13.80657891 23.90887214 -15 25 C-15.66 25 -16.32 25 -17 25 C-17.2371875 25.59941406 -17.474375 26.19882812 -17.71875 26.81640625 C-20.16313898 30.98230088 -24.86893928 32.73608537 -29 35 C-29.78890625 35.45890625 -30.5778125 35.9178125 -31.390625 36.390625 C-38.27063325 40.17235139 -45.30551574 41.67621776 -53 43 C-53.80050781 43.144375 -54.60101562 43.28875 -55.42578125 43.4375 C-59.8771865 44.12898043 -63.62245819 43.82078909 -68 43 C-64.23804856 40.70157536 -60.21432957 40.2728339 -55.9375 39.625 C-36.51128189 36.37874159 -19.54370759 27.28379242 -7.640625 11.3203125 C-5.01049843 7.60056207 -2.47029717 3.8276033 0 0 Z " fill="#A8A8A8" transform="translate(631,397)"/>
<path d="M0 0 C0 0.66 0 1.32 0 2 C0.66 2 1.32 2 2 2 C3.52491998 5.04983996 3.23562548 7.6423369 3 11 C1.9375 12.9375 1.9375 12.9375 0 14 C-3.93094707 14.50030235 -6.1005787 14.5996142 -9.4375 12.375 C-11.47161336 9.28314769 -11.60605429 7.63632575 -11 4 C-8.02080717 -0.52837311 -5.15974216 -0.39690324 0 0 Z " fill="#000000" transform="translate(125,272)"/>
<path d="M0 0 C2 2 2 2 2.265625 4.09375 C2.26046875 4.8878125 2.2553125 5.681875 2.25 6.5 C2.25515625 7.2940625 2.2603125 8.088125 2.265625 8.90625 C2 11 2 11 0 13 C-2.09375 13.265625 -2.09375 13.265625 -4.5 13.25 C-5.2940625 13.25515625 -6.088125 13.2603125 -6.90625 13.265625 C-9 13 -9 13 -11 11 C-11.30078125 8.90625 -11.30078125 8.90625 -11.3125 6.5 C-11.32925781 5.7059375 -11.34601563 4.911875 -11.36328125 4.09375 C-11.18345703 3.05734375 -11.18345703 3.05734375 -11 2 C-6.93150591 -0.71232939 -4.83523216 -0.30699887 0 0 Z " fill="#000000" transform="translate(158,376)"/>
<path d="M0 0 C1.485 0.99 1.485 0.99 3 2 C3.99 2 4.98 2 6 2 C7.64743192 4.07825205 9.04601583 6.07069649 10.4375 8.3125 C10.83710937 8.9511499 11.23671875 9.5897998 11.6484375 10.24780273 C17.55057591 19.93432456 19.63933839 28.65719221 20 40 C19.34 39.67 18.68 39.34 18 39 C17.31641629 36.68656168 16.73166837 34.40867784 16.1875 32.0625 C13.70961901 22.18949233 9.58316964 14.43917108 3.55078125 6.2265625 C2.14364444 4.20624012 1.03334541 2.2295827 0 0 Z " fill="#B3B3B3" transform="translate(620,236)"/>
<path d="M0 0 C9.86217039 3.69084255 19.62494924 5.47832589 30 7 C30 7.33 30 7.66 30 8 C0.48940176 7.79556635 0.48940176 7.79556635 -7.86328125 0.3359375 C-8.23839844 -0.10492188 -8.61351562 -0.54578125 -9 -1 C-5.16364187 -2.27878604 -3.72937721 -1.40547425 0 0 Z " fill="#B7B7B7" transform="translate(57,432)"/>
<path d="M0 0 C2 1 2 1 2.78125 2.78515625 C3.0184375 3.53667969 3.255625 4.28820312 3.5 5.0625 C3.88091797 6.2690625 3.88091797 6.2690625 4.26953125 7.5 C5.28607316 10.9790739 6.16627082 14.47268424 7 18 C10.3 18 13.6 18 17 18 C16.54625 16.80375 16.0925 15.6075 15.625 14.375 C15.35429687 13.64539063 15.08359375 12.91578125 14.8046875 12.1640625 C14.13193422 10.3548134 13.44292999 8.55161797 12.75 6.75 C11.96193255 3.86041937 12.16902297 2.7778375 13 0 C14.03444249 2.57861025 15.05272284 5.16174635 16.0625 7.75 C16.35705078 8.47960937 16.65160156 9.20921875 16.95507812 9.9609375 C17.22900391 10.66992188 17.50292969 11.37890625 17.78515625 12.109375 C18.17006226 13.08342285 18.17006226 13.08342285 18.56274414 14.07714844 C19 16 19 16 18 20 C14.37 20 10.74 20 7 20 C0 6.48275862 0 6.48275862 0 0 Z " fill="#BFBFBF" transform="translate(307,346)"/>
<path d="M0 0 C-0.29067538 8.72026154 -3.15662122 16.883557 -9.19921875 23.35546875 C-9.79347656 23.89816406 -10.38773438 24.44085938 -11 25 C-11 22 -11 22 -9.6875 19.875 C-6.79744818 14.95120801 -5.38488794 9.49555107 -3.9375 4 C-3.628125 3.01 -3.31875 2.02 -3 1 C-1 0 -1 0 0 0 Z " fill="#A0A0A0" transform="translate(639,382)"/>
<path d="M0 0 C0.66 0.33 1.32 0.66 2 1 C2.66 3.64 3.32 6.28 4 9 C-5.24 9 -14.48 9 -24 9 C-23.67 7.35 -23.34 5.7 -23 4 C-22.67 4.99 -22.34 5.98 -22 7 C-14.41 6.67 -6.82 6.34 1 6 C0.67 4.02 0.34 2.04 0 0 Z " fill="#BFBFBF" transform="translate(300,327)"/>
<path d="M0 0 C0 3 0 3 -0.984375 5.7890625 C-3.42460627 13.50394751 -2.62612123 22.41342757 0 30 C0.66 30.33 1.32 30.66 2 31 C3.0358679 32.98166034 4.03112419 34.98473831 5 37 C5.98387706 38.67623498 6.97862543 40.34634594 8 42 C4.4801418 40.56767675 2.93206376 38.91637039 0.875 35.75 C0.37742187 35.00234375 -0.12015625 34.2546875 -0.6328125 33.484375 C-3.73493259 27.84737964 -4.34033085 22.85783894 -4.3125 16.5625 C-4.32861328 15.83740234 -4.34472656 15.11230469 -4.36132812 14.36523438 C-4.36597757 9.1903967 -3.35225345 5.61518081 -1 1 C-0.67 0.67 -0.34 0.34 0 0 Z " fill="#BEBEBE" transform="translate(380,317)"/>
<path d="M0 0 C0.33 0 0.66 0 1 0 C1.22786458 1.953125 1.45572917 3.90625 1.68359375 5.859375 C1.94371445 7.9892904 1.94371445 7.9892904 2.59375 9.9375 C3.12006756 12.60957379 2.65470096 14.60251338 2.0625 17.25 C1.86785156 18.14203125 1.67320312 19.0340625 1.47265625 19.953125 C1.31667969 20.62859375 1.16070313 21.3040625 1 22 C0.01 22 -0.98 22 -2 22 C-3.12368126 18.62895622 -2.58518354 17.50523759 -1.546875 14.25 C-0.41641884 9.59898036 -0.29731819 4.76491526 0 0 Z " fill="#B3B3B3" transform="translate(640,361)"/>
<path d="M0 0 C0 4.29 0 8.58 0 13 C-0.99 12.67 -1.98 12.34 -3 12 C-2.67 8.7 -2.34 5.4 -2 2 C-3.89646998 2.11493757 -5.79218332 2.24239642 -7.6875 2.375 C-9.27111328 2.47941406 -9.27111328 2.47941406 -10.88671875 2.5859375 C-13.90677269 2.98760089 -16.24078054 3.74069019 -19 5 C-19 4.34 -19 3.68 -19 3 C-12.36280445 -0.00552251 -7.28168069 -0.27306303 0 0 Z " fill="#ACACAC" transform="translate(369,300)"/>
<path d="M0 0 C-1.134375 0.268125 -2.26875 0.53625 -3.4375 0.8125 C-4.613125 1.204375 -5.78875 1.59625 -7 2 C-7.33 2.99 -7.66 3.98 -8 5 C-11.83893591 8.94656963 -16.13053005 12.41309409 -21 15 C-18.62374702 7.43919505 -12.80803105 4.04631835 -6.40234375 0.0390625 C-3.7066664 -1.12687274 -2.68521423 -1.05424115 0 0 Z " fill="#767676" transform="translate(402,302)"/>
<path d="M0 0 C0.57878906 0.48984375 1.15757813 0.9796875 1.75390625 1.484375 C0.95726563 1.53335938 0.160625 1.58234375 -0.66015625 1.6328125 C-6.21921168 2.02505729 -10.96687467 2.63664832 -16.24609375 4.484375 C-18.62109375 4.109375 -18.62109375 4.109375 -20.24609375 3.484375 C-19.58609375 3.154375 -18.92609375 2.824375 -18.24609375 2.484375 C-18.90609375 2.154375 -19.56609375 1.824375 -20.24609375 1.484375 C-14.33545964 -1.0487539 -5.79775224 -3.91222238 0 0 Z " fill="#B5B5B5" transform="translate(85.24609375,209.515625)"/>
<path d="M0 0 C0 3.70103827 -1.3608576 5.72171521 -3 9 C-3 9.99 -3 10.98 -3 12 C-5.375 14.6875 -5.375 14.6875 -8 17 C-8.66 17 -9.32 17 -10 17 C-10.66 17.33 -11.32 17.66 -12 18 C-10.46129989 14.53792475 -8.36033626 11.95042033 -6 9 C-3.95813904 6.02729066 -1.97303107 3.01873754 0 0 Z " fill="#BEBEBE" transform="translate(631,397)"/>
<path d="M0 0 C4.04161955 1.34484714 6.38678154 3.0505162 9.3125 6.125 C10.00988281 6.84945312 10.70726562 7.57390625 11.42578125 8.3203125 C11.94527344 8.87460938 12.46476563 9.42890625 13 10 C12.67 10.99 12.34 11.98 12 13 C9.99075122 11.40635476 7.9930193 9.8012172 6 8.1875 C5.42765625 7.73568359 4.8553125 7.28386719 4.265625 6.81835938 C2.78670185 5.61233276 1.38703571 4.31066618 0 3 C0 2.01 0 1.02 0 0 Z " fill="#979797" transform="translate(611,226)"/>
<path d="M0 0 C4.62 0 9.24 0 14 0 C14.66 1.98 15.32 3.96 16 6 C15.62230469 5.51917969 15.24460937 5.03835938 14.85546875 4.54296875 C12.35468595 2.46337042 10.52693196 2.50158423 7.3125 2.3125 C6.31863281 2.24675781 5.32476563 2.18101562 4.30078125 2.11328125 C3.54152344 2.07589844 2.78226563 2.03851563 2 2 C2.33 4.31 2.66 6.62 3 9 C0.23776722 6.23776722 0.42143709 3.79293383 0 0 Z " fill="#838383" transform="translate(514,302)"/>
<path d="M0 0 C-1.98 0.33 -3.96 0.66 -6 1 C-6 1.66 -6 2.32 -6 3 C-7.24663331 3.50833591 -8.49749387 4.00631145 -9.75 4.5 C-10.44609375 4.7784375 -11.1421875 5.056875 -11.859375 5.34375 C-14 6 -14 6 -18 6 C-18 5.01 -18 4.02 -18 3 C-4.75961538 -1.58653846 -4.75961538 -1.58653846 0 0 Z " fill="#909090" transform="translate(71,212)"/>
<path d="M0 0 C0.68359375 1.671875 0.68359375 1.671875 1 4 C-0.21484375 6.578125 -0.21484375 6.578125 -1.9375 9.25 C-2.50339844 10.14203125 -3.06929687 11.0340625 -3.65234375 11.953125 C-4.09707031 12.62859375 -4.54179687 13.3040625 -5 14 C-5.33 13.01 -5.66 12.02 -6 11 C-6.99 11.99 -7.98 12.98 -9 14 C-7.65070536 10.16336928 -5.92248975 7.34827431 -3.375 4.1875 C-2.42753906 3.00220703 -2.42753906 3.00220703 -1.4609375 1.79296875 C-0.97882812 1.20128906 -0.49671875 0.60960937 0 0 Z " fill="#B9B9B9" transform="translate(26,236)"/>
<path d="M0 0 C1 2 1 2 0.109375 4.78515625 C-0.33921875 5.86667969 -0.7878125 6.94820312 -1.25 8.0625 C-1.68828125 9.14660156 -2.1265625 10.23070312 -2.578125 11.34765625 C-4 14 -4 14 -7 15 C-6.2042483 8.10348527 -5.07142235 4.73332752 0 0 Z " fill="#969696" transform="translate(20,246)"/>
<path d="M0 0 C0.99 0.33 1.98 0.66 3 1 C2.27683594 1.81404297 2.27683594 1.81404297 1.5390625 2.64453125 C0.90742187 3.35996094 0.27578125 4.07539063 -0.375 4.8125 C-1.31472656 5.87404297 -1.31472656 5.87404297 -2.2734375 6.95703125 C-4.140599 9.08803819 -4.140599 9.08803819 -6 12 C-6.99 11.67 -7.98 11.34 -9 11 C-7.67667408 6.00076875 -4.39231845 2.60213075 0 0 Z " fill="#959595" transform="translate(34,228)"/>
<path d="M0 0 C3.91211733 1.15585285 6.8745041 2.35534962 10 5 C9.67 5.99 9.34 6.98 9 8 C8.649375 7.525625 8.29875 7.05125 7.9375 6.5625 C4.98663206 4.18276779 2.75805084 4.06263418 -1 4 C-2.9020716 4.83995275 -2.9020716 4.83995275 -4.6875 6 C-8 8 -8 8 -10.20703125 7.625 C-10.79871094 7.41875 -11.39039063 7.2125 -12 7 C-11.30132812 6.66226562 -10.60265625 6.32453125 -9.8828125 5.9765625 C-8.97273438 5.53054688 -8.06265625 5.08453125 -7.125 4.625 C-6.22007812 4.18414062 -5.31515625 3.74328125 -4.3828125 3.2890625 C-1.90465528 2.09497301 -1.90465528 2.09497301 0 0 Z " fill="#B4B4B4" transform="translate(426,347)"/>
<path d="M0 0 C5.75 2.625 5.75 2.625 8 6 C8.0625 7.9375 8.0625 7.9375 7 10 C4.82869909 11.76773451 2.65129912 13.08535969 0 14 C-2.4375 13.25 -2.4375 13.25 -4 12 C-1.68379869 10.84189935 0.46375217 10.49487762 3 10 C3.99 9.67 4.98 9.34 6 9 C3.62370911 4.85329961 3.62370911 4.85329961 0 2 C0 1.34 0 0.68 0 0 Z " fill="#A9A9A9" transform="translate(428,306)"/>
<path d="M0 0 C3 2 3 2 3.46411133 3.81591797 C3.5030249 4.53408691 3.54193848 5.25225586 3.58203125 5.9921875 C3.62650391 6.77980469 3.67097656 7.56742187 3.71679688 8.37890625 C3.74837891 9.20261719 3.77996094 10.02632813 3.8125 10.875 C3.86341797 11.69097656 3.91433594 12.50695312 3.96679688 13.34765625 C4.17122517 17.59560702 4.16251991 20.23111253 2 24 C1.93941406 23.02160156 1.87882813 22.04320312 1.81640625 21.03515625 C1.36678488 14.00031117 0.85950635 6.99883741 0 0 Z " fill="#8B8B8B" transform="translate(638,265)"/>
<path d="M0 0 C3.27286682 2.7819368 4.96427697 6.27954067 7 10 C6.34 10 5.68 10 5 10 C4.67 10.66 4.34 11.32 4 12 C1.69 8.7 -0.62 5.4 -3 2 C-2.34 1.67 -1.68 1.34 -1 1 C-0.67 1.33 -0.34 1.66 0 2 C0 1.34 0 0.68 0 0 Z " fill="#BABABA" transform="translate(20,400)"/>
<path d="M0 0 C1.84121287 4.78715345 -0.28169077 8.37258065 -2.25 12.83203125 C-3.48380394 15.5625235 -4.73397257 18.28432284 -6 21 C-7 19 -7 19 -6.328125 16.42578125 C-4.39926573 10.85585069 -2.43992109 5.36782639 0 0 Z " fill="#A8A8A8" transform="translate(264,334)"/>
<path d="M0 0 C2.34914492 2.34914492 2.73140357 3.95679446 3.625 7.125 C3.88539062 8.03507812 4.14578125 8.94515625 4.4140625 9.8828125 C4.70410156 10.93082031 4.70410156 10.93082031 5 12 C4.34 11.67 3.68 11.34 3 11 C3 10.34 3 9.68 3 9 C2.01 8.67 1.02 8.34 0 8 C-1.1875 4.9375 -1.1875 4.9375 -2 2 C-1.34 2 -0.68 2 0 2 C0 1.34 0 0.68 0 0 Z " fill="#9D9D9D" transform="translate(16,392)"/>
<path d="M0 0 C1.485 0.99 1.485 0.99 3 2 C3.99 2 4.98 2 6 2 C7.6875 4 7.6875 4 9 6 C8.67 6.66 8.34 7.32 8 8 C7.01 8 6.02 8 5 8 C0 2.65116279 0 2.65116279 0 0 Z " fill="#BABABA" transform="translate(620,236)"/>
<path d="M0 0 C4.31392226 0.4793247 6.16569547 1.7457985 9 5 C8.01 5.495 8.01 5.495 7 6 C4.64018187 5.06421005 2.30368736 4.06652192 0 3 C0 2.01 0 1.02 0 0 Z " fill="#999999" transform="translate(43,426)"/>
<path d="M0 0 C0.57878906 0.48984375 1.15757813 0.9796875 1.75390625 1.484375 C-4.03200886 1.58915012 -9.53918741 1.47688045 -15.24609375 0.484375 C-15.24609375 0.154375 -15.24609375 -0.175625 -15.24609375 -0.515625 C-10.32628952 -1.74557606 -4.3848459 -2.95881775 0 0 Z " fill="#C3C3C3" transform="translate(85.24609375,209.515625)"/>
<path d="M0 0 C5.19209404 -0.21192221 9.126739 0.4087311 14 2 C14 2.33 14 2.66 14 3 C12.41753293 3.08153933 10.83383727 3.13943557 9.25 3.1875 C8.36828125 3.22230469 7.4865625 3.25710937 6.578125 3.29296875 C3.55328417 2.94923684 2.24416398 1.99772541 0 0 Z " fill="#848484" transform="translate(572,210)"/>
<path d="M0 0 C0.33 0.99 0.66 1.98 1 3 C-1.31 4.98 -3.62 6.96 -6 9 C-6.33 8.01 -6.66 7.02 -7 6 C-4.69 4.02 -2.38 2.04 0 0 Z " fill="#959595" transform="translate(622,412)"/>
<path d="M0 0 C1.80030122 2.70045182 2.93377066 5.06677881 4.125 8.0625 C4.47820312 8.94035156 4.83140625 9.81820313 5.1953125 10.72265625 C6 13 6 13 6 15 C5.34 15 4.68 15 4 15 C0 5.28571429 0 5.28571429 0 0 Z " fill="#A9A9A9" transform="translate(319,346)"/>
<path d="M0 0 C2.6875 1.4375 2.6875 1.4375 5 3 C4.67 3.99 4.34 4.98 4 6 C0.34683329 4.75023244 -0.78065836 4.32901247 -3 1 C-2.01 0.67 -1.02 0.34 0 0 Z " fill="#B5B5B5" transform="translate(39,422)"/>
<path d="M0 0 C0.66 0 1.32 0 2 0 C2.433125 0.886875 2.86625 1.77375 3.3125 2.6875 C4.76784817 5.54429455 6.31627474 8.27396863 8 11 C3.78926767 9.49616703 2.16762883 6.79335044 0 3 C0 2.01 0 1.02 0 0 Z " fill="#9F9F9F" transform="translate(380,348)"/>
<path d="M0 0 C-0.33 2.97 -0.66 5.94 -1 9 C-1.66 9 -2.32 9 -3 9 C-3 6.36 -3 3.72 -3 1 C-1 0 -1 0 0 0 Z " fill="#939393" transform="translate(639,382)"/>
<path d="M0 0 C0.99 0.33 1.98 0.66 3 1 C4.1875 4.5625 4.1875 4.5625 5 8 C3.0625 7.375 3.0625 7.375 1 6 C0.25 2.875 0.25 2.875 0 0 Z " fill="#949494" transform="translate(627,243)"/>
<path d="M0 0 C0.99 0 1.98 0 3 0 C3 0.99 3 1.98 3 3 C2.34 3 1.68 3 1 3 C0.34 4.32 -0.32 5.64 -1 7 C-1.66 6.67 -2.32 6.34 -3 6 C-2.34 5.34 -1.68 4.68 -1 4 C-1 3.01 -1 2.02 -1 1 C-0.67 0.67 -0.34 0.34 0 0 Z " fill="#B6B6B6" transform="translate(613,419)"/>
<path d="M0 0 C2.9375 0.375 2.9375 0.375 6 1 C6.33 1.66 6.66 2.32 7 3 C7.99 3.66 8.98 4.32 10 5 C5.2482602 4.56802365 3.07999946 3.67230705 0 0 Z " fill="#999999" transform="translate(391,361)"/>
<path d="M0 0 C0.33 0.99 0.66 1.98 1 3 C-1.3125 4.125 -1.3125 4.125 -4 5 C-4.99 4.34 -5.98 3.68 -7 3 C-2.25 0 -2.25 0 0 0 Z " fill="#BBBBBB" transform="translate(53,216)"/>
<path d="M0 0 C0.99 0.33 1.98 0.66 3 1 C1.75 3 1.75 3 0 5 C-1.32 5 -2.64 5 -4 5 C-3 2 -3 2 0 0 Z " fill="#8E8E8E" transform="translate(610,422)"/>
<path d="M0 0 C2.6875 1.4375 2.6875 1.4375 5 3 C3.02 3.99 3.02 3.99 1 5 C-0.32 3.68 -1.64 2.36 -3 1 C-2.01 0.67 -1.02 0.34 0 0 Z " fill="#BABABA" transform="translate(609,223)"/>
<path d="M0 0 C2 1 2 1 2 1 Z " fill="#E3ECF5" transform="translate(132,270)"/>
</svg>
