<?xml version="1.0" standalone="no"?>
<!DOCTYPE svg PUBLIC "-//W3C//DTD SVG 20010904//EN"
 "http://www.w3.org/TR/2001/REC-SVG-20010904/DTD/svg10.dtd">
<svg version="1.0" xmlns="http://www.w3.org/2000/svg"
 width="437.000000pt" height="434.000000pt" viewBox="0 0 437.000000 434.000000"
 preserveAspectRatio="xMidYMid meet">
<metadata>
Created by potrace 1.16, written by Peter Selinger 2001-2019
</metadata>
<g transform="translate(0.000000,434.000000) scale(0.100000,-0.100000)"
fill="#000000" stroke="none">
<path d="M20 2170 l0 -2170 2175 0 2175 0 0 2170 0 2170 -2175 0 -2175 0 0
-2170z m3183 2063 c3 -26 10 -49 16 -51 6 -2 11 -11 11 -21 0 -9 4 -21 10 -27
5 -5 13 -32 16 -59 4 -28 10 -52 13 -55 12 -10 31 -50 31 -65 0 -8 4 -15 10
-15 5 0 12 -17 16 -37 4 -21 11 -44 16 -50 6 -7 7 -20 4 -29 -7 -18 14 -74 26
-74 5 0 8 -13 8 -30 0 -16 5 -30 10 -30 6 0 10 -9 10 -20 0 -11 8 -34 18 -52
11 -18 18 -41 16 -51 -1 -9 2 -17 7 -17 5 0 9 -12 9 -27 0 -17 3 -23 8 -16 4
7 18 -33 32 -90 13 -56 27 -104 30 -107 12 -12 29 -51 40 -91 17 -68 42 -129
51 -129 5 0 9 -16 9 -36 0 -19 4 -33 9 -30 5 3 12 -18 16 -46 4 -29 10 -55 14
-58 15 -12 30 -51 25 -65 -3 -8 -2 -15 4 -15 5 0 14 -12 20 -27 19 -52 42
-132 42 -147 0 -9 3 -16 8 -16 12 0 32 -52 39 -97 3 -24 10 -43 14 -43 5 0 9
-11 9 -25 0 -14 5 -25 10 -25 6 0 10 -13 10 -30 0 -16 5 -30 10 -30 6 0 10
-11 10 -24 0 -14 7 -31 15 -40 8 -8 15 -24 15 -35 0 -12 5 -21 10 -21 6 0 10
-11 10 -25 0 -14 4 -25 9 -25 5 0 12 -22 16 -50 4 -27 11 -50 16 -50 5 0 9
-15 9 -33 0 -18 7 -42 15 -53 8 -10 15 -27 15 -36 0 -10 5 -18 10 -18 6 0 10
-11 10 -25 0 -14 4 -25 8 -25 5 0 17 -27 27 -60 10 -33 21 -60 25 -60 4 0 10
-28 14 -62 3 -35 11 -64 16 -66 6 -2 10 -16 10 -30 0 -16 8 -32 19 -39 12 -8
21 -29 25 -65 4 -29 12 -55 17 -59 6 -3 13 -24 16 -47 4 -27 10 -39 18 -35 10
3 13 -8 13 -42 -1 -25 4 -51 10 -57 7 -7 12 -22 12 -35 0 -13 5 -23 10 -23 6
0 10 -7 10 -15 0 -8 5 -15 10 -15 6 0 10 -11 10 -24 0 -14 5 -28 10 -31 6 -3
10 -23 10 -43 0 -38 -29 -70 -51 -56 -6 3 -18 -4 -28 -15 -10 -12 -23 -21 -30
-21 -6 0 -11 -5 -11 -10 0 -6 -6 -10 -12 -9 -19 3 -51 -12 -69 -33 -9 -10 -21
-18 -28 -18 -6 0 -11 -4 -11 -9 0 -5 -15 -12 -33 -15 -19 -3 -43 -15 -54 -25
-11 -10 -29 -22 -41 -25 -12 -4 -22 -12 -22 -17 0 -5 -9 -9 -19 -9 -11 0 -21
-3 -23 -7 -3 -7 -39 -26 -147 -77 -19 -9 -42 -16 -52 -16 -10 0 -20 -8 -24
-19 -3 -10 -26 -26 -50 -37 -25 -10 -45 -21 -45 -25 0 -4 -13 -10 -30 -14 -16
-4 -30 -11 -30 -16 0 -5 -9 -9 -20 -9 -11 0 -20 -4 -20 -9 0 -9 -38 -24 -54
-22 -4 1 -15 -7 -25 -17 -15 -17 -138 -82 -156 -82 -4 0 -15 -8 -24 -18 -17
-19 -81 -52 -100 -52 -6 0 -11 -4 -11 -10 0 -5 -9 -10 -19 -10 -11 0 -21 -3
-23 -7 -1 -5 -34 -23 -73 -42 -38 -19 -72 -38 -75 -42 -3 -4 -19 -11 -35 -15
-16 -4 -38 -16 -49 -26 -11 -10 -26 -18 -33 -18 -7 0 -13 -4 -13 -9 0 -5 -15
-12 -33 -15 -18 -3 -39 -15 -47 -26 -8 -11 -20 -20 -27 -20 -7 0 -13 -4 -13
-10 0 -5 -9 -10 -20 -10 -11 0 -20 -4 -20 -9 0 -5 -18 -11 -40 -15 -23 -4 -38
-11 -35 -16 3 -6 -1 -10 -9 -10 -9 0 -16 -4 -16 -9 0 -5 -13 -12 -29 -16 -16
-3 -35 -13 -42 -21 -6 -8 -18 -14 -26 -14 -7 0 -23 -9 -35 -20 -23 -21 -48
-27 -48 -10 0 6 -9 10 -20 10 -11 0 -20 5 -20 10 0 6 -8 10 -19 10 -10 0 -24
7 -31 15 -7 8 -18 15 -25 15 -7 0 -15 7 -19 15 -3 8 -15 15 -26 15 -11 0 -20
4 -20 9 0 5 -10 13 -22 17 -12 3 -27 12 -34 18 -33 31 -56 46 -80 52 -14 4
-31 15 -37 25 -7 11 -20 19 -29 19 -10 0 -18 4 -18 9 0 5 -10 13 -23 17 -12 4
-29 15 -37 24 -8 9 -25 20 -38 24 -12 4 -20 12 -17 17 4 5 -2 9 -12 9 -10 0
-25 9 -32 19 -8 11 -20 17 -28 14 -7 -3 -13 0 -13 6 0 6 -9 11 -20 11 -11 0
-20 5 -20 10 0 6 -18 18 -40 27 -22 10 -40 21 -40 25 0 5 -7 8 -15 8 -8 0 -15
4 -15 9 0 5 -10 13 -22 17 -13 4 -30 14 -38 23 -20 22 -66 51 -81 51 -16 0
-59 36 -52 44 3 3 -1 6 -10 6 -10 0 -17 4 -17 10 0 5 -3 9 -7 8 -15 -4 -58 15
-74 33 -8 10 -28 21 -43 25 -15 3 -33 15 -39 25 -7 11 -20 19 -29 19 -10 0
-18 4 -18 10 0 5 -11 12 -25 16 -14 3 -25 10 -25 15 0 5 -6 9 -13 9 -7 0 -23
11 -35 25 -12 14 -29 25 -37 25 -8 0 -15 5 -15 11 0 5 -4 8 -8 5 -5 -3 -18 4
-30 14 -12 11 -28 20 -37 20 -8 0 -15 4 -15 9 0 5 -13 12 -28 16 -15 3 -34 15
-42 25 -8 11 -20 20 -27 20 -7 0 -13 4 -13 9 0 5 -10 13 -22 17 -13 4 -25 9
-28 13 -12 15 -80 61 -89 61 -6 0 -11 4 -11 10 0 5 -11 12 -25 16 -14 3 -25
10 -25 15 0 5 -9 9 -20 9 -11 0 -20 4 -20 10 0 5 -11 12 -25 16 -14 3 -25 10
-25 15 0 5 -9 9 -19 9 -10 0 -21 6 -24 14 -3 8 -17 20 -31 28 -13 7 -45 24
-70 37 -25 14 -46 28 -46 32 0 4 -10 9 -23 13 -13 3 -29 17 -37 31 -7 14 -19
26 -27 26 -7 1 -17 2 -23 3 -10 1 -46 25 -66 44 -7 6 -19 12 -27 12 -8 0 -18
7 -21 16 -3 9 -6 650 -6 1425 l0 1409 1559 0 1558 0 6 -47z"/>
<path d="M907 3263 c-4 -3 -7 -413 -7 -910 l0 -903 175 0 175 0 0 910 0 910
-168 0 c-93 0 -172 -3 -175 -7z"/>
<path d="M2217 2823 c-74 -3 -99 -7 -104 -18 -3 -8 -16 -15 -28 -15 -13 0 -27
-4 -30 -10 -3 -5 -14 -10 -24 -10 -10 0 -34 -17 -54 -37 -79 -83 -97 -83 -97
2 l0 55 -134 0 c-74 0 -141 -3 -150 -6 -14 -6 -16 -74 -16 -670 l0 -663 171
-3 c94 -2 172 -1 174 0 2 2 4 191 5 420 0 254 4 420 10 426 6 6 10 20 10 33 0
13 4 23 9 23 4 0 14 20 21 45 7 25 18 45 26 45 7 0 16 9 19 20 3 11 13 20 22
20 8 0 26 9 40 20 53 42 201 18 226 -37 5 -12 16 -23 24 -23 9 0 12 -7 7 -24
-3 -13 -1 -27 5 -30 8 -5 11 -150 11 -472 l0 -464 169 0 170 0 3 423 3 422 27
45 c15 25 28 54 28 65 1 22 32 65 48 65 5 0 12 6 15 13 9 23 92 40 160 34 75
-7 97 -15 97 -33 0 -8 11 -19 23 -25 23 -10 24 -16 30 -167 4 -87 7 -311 7
-499 l0 -343 170 0 170 0 0 529 c0 453 -2 530 -15 541 -8 7 -17 27 -21 46 -3
19 -12 34 -19 34 -8 0 -15 14 -17 33 -2 25 -8 33 -26 35 -16 2 -22 8 -18 18 3
8 1 14 -4 14 -5 0 -13 12 -16 26 -4 16 -12 23 -20 20 -8 -3 -14 -2 -14 3 0 4
-24 20 -54 35 -114 58 -410 43 -476 -24 -8 -9 -27 -21 -42 -28 -16 -6 -28 -16
-28 -22 0 -14 -19 -33 -47 -48 -29 -16 -43 -15 -43 3 0 8 -10 20 -22 26 -13 7
-27 18 -31 25 -4 8 -16 14 -26 14 -10 0 -32 13 -48 29 -17 16 -48 34 -69 41
-22 7 -49 16 -62 21 -13 5 -28 8 -35 7 -7 -1 -56 -4 -110 -5z"/>
</g>
</svg>
