<?xml version="1.0" standalone="no"?>
<!DOCTYPE svg PUBLIC "-//W3C//DTD SVG 20010904//EN"
 "http://www.w3.org/TR/2001/REC-SVG-20010904/DTD/svg10.dtd">
<svg version="1.0" xmlns="http://www.w3.org/2000/svg"
 width="1058.000000pt" height="1058.000000pt" viewBox="0 0 1058.000000 1058.000000"
 preserveAspectRatio="xMidYMid meet">
<metadata>
Created by potrace 1.16, written by Peter Selinger 2001-2019
</metadata>
<g transform="translate(0.000000,1058.000000) scale(0.100000,-0.100000)"
fill="#000000" stroke="none">
<path d="M3340 10570 c0 -6 -33 -10 -80 -10 -64 0 -80 -3 -80 -15 0 -11 -12
-15 -50 -15 -27 0 -50 -4 -50 -10 0 -5 -16 -10 -35 -10 -24 0 -35 -5 -35 -15
0 -9 -9 -15 -25 -15 -14 0 -25 -4 -25 -10 0 -5 -16 -10 -35 -10 -19 0 -35 -4
-35 -10 0 -5 -11 -10 -25 -10 -16 0 -25 -6 -25 -15 0 -9 -9 -15 -25 -15 -14 0
-25 -4 -25 -10 0 -5 -11 -10 -25 -10 -16 0 -25 -6 -25 -15 0 -9 -9 -15 -21
-15 -22 0 -49 -22 -49 -39 0 -6 -10 -11 -23 -11 -12 0 -29 -9 -37 -20 -8 -11
-25 -20 -37 -20 -14 0 -23 -6 -23 -15 0 -8 -5 -15 -11 -15 -14 0 -39 -25 -39
-39 0 -6 -11 -11 -25 -11 -18 0 -25 -5 -25 -20 0 -15 -7 -20 -25 -20 -14 0
-25 -6 -25 -13 0 -7 -9 -19 -20 -27 -11 -8 -20 -20 -20 -27 0 -7 -5 -13 -11
-13 -17 0 -39 -27 -39 -49 0 -12 -5 -21 -11 -21 -14 0 -39 -25 -39 -39 0 -6
-5 -11 -10 -11 -19 0 -60 -48 -60 -70 0 -11 -7 -20 -15 -20 -8 0 -15 -7 -15
-15 0 -8 -4 -15 -10 -15 -5 0 -10 -11 -10 -25 0 -16 -6 -25 -15 -25 -8 0 -15
-9 -15 -20 0 -11 -4 -20 -10 -20 -5 0 -10 -11 -10 -25 0 -14 -4 -25 -10 -25
-5 0 -10 -11 -10 -25 0 -16 -6 -25 -15 -25 -9 0 -15 -9 -15 -25 0 -14 -4 -25
-10 -25 -5 0 -10 -11 -10 -25 0 -16 -6 -25 -15 -25 -10 0 -15 -11 -15 -35 0
-19 -4 -35 -10 -35 -5 0 -10 -22 -10 -50 0 -27 -4 -50 -10 -50 -5 0 -10 -20
-10 -45 0 -33 -4 -45 -15 -45 -12 0 -15 -15 -15 -75 0 -43 -4 -75 -10 -75 -6
0 -10 -70 -10 -190 0 -120 4 -190 10 -190 6 0 10 -32 10 -75 0 -60 3 -75 15
-75 11 0 15 -12 15 -45 0 -25 5 -45 10 -45 6 0 10 -22 10 -50 0 -27 5 -50 10
-50 6 0 10 -11 10 -25 0 -16 6 -25 15 -25 10 0 15 -11 15 -35 0 -19 5 -35 10
-35 6 0 10 -11 10 -25 0 -16 6 -25 15 -25 9 0 15 -9 15 -25 0 -14 5 -25 10
-25 6 0 10 -9 10 -20 0 -11 5 -20 10 -20 6 0 10 -7 10 -15 0 -8 7 -15 15 -15
9 0 15 -9 15 -25 0 -14 5 -25 10 -25 6 0 10 -9 10 -20 0 -11 7 -20 15 -20 8 0
15 -6 15 -13 0 -7 9 -19 20 -27 11 -8 20 -25 20 -37 0 -14 6 -23 15 -23 8 0
15 -5 15 -11 0 -11 25 -39 35 -39 10 0 35 -28 35 -39 0 -6 5 -11 11 -11 11 0
39 -25 39 -35 0 -8 27 -35 35 -35 10 0 35 -28 35 -39 0 -6 5 -11 11 -11 11 0
39 -25 39 -35 0 -14 30 -35 49 -35 12 0 21 -4 21 -10 0 -5 7 -10 15 -10 8 0
15 -7 15 -15 0 -8 5 -15 10 -15 6 0 10 -9 10 -21 0 -22 -22 -49 -39 -49 -6 0
-11 -11 -11 -25 0 -14 -4 -25 -10 -25 -5 0 -10 -11 -10 -25 0 -14 -5 -25 -11
-25 -14 0 -39 -25 -39 -39 0 -6 -10 -11 -23 -11 -12 0 -29 -9 -37 -20 -8 -11
-25 -20 -37 -20 -13 0 -23 -5 -23 -11 0 -14 -25 -39 -39 -39 -6 0 -11 -5 -11
-11 0 -17 -27 -39 -49 -39 -12 0 -21 -4 -21 -10 0 -5 -7 -10 -15 -10 -8 0 -15
-6 -15 -13 0 -7 -9 -19 -20 -27 -11 -8 -20 -20 -20 -27 0 -7 -6 -13 -13 -13
-7 0 -19 -9 -27 -20 -8 -11 -20 -20 -27 -20 -7 0 -13 -6 -13 -13 0 -7 -9 -19
-20 -27 -11 -8 -20 -20 -20 -27 0 -7 -7 -13 -15 -13 -9 0 -15 -9 -15 -21 0
-19 -21 -49 -35 -49 -14 0 -35 -30 -35 -49 0 -12 -4 -21 -10 -21 -5 0 -10 -7
-10 -15 0 -8 -7 -15 -15 -15 -8 0 -15 -9 -15 -20 0 -11 -4 -20 -10 -20 -5 0
-10 -7 -10 -15 0 -8 -7 -15 -15 -15 -9 0 -15 -9 -15 -25 0 -14 -4 -25 -10 -25
-5 0 -10 -9 -10 -20 0 -11 -7 -20 -15 -20 -9 0 -15 -9 -15 -25 0 -14 -4 -25
-10 -25 -5 0 -10 -11 -10 -25 0 -14 -4 -25 -10 -25 -5 0 -10 -11 -10 -25 0
-16 -6 -25 -15 -25 -11 0 -15 -12 -15 -50 0 -27 -4 -50 -10 -50 -5 0 -10 -20
-10 -45 0 -33 -4 -45 -15 -45 -12 0 -15 -17 -15 -95 0 -57 -4 -95 -10 -95 -6
0 -10 -27 -10 -60 0 -33 4 -60 10 -60 6 0 10 -40 10 -100 0 -82 3 -100 15
-100 12 0 15 -13 15 -60 0 -33 4 -60 10 -60 6 0 10 -16 10 -35 0 -24 5 -35 15
-35 10 0 15 -11 15 -35 0 -19 5 -35 10 -35 6 0 10 -11 10 -25 0 -14 5 -25 10
-25 6 0 10 -16 10 -35 0 -24 5 -35 15 -35 8 0 15 -7 15 -15 0 -8 5 -15 10 -15
6 0 10 -16 10 -35 0 -19 5 -35 11 -35 17 0 39 -27 39 -49 0 -12 6 -21 15 -21
9 0 15 -9 15 -23 0 -12 9 -29 20 -37 11 -8 20 -25 20 -37 0 -14 6 -23 15 -23
8 0 15 -5 15 -11 0 -14 25 -39 39 -39 6 0 11 -11 11 -25 0 -18 5 -25 20 -25
11 0 20 -4 20 -10 0 -5 7 -10 15 -10 9 0 15 -9 15 -25 0 -20 5 -25 25 -25 14
0 25 -5 25 -10 0 -14 46 -60 60 -60 5 0 10 -7 10 -15 0 -9 9 -15 21 -15 22 0
49 -22 49 -39 0 -6 10 -11 23 -11 12 0 29 -9 37 -20 8 -11 25 -20 37 -20 14 0
23 -6 23 -15 0 -9 9 -15 25 -15 14 0 25 -4 25 -10 0 -5 11 -10 25 -10 16 0 25
-6 25 -15 0 -9 9 -15 25 -15 14 0 25 -4 25 -10 0 -5 9 -10 20 -10 11 0 20 -4
20 -10 0 -5 11 -10 25 -10 16 0 25 -6 25 -15 0 -9 9 -15 25 -15 14 0 25 -4 25
-10 0 -5 16 -10 35 -10 24 0 35 -5 35 -15 0 -11 11 -15 40 -15 22 0 40 -4 40
-10 0 -5 20 -10 45 -10 33 0 45 -4 45 -15 0 -9 9 -15 25 -15 14 0 25 -4 25
-10 0 -5 21 -10 46 -10 49 0 74 -16 74 -49 0 -12 6 -21 15 -21 8 0 15 -7 15
-15 0 -8 5 -15 10 -15 6 0 10 -29 10 -66 0 -64 13 -94 39 -94 6 0 11 -5 11
-11 0 -14 25 -39 39 -39 6 0 11 -10 11 -23 0 -12 9 -29 20 -37 11 -8 20 -20
20 -27 0 -7 5 -13 11 -13 14 0 39 -25 39 -39 0 -6 7 -11 15 -11 9 0 15 -9 15
-25 0 -18 5 -25 20 -25 11 0 20 -4 20 -10 0 -5 5 -10 11 -10 14 0 39 -25 39
-39 0 -6 5 -11 11 -11 11 0 39 -25 39 -35 0 -10 28 -35 39 -35 6 0 11 -4 11
-10 0 -5 11 -10 25 -10 14 0 25 -5 25 -11 0 -17 27 -39 49 -39 12 0 21 -5 21
-11 0 -17 27 -39 49 -39 12 0 21 -4 21 -10 0 -5 11 -10 25 -10 16 0 25 -6 25
-15 0 -9 9 -15 25 -15 14 0 25 -4 25 -10 0 -5 16 -10 35 -10 24 0 35 -5 35
-15 0 -10 11 -15 35 -15 19 0 35 -4 35 -10 0 -5 7 -10 15 -10 8 0 15 -4 15
-10 0 -5 -7 -10 -15 -10 -11 0 -15 -11 -15 -40 0 -22 -4 -40 -10 -40 -6 0 -10
-30 -10 -70 0 -56 -3 -70 -15 -70 -13 0 -15 -22 -15 -135 0 -83 -4 -135 -10
-135 -7 0 -10 -335 -10 -985 0 -650 -3 -985 -10 -985 -5 0 -10 -7 -10 -15 0
-8 -5 -15 -11 -15 -17 0 -39 -27 -39 -49 0 -12 -6 -21 -15 -21 -9 0 -15 -9
-15 -25 0 -14 -4 -25 -10 -25 -5 0 -10 -16 -10 -35 0 -19 -4 -35 -10 -35 -5 0
-10 -16 -10 -35 0 -24 -5 -35 -15 -35 -11 0 -15 -12 -15 -50 0 -27 -4 -50 -10
-50 -16 0 -13 -159 4 -176 11 -10 42 -14 120 -14 l106 0 0 -46 c0 -49 16 -74
49 -74 12 0 21 -6 21 -15 0 -9 9 -15 25 -15 14 0 25 -4 25 -10 0 -5 11 -10 25
-10 14 0 25 -4 25 -10 0 -5 16 -10 35 -10 24 0 35 -5 35 -15 0 -9 9 -15 25
-15 14 0 25 -4 25 -10 0 -5 16 -10 35 -10 24 0 35 -5 35 -15 0 -9 9 -15 25
-15 14 0 25 -4 25 -10 0 -5 23 -10 50 -10 28 0 50 -4 50 -10 0 -5 9 -10 20
-10 11 0 20 -7 20 -15 0 -12 13 -15 60 -15 33 0 60 -4 60 -10 0 -5 23 -10 50
-10 38 0 50 -4 50 -15 0 -13 24 -15 155 -15 131 0 155 2 155 15 0 11 11 15 40
15 22 0 40 5 40 10 0 6 9 10 20 10 11 0 20 -4 20 -10 0 -5 7 -10 15 -10 8 0
15 -7 15 -15 0 -8 5 -15 10 -15 6 0 10 -11 10 -25 0 -20 5 -25 25 -25 14 0 25
-4 25 -10 0 -5 5 -10 11 -10 11 0 39 -25 39 -35 0 -17 32 -35 64 -35 25 0 36
-4 36 -15 0 -11 12 -15 45 -15 25 0 45 -4 45 -10 0 -5 23 -10 50 -10 28 0 50
5 50 10 0 6 27 10 60 10 47 0 60 3 60 15 0 13 26 15 170 15 107 0 170 4 170
10 0 6 30 10 70 10 56 0 70 3 70 15 0 12 13 15 60 15 33 0 60 4 60 10 0 6 27
10 60 10 33 0 60 4 60 10 0 6 18 10 40 10 29 0 40 4 40 15 0 10 11 15 35 15
19 0 35 5 35 10 0 6 16 10 35 10 24 0 35 5 35 15 0 10 11 15 35 15 19 0 35 5
35 10 0 6 16 10 35 10 24 0 35 5 35 15 0 11 11 15 40 15 22 0 40 5 40 10 0 6
11 10 25 10 14 0 25 5 25 10 0 6 16 10 35 10 24 0 35 5 35 15 0 9 9 15 25 15
14 0 25 5 25 10 0 6 16 10 35 10 24 0 35 5 35 15 0 9 9 15 25 15 14 0 25 5 25
10 0 6 16 10 35 10 19 0 35 5 35 10 0 6 11 10 25 10 16 0 25 6 25 15 0 8 9 15
20 15 11 0 20 5 20 10 0 6 11 10 25 10 16 0 25 6 25 15 0 9 9 15 25 15 14 0
25 5 25 10 0 6 16 10 35 10 19 0 35 5 35 10 0 6 11 10 25 10 16 0 25 6 25 15
0 9 9 15 25 15 14 0 25 5 25 10 0 6 11 10 25 10 16 0 25 6 25 15 0 9 9 15 23
15 12 0 29 9 37 20 8 11 25 20 37 20 14 0 23 6 23 15 0 9 9 15 25 15 14 0 25
5 25 10 0 6 20 10 45 10 25 0 45 -4 45 -10 0 -5 11 -10 25 -10 16 0 25 -6 25
-15 0 -9 9 -15 25 -15 14 0 25 -4 25 -10 0 -5 16 -10 35 -10 19 0 35 -4 35
-10 0 -6 27 -10 60 -10 47 0 60 -3 60 -15 0 -12 20 -15 120 -15 100 0 120 3
120 15 0 11 11 15 40 15 22 0 40 5 40 10 0 6 16 10 35 10 19 0 35 5 35 10 0 6
11 10 25 10 14 0 25 5 25 11 0 17 27 39 49 39 12 0 21 5 21 11 0 14 25 39 39
39 6 0 11 5 11 11 0 14 25 39 39 39 6 0 11 21 11 50 0 47 -2 50 -25 50 -16 0
-25 -6 -25 -15 0 -10 -11 -15 -35 -15 -19 0 -35 -4 -35 -10 0 -5 -18 -10 -40
-10 -29 0 -40 -4 -40 -15 0 -11 -12 -15 -45 -15 -25 0 -45 -4 -45 -10 0 -6
-55 -10 -145 -10 -90 0 -145 4 -145 10 0 6 -18 10 -40 10 -29 0 -40 4 -40 15
0 8 -9 15 -20 15 -11 0 -20 5 -20 10 0 6 -7 10 -15 10 -8 0 -15 5 -15 11 0 17
-27 39 -49 39 -17 0 -21 6 -21 35 0 19 -4 35 -10 35 -5 0 -10 23 -10 50 0 38
-4 50 -15 50 -13 0 -15 31 -15 215 0 137 -4 215 -10 215 -6 0 -10 72 -10 195
0 167 -2 195 -15 195 -12 0 -15 18 -15 105 0 63 -4 105 -10 105 -6 0 -10 28
-10 65 0 37 -4 65 -10 65 -6 0 -10 27 -10 60 0 47 -3 60 -15 60 -11 0 -15 12
-15 45 0 25 -4 45 -10 45 -5 0 -10 16 -10 35 0 24 -5 35 -15 35 -11 0 -15 11
-15 40 0 22 -4 40 -10 40 -5 0 -10 11 -10 25 0 16 -6 25 -15 25 -10 0 -15 11
-15 35 0 19 -4 35 -10 35 -5 0 -10 11 -10 25 0 14 -4 25 -10 25 -5 0 -10 16
-10 35 0 19 -5 35 -11 35 -20 0 -39 29 -39 59 0 21 -5 31 -15 31 -8 0 -15 7
-15 15 0 8 -4 15 -10 15 -5 0 -10 9 -10 21 0 22 -22 49 -39 49 -6 0 -11 9 -11
21 0 22 -22 49 -39 49 -6 0 -11 11 -11 25 0 14 -4 25 -10 25 -5 0 -10 5 -10
11 0 11 -25 39 -35 39 -14 0 -35 30 -35 49 0 12 -6 21 -15 21 -8 0 -15 5 -15
11 0 11 -25 39 -35 39 -8 0 -35 27 -35 35 0 10 -28 35 -39 35 -6 0 -11 5 -11
11 0 14 -25 39 -39 39 -6 0 -11 5 -11 10 0 6 -9 10 -20 10 -11 0 -20 7 -20 15
0 8 -5 15 -11 15 -14 0 -39 25 -39 39 0 6 -7 11 -15 11 -8 0 -15 5 -15 10 0 6
-9 10 -20 10 -11 0 -20 7 -20 15 0 8 -7 15 -15 15 -8 0 -15 5 -15 10 0 6 -9
10 -21 10 -22 0 -49 22 -49 39 0 6 -11 11 -25 11 -20 0 -25 5 -25 25 0 14 6
25 13 25 7 0 19 9 27 20 8 11 25 20 37 20 13 0 23 5 23 11 0 14 25 39 39 39 6
0 11 7 11 15 0 8 9 15 20 15 11 0 20 5 20 10 0 6 5 10 11 10 14 0 39 25 39 39
0 6 5 11 11 11 30 0 39 29 39 134 0 64 -4 106 -10 106 -5 0 -10 23 -10 50 0
29 -5 50 -11 50 -17 0 -39 27 -39 49 0 12 -5 21 -11 21 -16 0 -39 26 -39 45 0
19 -23 45 -39 45 -6 0 -11 7 -11 15 0 8 -4 15 -10 15 -5 0 -10 11 -10 25 0 14
-5 25 -10 25 -19 0 -60 48 -60 70 0 11 -7 20 -15 20 -8 0 -15 5 -15 11 0 14
-25 39 -39 39 -6 0 -11 7 -11 15 0 8 -4 15 -10 15 -5 0 -10 9 -10 20 0 11 -7
20 -15 20 -8 0 -15 6 -15 13 0 7 -9 19 -20 27 -11 8 -20 25 -20 37 0 13 -5 23
-11 23 -14 0 -39 25 -39 39 0 6 -5 11 -11 11 -16 0 -39 26 -39 45 0 19 -23 45
-39 45 -6 0 -11 5 -11 11 0 14 -25 39 -39 39 -6 0 -11 6 -11 13 0 7 -9 19 -20
27 -11 8 -20 25 -20 37 0 13 -5 23 -11 23 -6 0 -17 6 -25 14 -8 8 -14 19 -14
25 0 6 -5 11 -11 11 -6 0 -17 6 -25 14 -8 8 -14 19 -14 25 0 6 -7 11 -15 11
-8 0 -15 9 -15 20 0 11 -4 20 -10 20 -5 0 -10 5 -10 11 0 6 -6 17 -14 25 -8 8
-19 14 -25 14 -6 0 -11 5 -11 11 0 11 -25 39 -35 39 -10 0 -35 28 -35 39 0 6
-9 11 -21 11 -22 0 -49 22 -49 39 0 6 -7 11 -15 11 -8 0 -15 5 -15 10 0 6 -20
10 -45 10 -25 0 -45 -4 -45 -10 0 -6 -47 -10 -120 -10 -113 0 -120 1 -120 20
0 11 -7 20 -15 20 -9 0 -15 9 -15 25 0 14 -4 25 -10 25 -5 0 -10 7 -10 15 0 8
-5 15 -11 15 -17 0 -39 27 -39 49 0 16 -6 21 -25 21 -20 0 -25 5 -25 25 0 19
-5 25 -21 25 -22 0 -49 22 -49 39 0 6 -6 11 -13 11 -7 0 -19 9 -27 20 -8 11
-25 20 -37 20 -13 0 -23 5 -23 11 0 17 -27 39 -49 39 -12 0 -21 5 -21 11 0 17
-27 39 -49 39 -12 0 -21 5 -21 10 0 6 -11 10 -25 10 -14 0 -25 5 -25 11 0 17
-27 39 -49 39 -12 0 -21 6 -21 15 0 9 -9 15 -25 15 -14 0 -25 5 -25 10 0 6
-11 10 -25 10 -16 0 -25 6 -25 15 0 9 -9 15 -25 15 -14 0 -25 5 -25 10 0 6
-16 10 -35 10 -19 0 -35 5 -35 10 0 6 -11 10 -25 10 -16 0 -25 6 -25 15 0 13
-21 15 -130 15 -109 0 -130 -2 -130 -15 0 -9 -9 -15 -25 -15 -14 0 -25 -4 -25
-10 0 -5 -7 -10 -15 -10 -8 0 -15 -4 -15 -10 0 -5 -9 -10 -20 -10 -11 0 -20
-7 -20 -15 0 -8 -7 -15 -15 -15 -8 0 -15 -4 -15 -10 0 -5 -11 -10 -25 -10 -16
0 -25 -6 -25 -15 0 -8 -9 -15 -20 -15 -11 0 -20 -4 -20 -10 0 -5 -7 -10 -15
-10 -8 0 -15 -5 -15 -11 0 -14 -25 -39 -39 -39 -6 0 -11 -11 -11 -25 0 -23 -4
-25 -45 -25 -25 0 -45 -4 -45 -10 0 -5 -11 -10 -25 -10 -14 0 -25 5 -25 10 0
6 -7 10 -15 10 -8 0 -15 7 -15 15 0 8 -9 15 -20 15 -11 0 -20 5 -20 10 0 6
-18 10 -40 10 -22 0 -40 -4 -40 -10 0 -5 7 -10 15 -10 8 0 15 -5 15 -11 0 -17
27 -39 49 -39 12 0 21 -6 21 -15 0 -10 -11 -15 -35 -15 -24 0 -35 5 -35 15 0
9 -9 15 -25 15 -14 0 -25 5 -25 10 0 6 -11 10 -25 10 -20 0 -25 -5 -25 -25 0
-20 5 -25 25 -25 18 0 25 -5 25 -20 0 -11 -4 -20 -10 -20 -5 0 -10 -7 -10 -15
0 -9 -9 -15 -25 -15 -14 0 -25 -4 -25 -10 0 -5 -7 -10 -15 -10 -8 0 -15 -5
-15 -11 0 -28 -30 -39 -109 -39 -47 0 -81 -4 -81 -10 0 -5 -11 -10 -25 -10
-14 0 -25 -5 -25 -11 0 -17 -27 -39 -49 -39 -12 0 -21 -6 -21 -15 0 -8 -4 -15
-10 -15 -5 0 -10 -11 -10 -25 0 -16 -6 -25 -15 -25 -8 0 -15 -9 -15 -20 0 -14
-7 -20 -23 -20 -12 0 -29 9 -37 20 -8 11 -25 20 -37 20 -14 0 -23 6 -23 15 0
11 -12 15 -50 15 -38 0 -50 -4 -50 -15 0 -8 -9 -15 -20 -15 -11 0 -20 -4 -20
-10 0 -5 -7 -10 -15 -10 -9 0 -15 -9 -15 -21 0 -22 -22 -49 -39 -49 -6 0 -11
-16 -11 -35 0 -19 -4 -35 -10 -35 -5 0 -10 -22 -10 -50 l0 -50 -135 0 c-83 0
-135 4 -135 10 0 6 -16 10 -35 10 -24 0 -35 5 -35 15 0 9 -9 15 -25 15 -14 0
-25 5 -25 10 0 6 -9 10 -20 10 -11 0 -20 7 -20 15 0 9 -9 15 -25 15 -14 0 -25
5 -25 10 0 6 -7 10 -15 10 -8 0 -15 5 -15 10 0 6 -9 10 -20 10 -11 0 -20 7
-20 15 0 8 -5 15 -11 15 -14 0 -39 25 -39 39 0 6 -7 11 -15 11 -8 0 -15 5 -15
10 0 6 -9 10 -21 10 -19 0 -49 21 -49 35 0 10 -28 35 -39 35 -6 0 -11 5 -11
11 0 14 -25 39 -39 39 -6 0 -11 11 -11 25 0 18 -5 25 -20 25 -15 0 -20 7 -20
25 0 14 -5 25 -11 25 -14 0 -39 25 -39 39 0 6 -5 11 -10 11 -19 0 -60 48 -60
70 0 11 -7 20 -15 20 -8 0 -15 7 -15 15 0 8 -4 15 -10 15 -5 0 -10 9 -10 20 0
11 -7 20 -15 20 -9 0 -15 9 -15 25 0 14 -4 25 -10 25 -5 0 -10 11 -10 25 0 16
-6 25 -15 25 -9 0 -15 9 -15 25 0 14 -4 25 -10 25 -5 0 -10 11 -10 25 0 14 -4
25 -10 25 -5 0 -10 20 -10 45 0 33 -4 45 -15 45 -13 0 -15 26 -15 170 0 144 2
170 15 170 10 0 15 11 15 35 0 19 5 35 10 35 6 0 10 16 10 36 0 35 18 64 39
64 6 0 11 11 11 25 0 14 5 25 10 25 6 0 10 11 10 25 0 14 6 25 13 25 7 0 19 9
27 20 8 11 20 20 27 20 7 0 13 7 13 15 0 8 5 15 10 15 6 0 10 9 10 21 0 19 21
49 35 49 10 0 35 28 35 39 0 6 9 11 21 11 22 0 49 22 49 39 0 6 5 11 11 11 14
0 39 25 39 39 0 6 10 11 23 11 12 0 29 9 37 20 8 11 25 20 37 20 14 0 23 6 23
15 0 9 9 15 25 15 14 0 25 5 25 10 0 6 27 10 60 10 47 0 60 3 60 15 0 11 12
15 50 15 28 0 50 5 50 10 0 6 20 10 45 10 25 0 45 5 45 10 0 6 18 10 40 10 29
0 40 4 40 15 0 9 9 15 21 15 22 0 49 22 49 39 0 7 34 11 95 11 78 0 95 -3 95
-15 0 -13 22 -15 135 -15 113 0 135 2 135 15 0 12 16 15 85 15 50 0 85 4 85
10 0 6 27 10 60 10 33 0 60 4 60 10 0 6 16 10 35 10 24 0 35 5 35 15 0 10 11
15 35 15 19 0 35 5 35 10 0 6 11 10 25 10 16 0 25 6 25 15 0 9 9 15 25 15 14
0 25 5 25 10 0 6 16 10 35 10 24 0 35 5 35 15 0 9 9 15 23 15 12 0 29 9 37 20
8 11 25 20 37 20 14 0 23 6 23 15 0 9 9 15 21 15 22 0 49 22 49 39 0 6 11 11
25 11 14 0 25 5 25 10 0 6 5 10 11 10 14 0 39 25 39 39 0 6 9 11 21 11 22 0
49 22 49 39 0 6 5 11 10 11 14 0 60 46 60 60 0 5 5 10 11 10 14 0 39 25 39 39
0 6 5 11 11 11 16 0 39 26 39 45 0 19 23 45 39 45 6 0 11 7 11 15 0 8 5 15 10
15 6 0 10 11 10 25 0 14 5 25 11 25 17 0 39 27 39 49 0 12 5 21 11 21 17 0 39
27 39 49 0 12 5 21 10 21 6 0 10 11 10 25 0 16 6 25 15 25 9 0 15 9 15 25 0
14 5 25 10 25 6 0 10 16 10 35 0 24 5 35 15 35 10 0 15 11 15 35 0 19 5 35 10
35 6 0 10 11 10 25 0 14 5 25 10 25 6 0 10 23 10 50 0 38 4 50 15 50 12 0 15
13 15 60 0 33 4 60 10 60 6 0 10 98 10 275 0 177 -4 275 -10 275 -5 0 -10 23
-10 50 0 38 -4 50 -15 50 -11 0 -15 12 -15 45 0 25 -4 45 -10 45 -5 0 -10 11
-10 25 0 14 -4 25 -10 25 -5 0 -10 16 -10 35 0 24 -5 35 -15 35 -11 0 -15 11
-15 40 0 22 -4 40 -10 40 -5 0 -10 9 -10 20 0 11 -7 20 -15 20 -9 0 -15 9 -15
25 0 14 -4 25 -10 25 -5 0 -10 9 -10 21 0 22 -22 49 -39 49 -6 0 -11 11 -11
25 0 14 -4 25 -10 25 -5 0 -10 7 -10 15 0 8 -7 15 -15 15 -9 0 -15 9 -15 21 0
19 -21 49 -35 49 -14 0 -35 30 -35 49 0 12 -4 21 -10 21 -5 0 -10 7 -10 15 0
8 -6 15 -13 15 -7 0 -19 9 -27 20 -8 11 -20 20 -27 20 -7 0 -13 6 -13 13 0 7
-9 19 -20 27 -11 8 -20 20 -20 27 0 7 -6 13 -13 13 -7 0 -19 9 -27 20 -8 11
-20 20 -27 20 -7 0 -13 7 -13 15 0 8 -9 15 -20 15 -11 0 -20 5 -20 10 0 6 -7
10 -15 10 -8 0 -15 5 -15 11 0 17 -27 39 -49 39 -12 0 -21 5 -21 10 0 6 -7 10
-15 10 -8 0 -15 7 -15 15 0 8 -9 15 -20 15 -11 0 -20 5 -20 10 0 6 -11 10 -25
10 -16 0 -25 6 -25 15 0 8 -7 15 -15 15 -8 0 -15 5 -15 10 0 6 -16 10 -35 10
-19 0 -35 5 -35 11 0 20 -29 39 -59 39 -17 0 -31 5 -31 10 0 6 -18 10 -40 10
-29 0 -40 4 -40 15 0 10 -11 15 -35 15 -19 0 -35 5 -35 10 0 6 -22 10 -50 10
-38 0 -50 4 -50 15 0 12 -16 15 -80 15 -47 0 -80 4 -80 10 0 6 -68 10 -185 10
-117 0 -185 -4 -185 -10z m320 -75 c0 -12 16 -15 85 -15 50 0 85 -4 85 -10 0
-6 27 -10 60 -10 33 0 60 -4 60 -10 0 -5 9 -10 20 -10 11 0 20 -7 20 -15 0
-11 12 -15 50 -15 28 0 50 -4 50 -10 0 -5 11 -10 25 -10 16 0 25 -6 25 -15 0
-9 9 -15 25 -15 14 0 25 -4 25 -10 0 -5 11 -10 25 -10 16 0 25 -6 25 -15 0 -8
9 -15 20 -15 11 0 20 -4 20 -10 0 -5 11 -10 25 -10 14 0 25 -4 25 -10 0 -5 7
-10 15 -10 8 0 15 -5 15 -11 0 -17 27 -39 49 -39 12 0 21 -6 21 -15 0 -9 9
-15 23 -15 12 0 29 -9 37 -20 8 -11 20 -20 27 -20 7 0 13 -6 13 -13 0 -7 9
-19 20 -27 11 -8 20 -20 20 -27 0 -7 6 -13 13 -13 7 0 19 -9 27 -20 8 -11 20
-20 27 -20 7 0 13 -6 13 -13 0 -7 9 -19 20 -27 11 -8 20 -20 20 -27 0 -7 7
-13 15 -13 8 0 15 -9 15 -20 0 -11 5 -20 10 -20 6 0 10 -7 10 -15 0 -8 5 -15
11 -15 17 0 39 -27 39 -49 0 -12 5 -21 10 -21 6 0 10 -7 10 -15 0 -8 7 -15 15
-15 8 0 15 -9 15 -20 0 -11 5 -20 10 -20 6 0 10 -7 10 -15 0 -8 7 -15 15 -15
9 0 15 -9 15 -25 0 -14 5 -25 10 -25 6 0 10 -16 10 -35 0 -24 5 -35 15 -35 9
0 15 -9 15 -25 0 -14 5 -25 10 -25 6 0 10 -9 10 -20 0 -11 5 -20 10 -20 6 0
10 -32 10 -75 0 -47 4 -75 11 -75 14 0 39 -25 39 -39 0 -6 -11 -11 -25 -11
-22 0 -25 -4 -25 -35 0 -28 -4 -35 -20 -35 -18 0 -20 -7 -20 -60 0 -47 -3 -60
-15 -60 -10 0 -15 -11 -15 -35 0 -19 -4 -35 -10 -35 -5 0 -10 -7 -10 -15 0 -8
-5 -15 -11 -15 -17 0 -39 -27 -39 -49 0 -12 -5 -21 -11 -21 -14 0 -39 -25 -39
-39 0 -6 -4 -11 -10 -11 -5 0 -10 -16 -10 -35 0 -31 -3 -35 -25 -35 -14 0 -25
-4 -25 -10 0 -5 -7 -10 -15 -10 -8 0 -15 -7 -15 -15 0 -9 9 -15 25 -15 14 0
25 -4 25 -10 0 -15 -67 -12 -74 3 -5 10 -7 10 -12 0 -3 -7 -12 -13 -20 -13 -8
0 -14 -7 -14 -15 0 -8 7 -15 15 -15 8 0 15 -4 15 -10 0 -5 -7 -10 -15 -10 -8
0 -15 -4 -15 -10 0 -6 -38 -10 -95 -10 -57 0 -95 4 -95 10 0 6 -5 10 -11 10
-14 0 -39 25 -39 39 0 7 -27 11 -70 11 -56 0 -70 -3 -70 -15 0 -13 -43 -15
-330 -15 -213 0 -330 -4 -330 -10 0 -5 -20 -10 -45 -10 -25 0 -45 -4 -45 -10
0 -5 -7 -10 -15 -10 -11 0 -15 -11 -15 -40 0 -29 4 -40 15 -40 8 0 15 -4 15
-10 0 -6 -27 -10 -60 -10 -33 0 -60 4 -60 10 0 6 -22 10 -50 10 -38 0 -50 4
-50 15 0 9 -9 15 -25 15 -14 0 -25 5 -25 10 0 6 -9 10 -20 10 -11 0 -20 7 -20
15 0 8 -7 15 -15 15 -8 0 -15 5 -15 10 0 6 -9 10 -21 10 -35 0 -49 24 -49 84
0 53 1 56 25 56 16 0 25 6 25 15 0 12 13 15 60 15 47 0 60 -3 60 -15 0 -9 9
-15 23 -15 12 0 29 -9 37 -20 11 -15 26 -20 62 -20 l48 0 0 35 c0 19 -5 35
-11 35 -14 0 -39 25 -39 39 0 6 -11 11 -25 11 -19 0 -25 5 -25 21 0 26 23 49
49 49 12 0 21 5 21 10 0 6 7 10 15 10 12 0 15 13 15 60 0 33 4 60 10 60 6 0
10 11 10 25 0 14 5 25 10 25 6 0 10 11 10 25 0 16 6 25 15 25 9 0 15 9 15 25
0 14 5 25 10 25 6 0 10 11 10 25 0 16 6 25 15 25 12 0 15 14 15 70 0 56 -3 70
-15 70 -8 0 -15 5 -15 11 0 11 -25 39 -35 39 -8 0 -35 27 -35 35 0 10 -28 35
-39 35 -6 0 -11 11 -11 25 0 14 -4 25 -10 25 -5 0 -10 16 -10 35 0 19 5 35 10
35 6 0 10 7 10 15 0 8 5 15 11 15 27 0 39 30 39 99 0 41 -4 71 -10 71 -5 0
-10 9 -10 20 0 15 -7 20 -25 20 -16 0 -25 6 -25 15 0 8 -7 15 -15 15 -8 0 -15
5 -15 10 0 6 -27 10 -60 10 -47 0 -60 3 -60 15 0 8 -9 15 -20 15 -11 0 -20 5
-20 10 0 6 -35 10 -85 10 -50 0 -85 -4 -85 -10 0 -5 -11 -10 -25 -10 -20 0
-25 -5 -25 -25 0 -16 -6 -25 -15 -25 -12 0 -15 -16 -15 -85 l0 -85 -31 0 c-40
0 -59 20 -59 64 0 25 -4 36 -15 36 -11 0 -15 12 -15 45 0 38 -3 45 -20 45 -11
0 -20 7 -20 15 0 12 -15 15 -75 15 -60 0 -75 -3 -75 -15 0 -11 -12 -15 -50
-15 -38 0 -50 4 -50 15 0 9 9 15 25 15 14 0 25 5 25 10 0 6 7 10 15 10 12 0
15 14 15 70 0 40 4 70 10 70 6 0 10 -14 10 -31 0 -40 20 -59 64 -59 25 0 36
-4 36 -15 0 -9 9 -15 25 -15 16 0 25 6 25 15 0 10 11 15 35 15 29 0 35 4 35
21 0 11 6 27 14 35 8 8 24 14 35 14 12 0 21 5 21 10 0 6 27 10 60 10 33 0 60
-4 60 -10 0 -5 16 -10 35 -10 19 0 35 -4 35 -10 0 -5 23 -10 50 -10 28 0 50 5
50 10 0 6 11 10 25 10 23 0 25 3 25 50 0 38 -4 50 -15 50 -8 0 -15 5 -15 10 0
6 -9 10 -20 10 -11 0 -20 5 -20 10 0 6 -18 10 -40 10 -36 0 -40 3 -40 25 0 14
-4 25 -10 25 -5 0 -10 11 -10 25 0 23 3 25 50 25 38 0 50 4 50 15 0 8 5 15 10
15 6 0 10 -11 10 -25 0 -14 5 -25 10 -25 6 0 10 -11 10 -25 0 -20 5 -25 25
-25 16 0 25 -6 25 -15 0 -8 7 -15 15 -15 8 0 15 -4 15 -10 0 -5 20 -10 45 -10
25 0 45 5 45 10 0 6 7 10 15 10 12 0 15 18 15 100 l0 100 120 0 c100 0 120 -2
120 -15z m-650 -158 c0 -12 9 -29 20 -37 11 -8 20 -18 20 -22 0 -4 -43 -8 -95
-8 -78 0 -95 -3 -95 -15 0 -9 -9 -15 -21 -15 -19 0 -49 -21 -49 -35 0 -14 -30
-35 -49 -35 -17 0 -21 6 -21 35 0 31 3 35 25 35 14 0 25 5 25 11 0 16 26 39
45 39 19 0 45 23 45 39 0 6 16 11 35 11 19 0 35 5 35 10 0 6 18 10 40 10 35 0
40 -3 40 -23z m140 -372 c0 -8 7 -15 15 -15 8 0 15 -4 15 -10 0 -6 33 -10 80
-10 47 0 80 -4 80 -10 0 -5 7 -10 15 -10 12 0 15 -14 15 -65 0 -40 -4 -65 -11
-65 -17 0 -39 -27 -39 -49 0 -12 -4 -21 -10 -21 -5 0 -10 -20 -10 -45 0 -25 5
-45 10 -45 6 0 10 -11 10 -25 0 -14 5 -25 10 -25 6 0 10 -7 10 -15 0 -8 6 -15
13 -15 7 0 19 -9 27 -20 8 -11 20 -20 27 -20 7 0 13 -6 13 -13 0 -7 9 -19 20
-27 16 -12 20 -26 20 -72 0 -32 -4 -58 -10 -58 -5 0 -10 -7 -10 -15 0 -8 -4
-15 -10 -15 -5 0 -10 -16 -10 -35 0 -19 -5 -35 -11 -35 -17 0 -39 -27 -39 -49
0 -12 -6 -21 -15 -21 -11 0 -15 -12 -15 -50 0 -43 -3 -50 -20 -50 -11 0 -20
-4 -20 -10 0 -5 -11 -10 -25 -10 -20 0 -25 -5 -25 -25 0 -16 -6 -25 -15 -25
-8 0 -15 -4 -15 -10 0 -5 -20 -10 -45 -10 -33 0 -45 -4 -45 -15 0 -11 -11 -15
-40 -15 -22 0 -40 -4 -40 -10 0 -5 -9 -10 -20 -10 -11 0 -20 -7 -20 -15 0 -8
-7 -15 -15 -15 -12 0 -15 -17 -15 -95 0 -78 3 -95 15 -95 9 0 15 -9 15 -25 0
-18 5 -25 20 -25 11 0 20 -4 20 -10 0 -5 7 -10 15 -10 8 0 15 -5 15 -11 0 -14
25 -39 39 -39 6 0 11 -4 11 -10 0 -5 11 -10 25 -10 16 0 25 -6 25 -15 0 -12
-14 -15 -65 -15 -51 0 -65 3 -65 15 0 11 -12 15 -45 15 -25 0 -45 5 -45 10 0
6 -16 10 -35 10 -19 0 -35 5 -35 10 0 6 -18 10 -40 10 -28 0 -40 4 -40 14 0 8
-6 17 -12 20 -10 5 -10 7 0 12 27 13 -1 54 -37 54 -12 0 -21 5 -21 10 0 6 -16
10 -35 10 -24 0 -35 5 -35 15 0 8 -5 15 -11 15 -11 0 -39 25 -39 35 0 8 -27
35 -35 35 -14 0 -35 30 -35 49 0 12 -6 21 -15 21 -8 0 -15 6 -15 13 0 7 -9 19
-20 27 -11 8 -20 20 -20 27 0 7 -7 13 -15 13 -8 0 -15 9 -15 20 0 11 -4 20
-10 20 -5 0 -10 11 -10 25 0 16 -6 25 -15 25 -9 0 -15 9 -15 25 0 14 -4 25
-10 25 -5 0 -10 16 -10 35 0 19 -4 35 -10 35 -5 0 -10 16 -10 35 0 24 -5 35
-15 35 -11 0 -15 12 -15 50 0 38 4 50 15 50 12 0 15 13 15 60 0 33 4 60 10 60
6 0 10 32 10 75 0 43 -4 75 -10 75 -5 0 -10 9 -10 20 0 11 -7 20 -15 20 -8 0
-15 5 -15 11 0 17 -27 39 -49 39 -12 0 -21 6 -21 15 0 8 -7 15 -15 15 -8 0
-15 9 -15 20 0 11 7 20 15 20 8 0 15 5 15 11 0 14 25 39 39 39 6 0 11 5 11 11
0 14 25 39 39 39 6 0 11 7 11 15 0 12 18 15 105 15 63 0 105 4 105 10 0 6 35
10 85 10 l85 0 0 -35 c0 -24 5 -35 15 -35 9 0 15 -9 15 -25 0 -14 5 -25 10
-25 6 0 10 -5 10 -11 0 -14 25 -39 39 -39 6 0 11 -4 11 -10 0 -6 30 -10 70
-10 40 0 70 4 70 10 0 6 5 10 11 10 26 0 39 30 39 89 0 34 -4 61 -10 61 -5 0
-10 9 -10 20 0 11 5 20 10 20 6 0 10 7 10 15 0 12 13 15 60 15 47 0 60 -3 60
-15z m-960 -335 c0 -5 16 -10 35 -10 31 0 35 -3 35 -25 0 -14 5 -25 10 -25 6
0 10 -22 10 -50 0 -27 -4 -50 -10 -50 -5 0 -10 -11 -10 -25 0 -16 -6 -25 -15
-25 -12 0 -15 -17 -15 -94 0 -66 -4 -96 -12 -100 -10 -5 -10 -7 0 -12 6 -3 12
-12 12 -20 0 -8 7 -14 15 -14 10 0 15 -11 15 -35 0 -19 5 -35 10 -35 6 0 10
-27 10 -60 0 -47 3 -60 15 -60 9 0 15 -9 15 -25 0 -14 5 -25 10 -25 6 0 10 -4
10 -10 0 -15 -39 -12 -56 4 -17 18 -18 32 -1 40 10 5 10 7 0 12 -7 3 -13 17
-13 30 0 15 -6 24 -15 24 -8 0 -15 5 -15 10 0 6 7 10 15 10 8 0 15 7 15 15 0
8 -5 15 -10 15 -14 0 -60 46 -60 60 0 5 -5 10 -11 10 -25 0 -39 30 -39 84 0
43 -3 56 -15 56 -9 0 -15 -9 -15 -25 0 -14 -4 -25 -10 -25 -6 0 -10 32 -10 75
0 43 -4 75 -10 75 -5 0 -10 16 -10 35 0 19 5 35 10 35 6 0 10 11 10 25 0 14 5
25 10 25 6 0 10 11 10 25 0 16 6 25 15 25 8 0 15 9 15 20 0 12 6 27 13 35 14
17 37 20 37 5z m1760 -990 c0 -6 67 -10 180 -10 153 0 180 -2 180 -15 0 -9 -9
-15 -25 -15 -14 0 -25 -4 -25 -10 0 -6 -27 -10 -60 -10 -57 0 -60 -1 -60 -25
0 -24 -2 -25 -75 -25 -43 0 -75 -4 -75 -10 0 -6 40 -10 100 -10 60 0 100 4
100 10 0 6 11 10 25 10 14 0 25 -4 25 -10 0 -5 -11 -10 -25 -10 -16 0 -25 -6
-25 -15 0 -12 -13 -15 -60 -15 -33 0 -60 -4 -60 -10 0 -6 -32 -10 -75 -10 -73
0 -75 -1 -75 -25 0 -23 -4 -25 -45 -25 -33 0 -45 4 -45 15 0 8 -7 15 -15 15
-9 0 -15 -9 -15 -25 0 -14 -4 -25 -10 -25 -5 0 -10 5 -10 10 0 6 -11 10 -25
10 -16 0 -25 6 -25 15 0 9 -9 15 -25 15 -20 0 -25 -5 -25 -25 0 -20 5 -25 25
-25 20 0 25 -5 25 -25 0 -14 -4 -25 -10 -25 -5 0 -10 5 -10 10 0 6 -11 10 -25
10 -24 0 -25 2 -25 75 0 47 -4 75 -11 75 -23 0 -39 30 -39 74 l0 46 60 0 c33
0 60 4 60 10 0 6 43 10 110 10 67 0 110 -4 110 -10z m-410 -251 c0 -96 9 -119
49 -119 12 0 21 -6 21 -15 0 -12 -17 -15 -95 -15 -75 0 -95 3 -95 14 0 8 6 16
13 19 7 2 8 8 3 13 -5 5 -11 4 -13 -3 -6 -16 -123 -18 -123 -3 0 15 -147 13
-154 -2 -5 -10 -7 -10 -12 0 -7 14 -104 17 -104 2 0 -5 -4 -10 -10 -10 -5 0
-10 9 -10 20 0 11 5 20 10 20 6 0 10 11 10 25 0 14 5 25 10 25 6 0 10 7 10 15
0 8 -4 15 -10 15 -5 0 -10 -7 -10 -15 0 -9 -9 -15 -25 -15 -16 0 -25 6 -25 15
0 9 -9 15 -25 15 -16 0 -25 -6 -25 -15 0 -8 -9 -15 -20 -15 -17 0 -20 7 -20
40 l0 40 -50 0 c-27 0 -50 5 -50 10 0 6 35 10 85 10 50 0 85 -4 85 -10 0 -5
11 -10 25 -10 16 0 25 -6 25 -15 0 -8 5 -15 10 -15 6 0 10 7 10 15 0 13 20 15
120 15 113 0 120 1 120 20 0 19 7 20 135 20 l135 0 0 -91z m-820 -954 c0 -19
5 -35 10 -35 6 0 10 5 10 10 0 6 7 10 15 10 8 0 15 7 15 15 0 8 5 15 10 15 6
0 10 -11 10 -25 0 -22 4 -25 35 -25 24 0 35 -5 35 -15 0 -12 16 -15 85 -15 50
0 85 -4 85 -10 0 -5 11 -10 25 -10 14 0 25 -4 25 -10 0 -5 -16 -10 -35 -10
-24 0 -35 -5 -35 -15 0 -12 -13 -15 -60 -15 -33 0 -60 -4 -60 -10 0 -5 -11
-10 -25 -10 -14 0 -25 5 -25 10 0 6 -5 10 -11 10 -14 0 -39 -25 -39 -39 0 -6
-21 -11 -50 -11 -27 0 -50 -4 -50 -10 0 -5 -11 -10 -25 -10 -14 0 -25 5 -25
10 0 6 7 10 15 10 8 0 15 7 15 15 0 9 -9 15 -25 15 -22 0 -25 -4 -25 -35 0
-31 -3 -35 -25 -35 -20 0 -25 -5 -25 -25 0 -20 -5 -25 -25 -25 -16 0 -25 -6
-25 -15 0 -8 -9 -15 -20 -15 -13 0 -20 -7 -20 -20 0 -11 -7 -20 -15 -20 -8 0
-15 -7 -15 -15 0 -9 -9 -15 -21 -15 -19 0 -49 -21 -49 -35 0 -10 -28 -35 -39
-35 -6 0 -11 -5 -11 -11 0 -14 -25 -39 -39 -39 -6 0 -11 -9 -11 -21 0 -22 -22
-49 -39 -49 -6 0 -11 -5 -11 -11 0 -17 -27 -39 -49 -39 -12 0 -21 5 -21 10 0
6 -11 10 -25 10 -14 0 -25 -4 -25 -10 0 -5 7 -10 15 -10 8 0 15 -4 15 -10 0
-5 11 -10 25 -10 16 0 25 -6 25 -15 0 -8 -7 -15 -15 -15 -10 0 -15 -11 -15
-35 0 -19 -4 -35 -10 -35 -5 0 -10 5 -10 10 0 14 -27 12 -33 -2 -4 -10 -8 -9
-16 2 -5 8 -14 11 -18 6 -4 -5 -2 -11 5 -13 6 -3 12 -20 12 -39 0 -19 5 -34
10 -34 6 0 10 -11 10 -25 0 -14 -4 -25 -10 -25 -6 0 -10 -32 -10 -75 0 -43 -4
-75 -10 -75 -6 0 -10 -30 -10 -70 0 -40 4 -70 10 -70 6 0 10 -30 10 -70 0 -40
4 -70 10 -70 6 0 10 -18 10 -40 0 -29 4 -40 15 -40 8 0 15 -9 15 -20 0 -11 5
-20 10 -20 6 0 10 -18 10 -40 0 -29 4 -40 15 -40 9 0 15 -9 15 -25 0 -14 5
-25 10 -25 6 0 10 -9 10 -20 0 -11 5 -20 10 -20 6 0 10 -7 10 -15 0 -8 5 -15
11 -15 17 0 39 -27 39 -49 0 -12 5 -21 11 -21 14 0 39 -25 39 -39 0 -6 7 -11
15 -11 9 0 15 -9 15 -25 0 -18 5 -25 20 -25 13 0 20 -7 20 -20 0 -11 7 -20 15
-20 8 0 15 -5 15 -11 0 -14 25 -39 39 -39 6 0 11 -6 11 -13 0 -7 9 -19 20 -27
11 -8 20 -20 20 -27 0 -7 6 -13 13 -13 7 0 19 -9 27 -20 8 -11 20 -20 27 -20
7 0 13 -6 13 -13 0 -7 9 -19 20 -27 11 -8 20 -20 20 -27 0 -7 11 -13 25 -13
14 0 25 -4 25 -10 0 -5 5 -10 11 -10 14 0 39 -25 39 -39 0 -6 11 -11 25 -11
14 0 25 -4 25 -10 0 -5 11 -10 25 -10 14 0 25 -5 25 -11 0 -14 25 -39 39 -39
6 0 11 -4 11 -10 0 -5 16 -10 35 -10 24 0 35 -5 35 -15 0 -10 11 -15 35 -15
19 0 35 -4 35 -10 0 -5 11 -10 25 -10 22 0 25 -4 25 -35 0 -29 4 -35 21 -35
26 0 49 23 49 49 0 12 6 21 15 21 10 0 15 -11 15 -35 0 -24 -5 -35 -15 -35 -9
0 -15 -9 -15 -25 0 -20 5 -25 25 -25 20 0 25 5 25 25 0 14 5 25 10 25 6 0 10
9 10 20 0 15 7 20 25 20 14 0 25 -4 25 -10 0 -5 11 -10 25 -10 19 0 25 5 25
21 0 22 22 49 39 49 6 0 11 5 11 11 0 25 30 39 84 39 31 0 56 -4 56 -10 0 -5
11 -10 25 -10 14 0 25 5 25 10 0 6 11 10 25 10 20 0 25 5 25 25 0 22 4 25 35
25 19 0 35 5 35 10 0 6 35 10 85 10 69 0 85 3 85 15 0 10 11 15 35 15 19 0 35
5 35 10 0 6 16 10 35 10 19 0 35 5 35 10 0 6 7 10 15 10 9 0 15 9 15 25 0 14
5 25 10 25 6 0 10 7 10 15 0 8 5 15 11 15 28 0 39 30 39 109 0 51 4 81 11 81
14 0 39 25 39 39 0 7 24 11 60 11 57 0 60 -1 60 -25 0 -22 4 -25 35 -25 19 0
35 5 35 10 0 6 -4 10 -10 10 -5 0 -10 11 -10 25 0 16 -6 25 -15 25 -8 0 -15 7
-15 15 0 11 12 15 50 15 28 0 50 5 50 10 0 6 78 10 215 10 137 0 215 -4 215
-10 0 -5 18 -10 40 -10 29 0 40 -4 40 -15 0 -10 11 -15 35 -15 19 0 35 -4 35
-10 0 -5 11 -10 25 -10 16 0 25 -6 25 -15 0 -9 9 -15 25 -15 14 0 25 -4 25
-10 0 -5 9 -10 20 -10 11 0 20 -4 20 -10 0 -5 7 -10 15 -10 8 0 15 -5 15 -11
0 -17 27 -39 49 -39 12 0 21 -5 21 -11 0 -6 6 -17 14 -25 8 -8 19 -14 25 -14
6 0 11 -5 11 -11 0 -11 25 -39 35 -39 10 0 35 -28 35 -39 0 -6 5 -11 11 -11
11 0 39 -25 39 -35 0 -10 28 -35 39 -35 6 0 11 -11 11 -25 0 -14 5 -25 10 -25
6 0 10 -11 10 -25 0 -20 -5 -25 -25 -25 -14 0 -25 -4 -25 -10 0 -5 -9 -10 -20
-10 -11 0 -20 -4 -20 -10 0 -5 -11 -10 -25 -10 -16 0 -25 -6 -25 -15 0 -8 -5
-15 -11 -15 -17 0 -39 -27 -39 -49 0 -17 6 -21 35 -21 19 0 35 5 35 10 0 6 11
10 25 10 16 0 25 6 25 15 0 9 9 15 21 15 22 0 49 22 49 39 0 6 16 11 35 11 19
0 35 5 35 10 0 6 11 10 25 10 14 0 25 5 25 10 0 6 11 10 25 10 16 0 25 6 25
15 0 9 9 15 25 15 14 0 25 5 25 10 0 6 11 10 25 10 16 0 25 6 25 15 0 11 12
15 45 15 25 0 45 5 45 10 0 6 23 10 50 10 28 0 50 5 50 10 0 6 54 10 143 10
131 0 144 -2 157 -20 8 -11 25 -20 37 -20 14 0 23 -6 23 -15 0 -8 7 -15 15
-15 8 0 15 -4 15 -10 0 -5 9 -10 20 -10 15 0 20 -7 20 -25 0 -14 5 -25 11 -25
14 0 39 -25 39 -39 0 -6 7 -11 15 -11 10 0 15 -11 15 -35 0 -28 4 -35 20 -35
11 0 20 -4 20 -10 0 -5 7 -10 15 -10 8 0 15 -7 15 -15 0 -8 5 -15 10 -15 6 0
10 -11 10 -25 0 -14 5 -25 11 -25 14 0 39 -25 39 -39 0 -6 11 -11 25 -11 18 0
25 -5 25 -20 0 -11 5 -20 10 -20 6 0 10 -7 10 -15 0 -8 5 -15 11 -15 14 0 39
-25 39 -39 0 -6 7 -11 15 -11 8 0 15 -9 15 -20 0 -13 7 -20 20 -20 15 0 20 -7
20 -25 0 -16 6 -25 15 -25 8 0 15 -7 15 -15 0 -8 5 -15 10 -15 6 0 10 -9 10
-20 0 -11 -4 -20 -10 -20 -5 0 -10 5 -10 10 0 6 -5 10 -11 10 -14 0 -39 25
-39 39 0 6 -4 11 -10 11 -5 0 -10 11 -10 25 0 20 -5 25 -25 25 -14 0 -25 5
-25 10 0 6 -5 10 -11 10 -11 0 -39 25 -39 35 0 10 -28 35 -39 35 -6 0 -11 5
-11 11 0 11 -25 39 -35 39 -10 0 -35 28 -35 39 0 6 -9 11 -21 11 -22 0 -49 22
-49 39 0 6 -7 11 -15 11 -8 0 -15 5 -15 10 0 6 -11 10 -25 10 -14 0 -25 5 -25
10 0 14 -46 60 -60 60 -5 0 -10 5 -10 11 0 17 -27 39 -49 39 -16 0 -21 6 -21
25 0 22 -4 25 -35 25 -19 0 -35 5 -35 10 0 6 -11 10 -25 10 -16 0 -25 6 -25
15 0 10 -11 15 -35 15 -19 0 -35 5 -35 10 0 6 -7 10 -15 10 -8 0 -15 -4 -15
-10 0 -5 -20 -10 -45 -10 -33 0 -45 -4 -45 -15 0 -11 -11 -15 -40 -15 -22 0
-40 -4 -40 -10 0 -5 -9 -10 -20 -10 -11 0 -20 -4 -20 -10 0 -5 -11 -10 -25
-10 -16 0 -25 -6 -25 -15 0 -9 -9 -15 -25 -15 -14 0 -25 -4 -25 -10 0 -5 -16
-10 -35 -10 -24 0 -35 -5 -35 -15 0 -9 -9 -15 -25 -15 -14 0 -25 -4 -25 -10 0
-5 -7 -10 -15 -10 -8 0 -15 -4 -15 -10 0 -5 -9 -10 -20 -10 -11 0 -20 -7 -20
-15 0 -8 -5 -15 -11 -15 -11 0 -39 -25 -39 -35 0 -4 6 -13 14 -21 17 -16 56
-19 56 -4 0 6 11 10 25 10 l25 0 0 -145 c0 -122 -2 -145 -15 -145 -11 0 -15
-12 -15 -45 0 -25 -4 -45 -10 -45 -5 0 -10 -11 -10 -25 0 -14 -4 -25 -10 -25
-5 0 -10 -16 -10 -35 0 -24 -5 -35 -15 -35 -8 0 -15 -7 -15 -15 0 -8 -4 -15
-10 -15 -5 0 -10 -11 -10 -25 0 -16 -6 -25 -15 -25 -8 0 -15 -9 -15 -20 0 -11
-4 -20 -10 -20 -5 0 -10 -5 -10 -11 0 -14 -25 -39 -39 -39 -6 0 -11 -7 -11
-15 0 -8 -4 -15 -10 -15 -5 0 -10 -9 -10 -20 0 -11 -7 -20 -15 -20 -8 0 -15
-5 -15 -11 0 -14 -25 -39 -39 -39 -6 0 -11 -5 -11 -10 0 -14 -46 -60 -60 -60
-5 0 -10 -5 -10 -11 0 -14 -25 -39 -39 -39 -6 0 -11 -6 -11 -13 0 -7 -9 -19
-20 -27 -11 -8 -20 -20 -20 -27 0 -7 -7 -13 -15 -13 -8 0 -15 -4 -15 -10 0 -5
-11 -10 -25 -10 -14 0 -25 -4 -25 -10 0 -5 -9 -10 -20 -10 -15 0 -20 -7 -20
-25 0 -16 -6 -25 -15 -25 -8 0 -15 -7 -15 -15 0 -9 -9 -15 -23 -15 -12 0 -29
-9 -37 -20 -8 -11 -25 -20 -37 -20 -14 0 -23 -6 -23 -15 0 -9 -9 -15 -25 -15
-14 0 -25 -4 -25 -10 0 -5 -11 -10 -25 -10 -16 0 -25 -6 -25 -15 0 -10 -10
-15 -33 -15 -21 0 -38 -7 -47 -20 -16 -23 -36 -26 -44 -7 -5 10 -7 10 -12 0
-3 -7 -21 -13 -40 -13 -24 0 -34 -5 -34 -15 0 -11 -11 -15 -40 -15 -36 0 -40
3 -40 25 0 22 -4 25 -35 25 -19 0 -35 -4 -35 -10 0 -5 7 -10 15 -10 8 0 15 -7
15 -15 0 -8 -6 -15 -14 -15 -8 0 -17 -6 -20 -12 -5 -10 -7 -10 -12 0 -7 14
-34 16 -34 2 0 -5 -16 -10 -35 -10 -19 0 -35 5 -35 10 0 6 -27 10 -60 10 -47
0 -60 3 -60 15 0 9 -9 15 -25 15 -14 0 -25 5 -25 10 0 6 -16 10 -35 10 -19 0
-35 5 -35 10 0 6 -22 10 -50 10 -47 0 -50 2 -50 25 0 20 5 25 25 25 16 0 25 6
25 15 0 9 -9 15 -25 15 -16 0 -25 -6 -25 -15 0 -8 -9 -15 -20 -15 -11 0 -20 7
-20 15 0 9 -9 15 -25 15 -14 0 -25 5 -25 10 0 6 -7 10 -15 10 -8 0 -15 5 -15
10 0 6 -9 10 -20 10 -11 0 -20 7 -20 15 0 8 -5 15 -11 15 -14 0 -39 25 -39 39
0 6 -7 11 -15 11 -8 0 -15 9 -15 20 0 11 -4 20 -10 20 -5 0 -10 -4 -10 -10 0
-5 -5 -10 -11 -10 -11 0 -39 25 -39 35 0 10 -28 35 -39 35 -6 0 -11 5 -11 11
0 14 -25 39 -39 39 -6 0 -11 11 -11 25 0 18 -5 25 -20 25 -11 0 -20 5 -20 10
0 6 -7 10 -15 10 -9 0 -15 9 -15 25 0 20 5 25 25 25 16 0 25 6 25 15 0 10 -11
15 -35 15 -24 0 -35 -5 -35 -15 0 -8 -7 -15 -15 -15 -9 0 -15 9 -15 25 0 20 5
25 25 25 14 0 25 5 25 10 0 6 16 10 35 10 24 0 35 5 35 15 0 11 11 15 40 15
22 0 40 5 40 10 0 6 16 10 35 10 24 0 35 5 35 15 0 10 11 15 35 15 19 0 35 5
35 10 0 14 47 12 54 -2 5 -10 7 -10 12 0 10 22 34 13 34 -13 0 -16 -6 -25 -15
-25 -8 0 -15 -4 -15 -10 0 -5 7 -10 15 -10 8 0 15 5 15 10 0 6 42 10 105 10
l105 0 0 35 c0 35 0 35 -45 35 -33 0 -45 4 -45 15 0 9 -9 15 -25 15 -14 0 -25
5 -25 10 0 6 -11 10 -25 10 -14 0 -25 5 -25 11 0 14 -25 39 -39 39 -6 0 -11
11 -11 25 0 14 -4 25 -10 25 -5 0 -10 16 -10 35 0 33 -2 35 -35 35 -19 0 -35
-4 -35 -10 0 -5 -7 -10 -15 -10 -8 0 -15 -7 -15 -15 0 -8 7 -15 15 -15 9 0 15
-9 15 -25 0 -14 5 -25 10 -25 6 0 10 -9 10 -20 0 -18 -7 -20 -60 -20 -33 0
-60 4 -60 10 0 6 -30 10 -70 10 -40 0 -70 4 -70 10 0 6 -22 10 -50 10 -38 0
-50 4 -50 15 0 12 -14 15 -70 15 -40 0 -70 4 -70 10 0 6 -18 10 -40 10 -29 0
-40 4 -40 15 0 10 -11 15 -35 15 -19 0 -35 5 -35 10 0 6 -22 10 -50 10 -29 0
-50 5 -50 11 0 23 -30 39 -74 39 -25 0 -46 5 -46 10 0 6 -9 10 -20 10 -11 0
-20 7 -20 15 0 8 -7 15 -15 15 -8 0 -15 5 -15 10 0 6 -22 10 -50 10 -38 0 -50
4 -50 15 0 8 7 15 15 15 8 0 15 5 15 10 0 6 -7 10 -15 10 -8 0 -15 5 -15 10 0
6 -4 10 -10 10 -5 0 -10 -9 -10 -20 0 -14 -7 -20 -23 -20 -12 0 -29 9 -37 20
-8 11 -25 20 -37 20 -18 0 -23 6 -23 25 0 22 -4 25 -35 25 -30 0 -35 3 -35 24
0 13 6 26 13 29 7 2 8 8 3 13 -5 5 -11 4 -13 -3 -5 -15 -73 -18 -73 -3 0 6
-11 10 -25 10 -20 0 -25 5 -25 25 0 20 -5 25 -25 25 -16 0 -25 6 -25 15 0 9
-9 15 -25 15 -20 0 -25 5 -25 25 0 20 -5 25 -25 25 -18 0 -25 5 -25 20 0 11
-4 20 -10 20 -5 0 -10 7 -10 15 0 8 -7 15 -15 15 -8 0 -15 5 -15 10 0 6 -9 10
-20 10 -16 0 -20 7 -20 35 0 24 -5 35 -15 35 -9 0 -15 9 -15 25 0 14 -4 25
-10 25 -5 0 -10 7 -10 15 0 8 -5 15 -10 15 -6 0 -22 11 -35 25 -19 18 -25 35
-25 70 0 25 -5 45 -11 45 -17 0 -39 27 -39 49 0 12 -6 21 -15 21 -11 0 -15 11
-15 40 0 22 -4 40 -10 40 -5 0 -10 16 -10 35 0 24 -5 35 -15 35 -11 0 -15 12
-15 45 0 25 -4 45 -10 45 -6 0 -10 27 -10 60 0 33 -4 60 -10 60 -16 0 -13 247
3 254 10 5 10 7 0 12 -15 7 -18 104 -3 104 6 0 10 9 10 20 0 11 5 20 10 20 6
0 10 7 10 15 0 8 -4 15 -10 15 -5 0 -10 16 -10 35 0 19 5 35 10 35 6 0 10 16
10 35 0 24 5 35 15 35 9 0 15 9 15 25 0 14 5 25 10 25 6 0 10 11 10 25 0 16 6
25 15 25 9 0 15 9 15 25 0 14 5 25 10 25 6 0 10 11 10 25 0 16 6 25 15 25 8 0
15 9 15 20 0 11 5 20 10 20 6 0 10 11 10 25 0 20 5 25 25 25 20 0 25 -5 25
-25 0 -14 5 -25 10 -25 6 0 10 7 10 15 0 8 7 15 15 15 9 0 15 9 15 25 0 20 -5
25 -25 25 -14 0 -25 3 -25 6 0 10 28 34 39 34 6 0 11 18 11 40 0 33 3 40 20
40 13 0 20 7 20 20 0 11 7 20 15 20 8 0 15 5 15 11 0 14 25 39 39 39 6 0 11 6
11 13 0 7 9 19 20 27 11 8 20 20 20 27 0 8 14 13 40 13 33 0 40 3 40 20 0 11
5 20 10 20 6 0 10 -4 10 -10 0 -5 11 -10 25 -10 14 0 25 -4 25 -10 0 -5 5 -10
10 -10 6 0 10 9 10 20 0 11 -4 20 -10 20 -5 0 -10 16 -10 36 0 34 18 64 38 64
6 0 13 6 16 13 5 10 7 10 12 0 7 -15 74 -18 74 -3 0 6 -4 10 -10 10 -5 0 -10
11 -10 25 0 23 3 25 50 25 l50 0 0 35 c0 19 5 35 10 35 6 0 10 7 10 15 0 8 5
15 10 15 6 0 10 16 10 35 0 34 1 35 40 35 39 0 40 -1 40 -35z m2190 -1416 c0
-14 -25 -39 -39 -39 -6 0 -11 -5 -11 -11 0 -14 -25 -39 -39 -39 -6 0 -11 -5
-11 -10 0 -6 -11 -22 -25 -35 -22 -23 -32 -25 -120 -25 -57 0 -95 4 -95 10 0
6 5 10 11 10 14 0 39 25 39 39 0 6 9 11 21 11 22 0 49 22 49 39 0 6 7 11 15
11 8 0 15 5 15 10 0 6 11 10 25 10 16 0 25 6 25 15 0 12 14 15 70 15 43 0 70
-4 70 -11z m220 -54 c0 -10 10 -15 31 -15 30 0 59 -19 59 -39 0 -6 11 -11 25
-11 14 0 25 -4 25 -10 0 -5 16 -10 36 -10 32 0 64 -18 64 -35 0 -14 30 -35 49
-35 12 0 21 -6 21 -15 0 -9 9 -15 23 -15 12 0 29 -9 37 -20 8 -11 25 -20 37
-20 14 0 23 -6 23 -15 0 -8 5 -15 11 -15 14 0 39 -25 39 -39 0 -6 10 -11 23
-11 12 0 29 -9 37 -20 8 -11 20 -20 27 -20 7 0 13 -5 13 -11 0 -14 25 -39 39
-39 6 0 11 -7 11 -15 0 -8 5 -15 10 -15 6 0 10 -11 10 -25 0 -14 5 -25 10 -25
6 0 10 -16 10 -35 0 -33 -2 -35 -35 -35 -19 0 -35 -4 -35 -10 0 -5 -16 -10
-35 -10 -24 0 -35 -5 -35 -15 0 -10 -11 -15 -35 -15 -19 0 -35 -4 -35 -10 0
-5 -11 -10 -25 -10 -14 0 -25 -4 -25 -10 0 -5 -11 -10 -25 -10 -18 0 -25 5
-25 20 0 11 -4 20 -10 20 -5 0 -10 7 -10 15 0 8 -7 15 -15 15 -9 0 -15 9 -15
21 0 19 -21 49 -35 49 -4 0 -13 6 -21 14 -8 8 -14 17 -14 21 0 10 -28 35 -39
35 -6 0 -11 5 -11 11 0 14 -25 39 -39 39 -6 0 -11 7 -11 15 0 8 -9 15 -20 15
-22 0 -70 41 -70 60 0 5 -11 10 -25 10 -14 0 -25 5 -25 10 0 6 -7 10 -15 10
-8 0 -15 7 -15 15 0 8 -9 15 -20 15 -11 0 -20 5 -20 10 0 6 -11 10 -25 10 -14
0 -25 5 -25 10 0 6 -11 10 -25 10 -16 0 -25 6 -25 15 0 10 -11 15 -35 15 -29
0 -35 4 -35 21 0 19 21 49 35 49 10 0 35 28 35 39 0 6 9 11 21 11 22 0 49 22
49 39 0 6 21 11 50 11 38 0 50 -4 50 -15z m-1140 -370 c0 -16 6 -25 15 -25 9
0 15 -9 15 -25 0 -16 -6 -25 -15 -25 -9 0 -15 -9 -15 -21 0 -25 -31 -60 -38
-41 -2 6 -8 12 -14 12 -13 0 -38 -26 -38 -39 0 -6 -16 -11 -35 -11 -19 0 -35
-4 -35 -10 0 -15 -70 -12 -86 4 -8 9 -14 34 -14 60 0 40 3 46 21 46 22 0 49
22 49 39 0 7 28 11 75 11 l75 0 0 -50 c0 -27 5 -50 10 -50 16 0 12 89 -4 106
-8 8 -34 14 -60 14 -34 0 -46 4 -46 15 0 12 14 15 70 15 68 0 70 -1 70 -25z
m2050 -400 c0 -9 9 -15 25 -15 14 0 25 -4 25 -10 0 -5 7 -10 15 -10 8 0 15 -7
15 -15 0 -8 9 -15 20 -15 22 0 70 -41 70 -60 0 -5 11 -10 25 -10 14 0 25 -4
25 -10 0 -5 7 -10 15 -10 8 0 15 -6 15 -13 0 -7 9 -19 20 -27 11 -8 20 -20 20
-27 0 -7 6 -13 13 -13 7 0 19 -9 27 -20 8 -11 25 -20 37 -20 13 0 23 -5 23
-11 0 -14 25 -39 39 -39 6 0 11 -5 11 -11 0 -11 25 -39 35 -39 10 0 35 -28 35
-39 0 -6 9 -11 21 -11 22 0 49 -22 49 -39 0 -6 6 -11 13 -11 7 0 19 -9 27 -20
8 -11 20 -20 27 -20 7 0 13 -6 13 -13 0 -7 9 -19 20 -27 11 -8 20 -20 20 -27
0 -7 5 -13 11 -13 14 0 39 -25 39 -39 0 -6 5 -11 10 -11 14 0 60 -46 60 -60 0
-5 5 -10 11 -10 14 0 39 -25 39 -39 0 -6 11 -11 25 -11 14 0 25 -4 25 -10 0
-5 7 -10 15 -10 9 0 15 -9 15 -25 0 -18 5 -25 20 -25 11 0 20 -4 20 -10 0 -5
7 -10 15 -10 8 0 15 -5 15 -11 0 -11 25 -39 35 -39 14 0 35 -30 35 -49 0 -12
5 -21 10 -21 6 0 10 -16 10 -35 0 -24 5 -35 15 -35 12 0 15 -18 15 -100 0 -82
-3 -100 -15 -100 -8 0 -15 -4 -15 -10 0 -5 -9 -10 -20 -10 -11 0 -20 -7 -20
-15 0 -8 -7 -15 -15 -15 -8 0 -15 -4 -15 -10 0 -5 -9 -10 -21 -10 -19 0 -49
-21 -49 -35 0 -14 -30 -35 -49 -35 -12 0 -21 -6 -21 -15 0 -8 -6 -15 -13 -15
-7 0 -19 -9 -27 -20 -8 -11 -25 -20 -37 -20 -13 0 -23 -5 -23 -11 0 -14 -25
-39 -39 -39 -6 0 -11 -5 -11 -11 0 -14 -25 -39 -39 -39 -6 0 -11 -4 -11 -10 0
-5 -9 -10 -20 -10 -11 0 -20 -7 -20 -15 0 -8 -5 -15 -11 -15 -14 0 -39 -25
-39 -39 0 -6 -5 -11 -11 -11 -14 0 -39 -25 -39 -39 0 -6 -10 -11 -23 -11 -12
0 -29 -9 -37 -20 -8 -11 -25 -20 -37 -20 -14 0 -23 -6 -23 -15 0 -8 -5 -15
-11 -15 -14 0 -39 -25 -39 -39 0 -6 -10 -11 -23 -11 -12 0 -29 -9 -37 -20 -8
-11 -25 -20 -37 -20 -13 0 -23 -5 -23 -11 0 -14 -25 -39 -39 -39 -6 0 -11 -7
-11 -15 0 -9 -9 -15 -25 -15 -14 0 -25 -4 -25 -10 0 -5 -9 -10 -20 -10 -11 0
-20 -4 -20 -10 0 -5 -11 -10 -25 -10 -16 0 -25 -6 -25 -15 0 -8 -7 -15 -15
-15 -8 0 -15 -4 -15 -10 0 -5 -11 -10 -25 -10 -16 0 -25 -6 -25 -15 0 -10 -11
-15 -35 -15 -19 0 -35 -4 -35 -10 0 -5 -20 -10 -45 -10 -33 0 -45 -4 -45 -15
0 -13 -26 -15 -170 -15 -144 0 -170 2 -170 15 0 9 -9 15 -21 15 -26 0 -49 23
-49 49 0 12 -6 21 -15 21 -8 0 -15 7 -15 15 0 8 -4 15 -10 15 -5 0 -10 9 -10
20 0 11 -7 20 -15 20 -9 0 -15 9 -15 25 0 14 -4 25 -10 25 -5 0 -10 11 -10 25
0 14 -4 25 -10 25 -5 0 -10 11 -10 25 0 14 -5 25 -11 25 -17 0 -39 27 -39 49
0 12 -5 21 -11 21 -14 0 -39 25 -39 39 0 6 -7 11 -15 11 -8 0 -15 5 -15 10 0
6 -9 10 -20 10 -11 0 -20 7 -20 15 0 9 -9 15 -25 15 -14 0 -25 5 -25 10 0 6
-7 10 -15 10 -11 0 -15 12 -15 50 0 28 -4 50 -10 50 -5 0 -10 16 -10 35 0 19
-4 35 -10 35 -5 0 -10 16 -10 35 0 24 -5 35 -15 35 -10 0 -15 11 -15 35 0 24
5 35 15 35 8 0 15 6 15 13 0 7 9 19 20 27 11 8 20 20 20 27 0 7 6 13 13 13 7
0 19 9 27 20 8 11 20 20 27 20 7 0 13 6 13 13 0 7 9 19 20 27 11 8 20 20 20
27 0 7 5 13 11 13 14 0 39 25 39 39 0 6 6 11 13 11 7 0 19 9 27 20 8 11 20 20
27 20 7 0 13 7 13 15 0 8 5 15 10 15 6 0 10 9 10 21 0 19 21 49 35 49 14 0 35
30 35 49 0 12 6 21 15 21 9 0 15 9 15 23 0 12 9 29 20 37 11 8 20 25 20 37 0
14 6 23 15 23 10 0 15 11 15 35 0 19 5 35 10 35 6 0 10 11 10 25 0 16 6 25 15
25 11 0 15 12 15 50 0 28 5 50 10 50 6 0 10 35 10 85 0 50 4 85 10 85 6 0 10
11 10 25 0 14 -4 25 -10 25 -6 0 -10 30 -10 70 0 40 4 70 10 70 6 0 10 7 10
15 0 9 9 15 25 15 14 0 25 5 25 10 0 6 11 10 25 10 14 0 25 5 25 10 0 6 11 10
25 10 16 0 25 6 25 15 0 9 9 15 25 15 14 0 25 5 25 10 0 6 20 10 45 10 33 0
45 4 45 15 0 12 13 15 60 15 47 0 60 -3 60 -15z m-1180 -1480 c0 -20 -5 -25
-25 -25 -16 0 -25 -6 -25 -15 0 -9 9 -15 25 -15 14 0 25 -4 25 -10 0 -15 70
-12 86 4 16 17 19 56 4 56 -5 0 -10 7 -10 15 0 8 5 15 10 15 6 0 10 -7 10 -15
0 -8 5 -15 10 -15 6 0 10 -16 10 -35 0 -28 -4 -35 -20 -35 -11 0 -20 -4 -20
-10 0 -5 5 -10 10 -10 6 0 10 -7 10 -15 0 -9 9 -15 25 -15 23 0 25 -3 25 -50
0 -38 -4 -50 -15 -50 -11 0 -15 11 -15 40 0 38 -2 40 -31 40 -30 0 -59 19 -59
39 0 6 -7 11 -15 11 -11 0 -15 -11 -15 -40 0 -36 3 -40 25 -40 22 0 25 -4 25
-35 0 -31 -3 -35 -25 -35 -20 0 -25 -5 -25 -25 0 -16 6 -25 15 -25 9 0 15 -9
15 -25 0 -20 -5 -25 -25 -25 -16 0 -25 6 -25 15 0 9 -9 15 -25 15 -20 0 -25
-5 -25 -25 0 -20 5 -25 25 -25 14 0 25 -4 25 -10 0 -15 39 -12 56 4 8 8 14 24
14 35 0 12 5 21 11 21 17 0 39 27 39 49 0 12 5 21 10 21 6 0 10 -11 10 -25 0
-14 -4 -25 -10 -25 -5 0 -10 -20 -10 -45 0 -25 -4 -45 -10 -45 -5 0 -10 -11
-10 -25 0 -29 6 -31 26 -11 8 9 14 34 14 60 0 34 4 46 15 46 8 0 15 -7 15 -15
0 -8 5 -15 10 -15 6 0 10 7 10 15 0 8 7 15 15 15 8 0 15 -7 15 -15 0 -8 5 -15
10 -15 6 0 10 11 10 25 0 24 2 25 70 25 40 0 70 -4 70 -10 0 -5 7 -10 15 -10
9 0 15 -9 15 -25 0 -14 5 -25 10 -25 6 0 10 -11 10 -25 0 -16 6 -25 15 -25 9
0 15 -9 15 -25 0 -16 -6 -25 -15 -25 -8 0 -15 -4 -15 -10 0 -5 7 -10 15 -10 8
0 15 5 15 10 0 6 5 10 10 10 6 0 10 -9 10 -20 0 -11 7 -20 15 -20 9 0 15 -9
15 -25 0 -14 5 -25 10 -25 6 0 10 -5 10 -11 0 -6 6 -17 14 -25 8 -8 19 -14 25
-14 6 0 11 -9 11 -21 0 -26 23 -49 49 -49 12 0 21 -6 21 -15 0 -12 13 -15 60
-15 33 0 60 -4 60 -10 0 -6 32 -10 75 -10 43 0 75 4 75 10 0 6 30 10 70 10 56
0 70 3 70 15 0 11 12 15 50 15 28 0 50 5 50 10 0 6 16 10 35 10 19 0 35 5 35
10 0 6 11 10 25 10 16 0 25 6 25 15 0 9 9 15 25 15 14 0 25 5 25 10 0 6 9 10
20 10 11 0 20 7 20 15 0 8 7 15 15 15 8 0 15 5 15 10 0 6 11 10 25 10 16 0 25
6 25 15 0 8 9 15 20 15 11 0 20 5 20 10 0 6 5 10 11 10 14 0 39 25 39 39 0 6
9 11 21 11 22 0 49 22 49 39 0 6 11 11 25 11 14 0 25 5 25 10 0 6 5 10 11 10
14 0 39 25 39 39 0 6 9 11 21 11 22 0 49 22 49 39 0 6 11 11 25 11 14 0 25 5
25 10 0 6 5 10 11 10 11 0 39 25 39 35 0 14 30 35 49 35 12 0 21 6 21 15 0 8
7 15 15 15 8 0 15 5 15 10 0 6 9 10 20 10 11 0 20 7 20 15 0 8 6 15 14 15 8 0
17 6 20 13 5 10 7 10 12 0 3 -7 17 -13 30 -13 15 0 24 -6 24 -15 0 -8 7 -15
15 -15 8 0 15 -4 15 -10 0 -5 9 -10 20 -10 11 0 20 -7 20 -15 0 -8 7 -15 15
-15 8 0 15 -4 15 -10 0 -5 11 -10 25 -10 14 0 25 -5 25 -10 0 -19 48 -60 70
-60 11 0 20 -7 20 -15 0 -8 5 -15 11 -15 11 0 39 -25 39 -35 0 -8 27 -35 35
-35 10 0 35 -28 35 -39 0 -6 5 -11 11 -11 11 0 39 -25 39 -35 0 -8 27 -35 35
-35 14 0 35 -30 35 -49 0 -12 6 -21 15 -21 8 0 15 -5 15 -11 0 -14 25 -39 39
-39 6 0 11 -10 11 -23 0 -12 9 -29 20 -37 11 -8 20 -25 20 -37 0 -14 6 -23 15
-23 8 0 15 -7 15 -15 0 -8 5 -15 10 -15 6 0 10 -9 10 -20 0 -11 7 -20 15 -20
9 0 15 -9 15 -25 0 -14 5 -25 10 -25 6 0 10 -11 10 -25 0 -14 5 -25 10 -25 6
0 10 -11 10 -25 0 -16 6 -25 15 -25 9 0 15 -9 15 -25 0 -14 5 -25 10 -25 6 0
10 -16 10 -35 0 -24 5 -35 15 -35 10 0 15 -11 15 -35 0 -19 5 -35 10 -35 6 0
10 -11 10 -25 0 -14 5 -25 10 -25 6 0 10 -22 10 -50 0 -38 4 -50 15 -50 11 0
15 -12 15 -45 0 -25 5 -45 10 -45 6 0 10 -27 10 -60 0 -47 3 -60 15 -60 12 0
15 -16 15 -85 0 -50 4 -85 10 -85 6 0 10 -43 10 -110 0 -91 3 -110 15 -110 13
0 15 -34 15 -250 0 -160 4 -250 10 -250 6 0 10 -7 10 -15 0 -8 -4 -15 -10 -15
-5 0 -10 -11 -10 -25 0 -14 5 -25 10 -25 6 0 10 -38 10 -95 0 -57 4 -95 10
-95 6 0 10 -22 10 -50 0 -38 4 -50 15 -50 10 0 15 -11 15 -35 0 -29 4 -35 21
-35 19 0 49 -21 49 -35 0 -10 28 -35 39 -35 6 0 11 -4 11 -10 0 -5 11 -10 25
-10 16 0 25 -6 25 -15 0 -10 11 -15 35 -15 19 0 35 -4 35 -10 0 -6 27 -10 60
-10 47 0 60 -3 60 -15 0 -12 16 -15 85 -15 69 0 85 3 85 15 0 10 11 15 35 15
24 0 35 -5 35 -15 0 -9 -9 -15 -25 -15 -14 0 -25 -4 -25 -10 0 -6 -27 -10 -60
-10 -47 0 -60 -3 -60 -15 0 -8 -4 -15 -10 -15 -5 0 -10 7 -10 15 0 12 -18 15
-100 15 -60 0 -100 4 -100 10 0 6 -20 10 -45 10 -33 0 -45 4 -45 15 0 9 -9 15
-25 15 -14 0 -25 5 -25 10 0 6 -16 10 -35 10 -24 0 -35 5 -35 15 0 9 -9 15
-25 15 -14 0 -25 5 -25 10 0 6 -16 10 -35 10 -19 0 -35 -4 -35 -10 0 -5 -7
-10 -15 -10 -8 0 -15 -7 -15 -15 0 -9 -9 -15 -25 -15 -14 0 -25 -4 -25 -10 0
-5 -9 -10 -20 -10 -11 0 -20 -7 -20 -15 0 -9 -9 -15 -25 -15 -14 0 -25 -4 -25
-10 0 -5 -16 -10 -35 -10 -24 0 -35 -5 -35 -15 0 -8 -7 -15 -15 -15 -8 0 -15
-4 -15 -10 0 -5 -11 -10 -25 -10 -14 0 -25 -4 -25 -10 0 -5 -9 -10 -20 -10
-11 0 -20 -7 -20 -15 0 -11 -11 -15 -40 -15 -22 0 -40 -4 -40 -10 0 -5 -11
-10 -25 -10 -16 0 -25 -6 -25 -15 0 -8 -9 -15 -20 -15 -11 0 -20 -4 -20 -10 0
-5 -11 -10 -25 -10 -14 0 -25 -4 -25 -10 0 -5 -16 -10 -35 -10 -24 0 -35 -5
-35 -15 0 -9 -9 -15 -25 -15 -14 0 -25 -4 -25 -10 0 -5 -11 -10 -25 -10 -16 0
-25 -6 -25 -15 0 -10 -11 -15 -35 -15 -19 0 -35 -4 -35 -10 0 -5 -11 -10 -25
-10 -14 0 -25 -4 -25 -10 0 -5 -16 -10 -35 -10 -24 0 -35 -5 -35 -15 0 -11
-11 -15 -40 -15 -22 0 -40 -4 -40 -10 0 -5 -16 -10 -35 -10 -24 0 -35 -5 -35
-15 0 -10 -11 -15 -35 -15 -19 0 -35 -4 -35 -10 0 -5 -16 -10 -35 -10 -19 0
-35 -4 -35 -10 0 -5 -22 -10 -50 -10 -38 0 -50 -4 -50 -15 0 -12 -13 -15 -60
-15 -33 0 -60 -4 -60 -10 0 -5 -11 -10 -25 -10 -16 0 -25 -6 -25 -15 0 -10
-11 -15 -35 -15 -19 0 -35 -4 -35 -10 0 -5 -16 -10 -35 -10 -19 0 -35 5 -35
10 0 6 -7 10 -15 10 -8 0 -15 7 -15 15 0 8 -9 15 -20 15 -11 0 -20 -7 -20 -15
0 -9 -9 -15 -25 -15 -16 0 -25 6 -25 15 0 8 -7 15 -15 15 -9 0 -15 9 -15 25 0
20 5 25 25 25 16 0 25 -6 25 -15 0 -11 12 -15 50 -15 47 0 50 -2 50 -25 0 -20
5 -25 25 -25 16 0 25 6 25 15 0 8 5 15 10 15 6 0 10 11 10 25 0 14 -4 25 -10
25 -5 0 -10 20 -10 45 0 41 -2 45 -25 45 -23 0 -25 -4 -25 -45 0 -25 -5 -45
-10 -45 -19 0 -60 48 -60 70 0 11 -7 20 -15 20 -8 0 -15 7 -15 15 0 8 7 15 15
15 10 0 15 11 15 35 0 19 5 35 10 35 6 0 10 20 10 45 0 25 5 45 10 45 6 0 10
75 10 205 0 130 -4 205 -10 205 -5 0 -10 7 -10 15 0 12 13 15 56 15 60 0 84
14 84 49 0 12 6 21 15 21 12 0 15 13 15 60 0 47 -3 60 -15 60 -8 0 -15 6 -15
13 0 7 -9 19 -20 27 -20 15 -28 60 -10 60 6 0 10 35 10 85 0 82 -1 85 -23 85
-12 0 -29 9 -37 20 -12 17 -26 20 -87 20 -71 0 -73 1 -73 25 0 24 3 25 60 25
47 0 60 3 60 15 0 11 11 15 40 15 36 0 40 -2 40 -25 0 -14 5 -25 10 -25 6 0
10 -5 10 -11 0 -14 25 -39 39 -39 6 0 11 -9 11 -21 0 -22 22 -49 39 -49 6 0
11 -5 11 -10 0 -14 46 -60 60 -60 5 0 10 16 10 35 0 19 -5 35 -11 35 -11 0
-39 25 -39 35 0 8 -27 35 -35 35 -10 0 -35 28 -35 39 0 6 -5 11 -11 11 -14 0
-39 25 -39 39 0 6 16 11 35 11 19 0 35 5 35 10 0 6 40 10 100 10 60 0 100 4
100 10 0 6 16 10 35 10 24 0 35 5 35 14 0 8 6 17 13 20 10 5 10 7 0 12 -7 3
-13 17 -13 30 0 19 -5 24 -25 24 -14 0 -25 -4 -25 -10 0 -6 -27 -10 -60 -10
-33 0 -60 4 -60 10 0 6 5 10 10 10 6 0 10 7 10 15 0 8 6 15 13 15 7 0 19 9 27
20 8 11 25 20 37 20 13 0 23 5 23 11 0 14 25 39 39 39 6 0 11 7 11 15 0 9 -9
15 -25 15 -16 0 -25 -6 -25 -15 0 -9 -9 -15 -21 -15 -22 0 -49 -22 -49 -39 0
-6 -7 -11 -15 -11 -8 0 -15 -4 -15 -10 0 -5 -9 -10 -21 -10 -19 0 -49 -21 -49
-35 0 -14 -30 -35 -49 -35 -12 0 -21 -6 -21 -15 0 -12 -15 -15 -75 -15 -43 0
-75 -4 -75 -10 0 -6 -30 -10 -70 -10 -56 0 -70 -3 -70 -15 0 -11 -12 -15 -50
-15 -27 0 -50 -4 -50 -10 0 -6 -27 -10 -60 -10 -33 0 -60 -4 -60 -10 0 -5 -11
-10 -25 -10 -14 0 -25 -5 -25 -11 0 -20 -29 -39 -59 -39 -21 0 -31 -5 -31 -15
0 -8 -7 -15 -15 -15 -8 0 -15 -4 -15 -10 0 -6 -35 -10 -85 -10 -50 0 -85 -4
-85 -10 0 -5 -9 -10 -20 -10 -13 0 -20 7 -20 20 0 11 5 20 10 20 6 0 10 7 10
15 0 8 -4 15 -10 15 -5 0 -10 16 -10 35 0 19 5 35 10 35 6 0 10 11 10 25 0 14
-4 25 -10 25 -5 0 -10 -11 -10 -25 0 -20 -5 -25 -25 -25 -14 0 -25 -4 -25 -10
0 -5 -7 -10 -15 -10 -9 0 -15 -9 -15 -25 0 -14 -4 -25 -10 -25 -5 0 -10 -16
-10 -35 0 -19 -4 -35 -10 -35 -5 0 -10 -7 -10 -15 0 -8 5 -15 10 -15 6 0 10
-11 10 -25 0 -14 -4 -25 -10 -25 -5 0 -10 -9 -10 -20 0 -11 -7 -20 -15 -20 -8
0 -15 9 -15 20 0 11 -4 20 -10 20 -5 0 -10 -9 -10 -20 0 -17 -7 -20 -40 -20
-29 0 -40 -4 -40 -15 0 -8 7 -15 15 -15 10 0 15 -11 15 -35 0 -24 -5 -35 -15
-35 -10 0 -15 11 -15 35 0 19 -4 35 -10 35 -5 0 -10 7 -10 15 0 8 5 15 10 15
6 0 10 9 10 20 0 22 26 28 33 8 2 -8 8 -9 13 -4 5 5 4 11 -3 13 -15 5 -18 53
-3 53 6 0 10 -4 10 -10 0 -5 5 -10 11 -10 14 0 39 25 39 39 0 6 7 11 15 11 8
0 15 9 15 20 0 11 -5 20 -11 20 -17 0 -39 -27 -39 -49 0 -12 -6 -21 -15 -21
-8 0 -15 7 -15 15 0 8 -4 15 -10 15 -5 0 -10 -7 -10 -15 0 -8 -7 -15 -15 -15
-8 0 -15 7 -15 15 0 8 -4 15 -10 15 -5 0 -10 -7 -10 -15 0 -8 5 -15 10 -15 6
0 10 -11 10 -25 0 -14 -4 -25 -10 -25 -5 0 -10 -9 -10 -20 0 -11 -4 -20 -10
-20 -6 0 -10 -43 -10 -110 0 -91 -3 -110 -15 -110 -10 0 -15 11 -15 35 0 19
-4 35 -10 35 -5 0 -10 16 -10 35 0 24 -5 35 -15 35 -10 0 -15 -11 -15 -35 0
-19 -4 -35 -10 -35 -5 0 -10 -11 -10 -25 0 -14 5 -25 10 -25 6 0 10 7 10 15 0
8 7 15 15 15 8 0 15 -7 15 -15 0 -8 -6 -15 -14 -15 -8 0 -17 -6 -20 -12 -5
-11 -7 -11 -12 0 -3 6 -17 12 -30 12 -19 0 -24 5 -24 25 0 14 -4 25 -10 25 -5
0 -10 7 -10 15 0 8 -7 15 -15 15 -11 0 -15 12 -15 45 0 41 2 45 25 45 16 0 25
6 25 15 0 9 9 15 25 15 16 0 25 -6 25 -15 0 -8 5 -15 10 -15 6 0 10 7 10 15 0
8 7 15 15 15 8 0 15 -7 15 -15 0 -8 5 -15 10 -15 6 0 10 7 10 15 0 8 -4 15
-10 15 -5 0 -10 9 -10 20 0 11 5 20 10 20 6 0 10 -4 10 -10 0 -5 7 -10 15 -10
8 0 15 5 15 10 0 6 -7 10 -15 10 -9 0 -15 9 -15 25 0 14 -4 25 -10 25 -5 0
-10 -4 -10 -10 0 -5 -7 -10 -15 -10 -10 0 -15 -11 -15 -35 0 -19 -4 -35 -10
-35 -5 0 -10 9 -10 20 0 11 -4 20 -10 20 -5 0 -10 11 -10 25 0 16 -6 25 -15
25 -9 0 -15 -9 -15 -25 0 -16 6 -25 15 -25 8 0 15 -4 15 -10 0 -5 -7 -10 -15
-10 -8 0 -15 -4 -15 -10 0 -5 -16 -10 -35 -10 -19 0 -35 -5 -35 -11 0 -11 -25
-39 -35 -39 -14 0 -35 30 -35 49 0 16 -6 21 -25 21 -14 0 -25 -4 -25 -10 0
-14 -28 -12 -33 3 -2 7 -8 8 -13 3 -5 -5 -4 -11 4 -13 6 -3 12 -11 12 -19 0
-8 5 -14 11 -14 17 0 39 -27 39 -49 0 -17 6 -21 36 -21 32 0 64 -18 64 -35 0
-14 -30 -35 -49 -35 -12 0 -21 -6 -21 -15 0 -8 5 -15 10 -15 6 0 10 -16 10
-35 0 -31 -3 -35 -25 -35 -24 0 -25 2 -25 75 0 69 -2 75 -21 75 -29 0 -49 24
-49 59 0 17 -4 31 -10 31 -5 0 -10 -4 -10 -10 0 -5 -11 -10 -25 -10 -14 0 -25
-5 -25 -11 0 -11 25 -39 35 -39 17 0 35 -32 35 -60 0 -31 19 -60 39 -60 6 0
11 -16 11 -35 0 -31 -3 -35 -25 -35 -14 0 -25 -5 -25 -11 0 -23 -30 -39 -74
-39 -34 0 -46 -4 -46 -15 0 -8 -4 -15 -10 -15 -5 0 -10 -4 -10 -10 0 -5 9 -10
20 -10 15 0 20 -7 20 -25 0 -16 6 -25 15 -25 12 0 15 -13 15 -60 0 -47 -3 -60
-15 -60 -8 0 -15 -4 -15 -10 0 -5 -16 -10 -35 -10 -31 0 -35 3 -35 25 0 14 -4
25 -10 25 -5 0 -10 -7 -10 -15 0 -8 -7 -15 -15 -15 -9 0 -15 9 -15 25 0 18 -5
25 -20 25 -11 0 -20 5 -20 10 0 6 5 10 10 10 6 0 10 18 10 40 0 22 5 40 10 40
6 0 10 -18 10 -40 0 -29 4 -40 15 -40 8 0 15 -4 15 -10 0 -5 5 -10 10 -10 6 0
10 30 10 70 0 40 -4 70 -10 70 -5 0 -10 7 -10 15 0 10 11 15 35 15 19 0 35 5
35 10 0 6 23 10 50 10 38 0 50 4 50 15 0 8 5 15 10 15 6 0 10 20 10 45 0 25
-4 45 -10 45 -5 0 -10 7 -10 15 0 9 -9 15 -25 15 -14 0 -25 5 -25 10 0 6 11
10 25 10 16 0 25 6 25 15 0 11 -11 15 -40 15 -29 0 -40 -4 -40 -15 0 -8 -4
-15 -10 -15 -5 0 -10 7 -10 15 0 8 5 15 10 15 6 0 10 16 10 35 0 28 -4 35 -20
35 -11 0 -20 -7 -20 -15 0 -9 -9 -15 -25 -15 -14 0 -25 5 -25 11 0 14 25 39
39 39 6 0 11 7 11 15 0 8 -7 15 -15 15 -8 0 -15 5 -15 10 0 14 27 12 34 -2 5
-10 7 -10 12 0 10 21 24 13 24 -13 0 -20 5 -25 25 -25 16 0 25 6 25 15 0 8 -4
15 -10 15 -5 0 -10 9 -10 20 0 11 5 20 10 20 6 0 10 18 10 40 0 29 4 40 15 40
11 0 15 -11 15 -40 0 -22 5 -40 10 -40 6 0 10 23 10 50 l0 50 -35 0 c-33 0
-35 -2 -35 -35 0 -31 -3 -35 -25 -35 -16 0 -25 -6 -25 -15 0 -8 -4 -15 -10
-15 -5 0 -10 11 -10 25 0 14 -5 25 -11 25 -23 0 -39 -30 -39 -74 0 -34 -4 -46
-15 -46 -9 0 -15 9 -15 25 0 18 -5 25 -20 25 -15 0 -20 7 -20 25 0 16 -6 25
-15 25 -9 0 -15 9 -15 21 0 32 -25 49 -70 49 -40 0 -70 17 -70 39 0 6 5 11 10
11 6 0 10 5 10 10 0 6 -11 10 -25 10 -24 0 -25 3 -25 60 0 47 3 60 15 60 9 0
15 9 15 25 0 14 5 25 10 25 6 0 10 23 10 50 0 28 5 50 10 50 6 0 10 -7 10 -15
0 -8 7 -15 15 -15 8 0 15 7 15 15 0 8 5 15 10 15 6 0 10 -7 10 -15 0 -8 5 -15
11 -15 23 0 39 -30 39 -74 0 -25 -4 -46 -10 -46 -5 0 -10 -11 -10 -25 0 -20 5
-25 25 -25 16 0 25 6 25 15 0 8 -7 15 -15 15 -8 0 -15 5 -15 10 0 6 7 10 15
10 8 0 15 6 15 14 0 8 6 17 13 20 10 5 10 7 0 12 -7 3 -13 16 -13 29 0 13 6
26 13 29 10 5 10 7 0 12 -7 3 -13 23 -13 45 0 28 -4 39 -15 39 -8 0 -15 -5
-15 -11 0 -13 -25 -39 -38 -39 -6 0 -13 6 -16 13 -5 10 -7 10 -12 0 -7 -17
-31 -17 -36 -1 -3 9 -9 8 -21 -4 -11 -11 -17 -33 -17 -62 0 -34 -4 -46 -15
-46 -12 0 -15 17 -15 95 0 78 3 95 15 95 9 0 15 9 15 25 0 16 -6 25 -15 25
-12 0 -15 15 -15 75 0 43 -4 75 -10 75 -5 0 -10 16 -10 35 0 19 5 35 10 35 6
0 10 5 10 10 0 6 -20 10 -45 10 -33 0 -45 4 -45 15 0 8 -7 15 -15 15 -10 0
-15 11 -15 35 0 29 -4 35 -21 35 -26 0 -49 23 -49 49 0 12 -4 21 -10 21 -5 0
-10 7 -10 15 0 8 -7 15 -15 15 -11 0 -15 12 -15 45 0 25 -4 45 -10 45 -5 0
-10 -16 -10 -35 0 -24 -5 -35 -15 -35 -11 0 -15 12 -15 50 0 34 4 50 13 50 7
0 19 9 27 20 8 11 25 20 37 20 18 0 23 6 23 25 0 19 -5 25 -21 25 -22 0 -49
-22 -49 -39 0 -6 -7 -11 -15 -11 -11 0 -15 11 -15 40 0 36 3 40 25 40 14 0 25
5 25 10 0 6 -4 10 -10 10 -5 0 -10 7 -10 15 0 8 -7 15 -15 15 -8 0 -15 9 -15
20 0 11 6 20 13 20 7 0 19 -9 27 -20 23 -31 40 -25 40 15 0 31 -3 35 -25 35
-20 0 -25 5 -25 25 0 20 5 25 25 25 14 0 25 -6 25 -13 0 -7 9 -19 20 -27 20
-15 28 -60 10 -60 -5 0 -10 -11 -10 -25 0 -14 5 -25 10 -25 6 0 10 -16 10 -35
0 -37 12 -44 36 -21 17 18 18 32 2 40 -10 5 -10 7 0 12 22 10 13 34 -13 34
-14 0 -25 5 -25 10 0 6 7 10 15 10 8 0 15 5 15 10 0 6 11 10 25 10 14 0 25 -4
25 -10 0 -5 16 -10 35 -10 31 0 35 3 35 25 0 16 -6 25 -15 25 -8 0 -15 9 -15
20 0 27 -43 70 -70 70 -17 0 -20 6 -20 40 0 22 5 40 10 40 6 0 10 9 10 20 0
11 -4 20 -10 20 -5 0 -10 11 -10 25 0 16 -6 25 -15 25 -11 0 -15 12 -15 50 0
38 4 50 15 50 9 0 15 -9 15 -25 0 -14 5 -25 10 -25 6 0 10 -22 10 -50 l0 -50
35 0 c31 0 35 3 35 25 0 23 4 25 40 25 22 0 40 -4 40 -10 0 -5 -7 -10 -15 -10
-8 0 -15 -7 -15 -15 0 -9 -9 -15 -25 -15 -18 0 -25 -5 -25 -20 0 -11 -4 -20
-10 -20 -5 0 -10 -6 -10 -14 0 -8 -6 -17 -12 -20 -10 -5 -10 -7 0 -12 6 -3 12
-12 12 -20 0 -9 11 -14 35 -14 24 0 35 5 35 15 0 8 -4 15 -10 15 -5 0 -10 11
-10 25 0 14 5 25 10 25 6 0 10 -7 10 -15 0 -8 7 -15 15 -15 8 0 15 -4 15 -10
0 -5 5 -10 10 -10 6 0 10 11 10 25 0 14 -4 25 -10 25 -5 0 -10 9 -10 20 0 11
5 20 10 20 6 0 10 11 10 25 0 14 -4 25 -10 25 -5 0 -10 11 -10 25 0 24 -3 25
-60 25 l-60 0 0 35 c0 19 3 35 6 35 10 0 34 -28 34 -39 0 -6 7 -11 15 -11 9 0
15 9 15 25 0 14 5 25 10 25 6 0 10 -11 10 -25 0 -16 6 -25 15 -25 12 0 15 14
15 65 0 51 -3 65 -15 65 -8 0 -15 -7 -15 -15 0 -8 -4 -15 -10 -15 -5 0 -10 16
-10 35 0 19 5 35 10 35 6 0 10 -4 10 -10 0 -5 7 -10 15 -10 9 0 15 9 15 25 0
14 5 25 10 25 6 0 10 -7 10 -15 0 -8 5 -15 10 -15 6 0 10 11 10 25 0 23 4 25
40 25 29 0 40 4 40 15 0 8 -7 15 -15 15 -10 0 -15 10 -15 31 0 35 -20 59 -49
59 -12 0 -21 5 -21 11 0 11 25 39 35 39 14 0 35 -30 35 -49 0 -16 6 -21 25
-21 22 0 25 -4 25 -35 0 -24 5 -35 15 -35 8 0 15 -7 15 -15 0 -8 5 -15 10 -15
6 0 10 -11 10 -25 0 -14 -4 -25 -10 -25 -5 0 -10 -4 -10 -10 0 -5 9 -10 20
-10 11 0 20 -4 20 -10 0 -5 7 -10 15 -10 12 0 15 -14 15 -64 0 -42 4 -66 13
-69 9 -4 8 -8 -3 -16 -8 -5 -11 -14 -6 -18 5 -4 11 -2 13 5 8 22 33 13 33 -13
0 -16 -6 -25 -15 -25 -9 0 -15 -9 -15 -25 0 -22 4 -25 35 -25 24 0 35 5 35 15
0 8 -4 15 -10 15 -5 0 -10 14 -10 31 0 30 -19 59 -39 59 -7 0 -11 28 -11 75 0
43 -4 75 -10 75 -5 0 -10 23 -10 50 0 38 -4 50 -15 50 -10 0 -15 10 -15 33 0
21 -7 38 -20 47 -21 15 -27 40 -10 40 6 0 10 9 10 20 0 11 -4 20 -10 20 -5 0
-10 11 -10 25 0 16 -6 25 -15 25 -9 0 -15 9 -15 25 0 16 6 25 15 25 9 0 15 -9
15 -25 0 -18 5 -25 20 -25 15 0 20 -7 20 -25 0 -16 6 -25 15 -25 8 0 15 -9 15
-20 0 -11 5 -20 10 -20 6 0 10 -11 10 -25 0 -14 -4 -25 -10 -25 -5 0 -10 -16
-10 -35 0 -33 2 -35 35 -35 35 0 35 0 35 45 0 25 5 45 10 45 6 0 10 -20 10
-45 0 -33 4 -45 15 -45 11 0 15 -11 15 -40 0 -22 5 -40 10 -40 6 0 10 7 10 15
0 9 9 15 25 15 22 0 25 4 25 35 0 33 -2 35 -35 35 -19 0 -35 5 -35 10 0 6 11
10 25 10 16 0 25 6 25 15 0 8 -7 15 -15 15 -9 0 -15 9 -15 25 0 15 6 25 14 25
8 0 17 6 20 13 5 10 7 10 12 0 3 -7 17 -13 30 -13 22 0 24 4 24 45 0 33 -4 45
-15 45 -8 0 -15 -4 -15 -10 0 -5 -16 -10 -35 -10 -19 0 -35 5 -35 10 0 6 7 10
15 10 8 0 15 6 15 13 0 7 9 19 20 27 13 9 20 26 20 47 0 26 -4 33 -20 33 -11
0 -20 7 -20 15 0 8 9 15 20 15 11 0 20 5 20 10 0 6 7 10 15 10 8 0 15 7 15 15
0 8 5 15 10 15 6 0 10 -11 10 -25z m-380 -150 c0 -16 -6 -25 -15 -25 -9 0 -15
-9 -15 -25 0 -16 6 -25 15 -25 8 0 15 7 15 15 0 8 5 15 10 15 15 0 12 -39 -4
-56 -8 -8 -17 -14 -21 -14 -14 0 -35 30 -35 49 0 19 -6 21 -60 21 l-60 0 0
-35 c0 -31 -3 -35 -25 -35 -16 0 -25 -6 -25 -15 0 -8 -4 -15 -10 -15 -5 0 -10
7 -10 15 0 8 5 15 10 15 6 0 10 5 10 10 0 6 -16 10 -35 10 l-35 0 0 50 c0 28
5 50 10 50 6 0 10 -18 10 -40 0 -39 1 -40 35 -40 24 0 35 5 35 15 0 8 -4 15
-10 15 -5 0 -10 5 -10 10 0 6 30 10 70 10 56 0 70 3 70 15 0 9 9 15 25 15 14
0 25 5 25 10 0 6 7 10 15 10 9 0 15 -9 15 -25z m-390 -1335 c0 -5 -4 -10 -10
-10 -5 0 -10 -11 -10 -25 0 -20 5 -25 25 -25 14 0 25 5 25 10 0 6 5 10 10 10
6 0 10 -20 10 -45 0 -25 -4 -45 -10 -45 -5 0 -10 -11 -10 -25 0 -14 5 -25 10
-25 6 0 10 9 10 21 0 19 21 49 35 49 14 0 35 -30 35 -49 0 -12 6 -21 15 -21
13 0 15 -24 15 -155 0 -104 -4 -155 -11 -155 -17 0 -39 27 -39 49 0 12 -6 21
-15 21 -12 0 -15 -13 -15 -60 0 -53 -2 -60 -20 -60 -11 0 -20 -7 -20 -15 0 -9
-9 -15 -25 -15 -23 0 -25 3 -25 50 0 38 -4 50 -15 50 -9 0 -15 9 -15 25 0 16
6 25 15 25 8 0 15 -7 15 -15 0 -8 5 -15 10 -15 6 0 10 -16 10 -35 0 -24 5 -35
15 -35 12 0 15 13 15 60 0 33 4 60 10 60 6 0 10 7 10 15 0 8 5 15 10 15 6 0
10 -7 10 -15 0 -8 7 -15 15 -15 8 0 15 7 15 15 0 8 5 15 10 15 6 0 10 9 10 20
0 17 -7 20 -45 20 -45 0 -45 0 -45 -35 0 -24 -5 -35 -15 -35 -10 0 -15 11 -15
35 0 19 -4 35 -10 35 -5 0 -10 11 -10 25 0 22 4 25 35 25 31 0 35 3 35 25 0
20 -5 25 -25 25 -14 0 -25 5 -25 10 0 6 -4 10 -10 10 -5 0 -10 -9 -10 -20 0
-11 -7 -20 -15 -20 -12 0 -15 13 -15 60 0 47 3 60 15 60 8 0 15 5 15 10 0 6
-7 10 -15 10 -11 0 -15 12 -15 50 0 38 4 50 15 50 8 0 15 5 15 10 0 6 5 10 10
10 6 0 10 -4 10 -10z m1690 -845 c0 -9 9 -15 25 -15 14 0 25 -4 25 -10 0 -5 9
-10 21 -10 22 0 49 -22 49 -39 0 -6 11 -11 25 -11 19 0 25 -5 25 -21 0 -19 21
-49 35 -49 10 0 35 -28 35 -39 0 -6 5 -11 10 -11 6 0 10 -11 10 -25 0 -16 6
-25 15 -25 9 0 15 -9 15 -25 0 -14 5 -25 10 -25 6 0 10 -16 10 -35 0 -24 5
-35 15 -35 11 0 15 -12 15 -45 0 -25 5 -45 10 -45 6 0 10 -55 10 -145 0 -90
-4 -145 -10 -145 -5 0 -10 -22 -10 -50 0 -38 -4 -50 -15 -50 -9 0 -15 -9 -15
-25 0 -14 -4 -25 -10 -25 -5 0 -10 -11 -10 -25 0 -16 -6 -25 -15 -25 -8 0 -15
-9 -15 -20 0 -11 -4 -20 -10 -20 -5 0 -10 -5 -10 -11 0 -14 -25 -39 -39 -39
-6 0 -11 -5 -11 -11 0 -11 -25 -39 -35 -39 -10 0 -35 -28 -35 -39 0 -6 -11
-11 -25 -11 -14 0 -25 -4 -25 -10 0 -5 -16 -10 -35 -10 -19 0 -35 -5 -35 -11
0 -17 -27 -39 -49 -39 -17 0 -21 6 -21 35 0 34 -1 35 -40 35 -22 0 -40 -4 -40
-10 0 -5 -9 -10 -20 -10 -11 0 -20 5 -20 10 0 6 -7 10 -15 10 -8 0 -15 7 -15
15 0 9 9 15 23 15 12 0 29 9 37 20 8 11 20 20 27 20 7 0 13 11 13 25 0 20 -5
25 -25 25 -14 0 -25 -4 -25 -10 0 -5 -11 -10 -25 -10 -14 0 -25 5 -25 10 0 6
-11 10 -25 10 -23 0 -25 -4 -25 -45 0 -25 -4 -45 -10 -45 -5 0 -10 5 -10 10 0
15 -39 12 -56 -4 -17 -18 -18 -33 -1 -39 7 -2 8 -8 3 -13 -5 -5 -11 -4 -13 4
-3 6 -11 12 -19 12 -8 0 -14 6 -14 14 0 8 -6 16 -12 18 -19 7 16 38 41 38 12
0 21 6 21 15 0 9 9 15 25 15 22 0 25 4 25 35 0 19 5 35 10 35 6 0 10 11 10 25
0 22 -4 25 -35 25 -29 0 -35 4 -35 21 0 26 -23 49 -49 49 -15 0 -21 -6 -21
-21 0 -22 22 -49 39 -49 6 0 11 -21 11 -50 l0 -50 -50 0 c-27 0 -50 -4 -50
-10 0 -5 -4 -10 -10 -10 -5 0 -10 16 -10 35 0 24 -5 35 -15 35 -8 0 -15 5 -15
10 0 6 7 10 15 10 9 0 15 9 15 25 0 16 -6 25 -15 25 -8 0 -15 7 -15 15 0 9 -9
15 -25 15 -18 0 -25 5 -25 20 0 11 7 20 15 20 8 0 15 -4 15 -10 0 -5 11 -10
25 -10 14 0 25 5 25 10 0 6 20 10 45 10 48 0 56 11 28 38 -12 12 -18 13 -21 4
-2 -6 -15 -12 -28 -12 -15 0 -24 -6 -24 -15 0 -9 -9 -15 -25 -15 -16 0 -25 6
-25 15 0 8 -7 15 -15 15 -9 0 -15 9 -15 25 0 14 -4 25 -10 25 -15 0 -13 117 3
123 7 2 8 8 3 13 -5 5 -11 4 -13 -3 -9 -26 -23 -12 -23 22 0 19 5 35 10 35 6
0 10 30 10 70 0 40 4 70 10 70 6 0 10 18 10 40 0 29 4 40 15 40 8 0 15 9 15
20 0 11 5 20 10 20 6 0 10 18 10 40 0 29 4 40 15 40 9 0 15 9 15 21 0 19 21
49 35 49 8 0 35 27 35 35 0 10 28 35 39 35 6 0 11 5 11 11 0 17 27 39 49 39
12 0 21 5 21 10 0 6 16 10 35 10 24 0 35 5 35 15 0 12 19 15 110 15 91 0 110
-3 110 -15z m430 -20 c0 -19 -4 -35 -10 -35 -5 0 -10 -11 -10 -25 0 -14 -4
-25 -10 -25 -5 0 -10 -7 -10 -15 0 -11 -11 -15 -40 -15 -36 0 -40 3 -40 25 0
14 -4 25 -10 25 -5 0 -10 7 -10 15 0 8 -7 15 -15 15 -8 0 -15 9 -15 20 0 15 7
20 25 20 16 0 25 6 25 15 0 12 13 15 60 15 l60 0 0 -35z m-1660 -290 c0 -19 5
-35 10 -35 6 0 10 -16 10 -35 0 -41 -36 -85 -70 -85 -17 0 -20 -6 -20 -40 0
-36 -2 -40 -25 -40 -16 0 -25 6 -25 15 0 9 -9 15 -25 15 -16 0 -25 -6 -25 -15
0 -8 -4 -15 -10 -15 -5 0 -10 11 -10 25 0 14 5 25 10 25 6 0 10 11 10 24 0 13
6 27 13 30 10 5 10 7 0 12 -15 7 -17 34 -3 34 6 0 10 -7 10 -15 0 -9 9 -15 25
-15 14 0 25 -4 25 -10 0 -5 11 -10 25 -10 14 0 25 5 25 10 0 6 -4 10 -10 10
-5 0 -10 7 -10 15 0 8 5 15 10 15 6 0 10 -7 10 -15 0 -9 9 -15 25 -15 22 0 25
4 25 36 0 35 -18 64 -39 64 -6 0 -11 11 -11 25 0 20 5 25 25 25 22 0 25 -4 25
-35z m-580 -166 c0 -14 25 -39 39 -39 6 0 11 -11 11 -25 0 -14 5 -25 10 -25 6
0 10 -16 10 -35 0 -19 -4 -35 -10 -35 -5 0 -10 -7 -10 -15 0 -8 -7 -15 -15
-15 -8 0 -15 -4 -15 -10 0 -16 -109 -12 -126 4 -16 16 -19 86 -4 86 6 0 10 9
10 20 0 11 7 20 15 20 9 0 15 9 15 25 0 20 5 25 25 25 16 0 25 6 25 15 0 8 5
15 10 15 6 0 10 -5 10 -11z m530 -174 c0 -9 9 -15 25 -15 l25 0 0 -151 c0
-117 -3 -154 -14 -165 -17 -16 -56 -19 -56 -4 0 6 -11 10 -25 10 -14 0 -25 5
-25 10 0 6 -7 10 -15 10 -13 0 -15 22 -15 135 0 89 4 135 11 135 14 0 39 25
39 39 0 6 11 11 25 11 16 0 25 -6 25 -15z m-220 -25 c0 -5 7 -10 15 -10 10 0
15 -11 15 -35 0 -19 5 -35 10 -35 15 0 12 -77 -2 -84 -10 -5 -10 -7 0 -12 16
-8 15 -42 -2 -60 -17 -16 -36 -19 -36 -4 0 6 -16 10 -35 10 -24 0 -35 5 -35
15 0 9 -9 15 -25 15 -14 0 -25 5 -25 10 0 6 -9 10 -20 10 -18 0 -20 7 -20 70
0 40 4 70 10 70 6 0 10 5 10 10 0 26 27 39 83 40 31 0 57 -4 57 -10z m450 -60
c8 -11 20 -20 27 -20 7 0 13 -11 13 -25 0 -14 5 -25 10 -25 6 0 10 -47 10
-120 l0 -120 -35 0 c-19 0 -35 5 -35 10 0 6 -22 10 -50 10 -46 0 -50 2 -50 24
0 13 -6 27 -12 30 -10 5 -10 7 0 12 8 4 12 37 12 115 0 90 3 109 15 109 8 0
15 5 15 10 0 19 65 11 80 -10z"/>
<path d="M4480 5050 c0 -5 -11 -10 -25 -10 -16 0 -25 -6 -25 -15 0 -9 -9 -15
-21 -15 -26 0 -49 -23 -49 -49 0 -12 -6 -21 -15 -21 -12 0 -15 -13 -15 -60 0
-36 4 -60 11 -60 14 0 39 -25 39 -39 0 -7 28 -11 75 -11 60 0 75 3 75 15 0 8
9 15 20 15 11 0 20 5 20 10 0 6 7 10 15 10 8 0 15 5 15 10 0 6 11 10 25 10 20
0 25 5 25 25 0 14 5 25 10 25 6 0 10 32 10 75 0 43 -4 75 -10 75 -6 0 -10 -32
-10 -75 0 -47 -4 -75 -11 -75 -6 0 -17 -6 -25 -14 -8 -8 -14 -19 -14 -25 0 -6
-7 -11 -15 -11 -8 0 -15 -4 -15 -10 0 -5 -20 -10 -45 -10 -25 0 -45 -4 -45
-10 0 -15 -70 -12 -86 4 -20 20 -18 26 11 26 14 0 25 -4 25 -10 0 -5 11 -10
25 -10 14 0 25 5 25 10 0 6 11 10 25 10 14 0 25 6 25 13 0 7 9 19 20 27 11 8
20 20 20 27 0 7 7 13 15 13 8 0 15 5 15 10 0 6 -5 10 -11 10 -14 0 -39 -25
-39 -39 0 -6 -16 -11 -35 -11 -19 0 -35 -4 -35 -10 0 -5 -22 -10 -50 -10 -49
0 -50 1 -50 31 0 30 19 59 39 59 6 0 11 5 11 11 0 21 29 39 64 39 25 0 36 4
36 15 0 8 9 15 20 15 11 0 20 -7 20 -15 0 -8 7 -15 15 -15 9 0 15 -9 15 -25 0
-14 5 -25 10 -25 15 0 12 70 -4 86 -17 16 -126 20 -126 4z"/>
<path d="M4450 3265 c0 -8 -4 -15 -10 -15 -5 0 -10 -9 -10 -20 0 -11 -7 -20
-15 -20 -8 0 -15 5 -15 10 0 6 -4 10 -10 10 -6 0 -10 -35 -10 -85 0 -84 0 -85
25 -85 14 0 25 -4 25 -10 0 -5 11 -10 25 -10 23 0 25 4 25 45 l0 45 -40 0
c-36 0 -40 3 -40 25 0 23 4 25 40 25 39 0 40 1 40 35 0 19 5 35 10 35 6 0 10
7 10 15 0 9 -9 15 -25 15 -16 0 -25 -6 -25 -15z"/>
</g>
</svg>
