<?xml version="1.0" standalone="no"?>
<!DOCTYPE svg PUBLIC "-//W3C//DTD SVG 20010904//EN"
 "http://www.w3.org/TR/2001/REC-SVG-20010904/DTD/svg10.dtd">
<svg version="1.0" xmlns="http://www.w3.org/2000/svg"
 width="438.000000pt" height="445.000000pt" viewBox="0 0 438.000000 445.000000"
 preserveAspectRatio="xMidYMid meet">
<metadata>
Created by potrace 1.16, written by Peter Selinger 2001-2019
</metadata>
<g transform="translate(0.000000,445.000000) scale(0.100000,-0.100000)"
fill="#000000" stroke="none">
<path d="M1085 4088 c-434 -181 -792 -331 -794 -334 -4 -4 -4 1 -156 -1603
-63 -668 -114 -1216 -112 -1217 2 -2 338 -198 747 -437 l744 -434 149 173 c82
96 154 174 160 174 7 0 284 -77 617 -171 l605 -171 660 225 c444 151 661 230
663 240 2 8 -81 332 -184 721 l-186 706 175 355 175 354 -401 337 -402 336 -3
-1221 -2 -1221 -1345 0 -1345 0 0 1345 0 1345 1265 0 c1005 0 1265 3 1265 13
0 33 -114 793 -120 800 -4 5 -136 -107 -294 -247 -158 -141 -289 -256 -291
-256 -3 0 -180 115 -393 256 -213 141 -391 258 -397 260 -5 1 -365 -146 -800
-328z"/>
<path d="M2510 3229 c-104 -27 -166 -59 -237 -124 -78 -70 -125 -142 -159
-241 -38 -108 -40 -263 -6 -371 60 -192 222 -337 423 -377 95 -19 256 -8 341
24 68 25 161 85 205 132 l33 34 -78 77 -79 78 -44 -37 c-139 -117 -332 -125
-457 -19 -25 22 -54 63 -74 103 -31 62 -33 74 -33 167 0 119 18 166 90 244 80
86 194 118 313 87 58 -15 161 -70 176 -95 13 -20 24 -12 102 76 l77 87 -49 42
c-134 117 -355 163 -544 113z"/>
<path d="M1100 2675 l0 -555 125 0 125 0 0 164 0 164 158 4 c134 4 166 8 219
28 188 71 282 241 244 444 -29 155 -133 256 -300 292 -46 10 -140 14 -318 14
l-253 0 0 -555z m556 309 c55 -40 69 -70 69 -142 0 -54 -4 -73 -23 -98 -44
-58 -74 -68 -219 -72 l-133 -4 0 172 0 172 139 -4 c122 -3 143 -6 167 -24z"/>
<path d="M1110 1315 l0 -85 505 0 505 0 0 85 0 85 -505 0 -505 0 0 -85z"/>
</g>
</svg>
