<?xml version="1.0" standalone="no"?>
<!DOCTYPE svg PUBLIC "-//W3C//DTD SVG 20010904//EN"
 "http://www.w3.org/TR/2001/REC-SVG-20010904/DTD/svg10.dtd">
<svg version="1.0" xmlns="http://www.w3.org/2000/svg"
 width="259.000000pt" height="397.000000pt" viewBox="0 0 259.000000 397.000000"
 preserveAspectRatio="xMidYMid meet">
<metadata>
Created by potrace 1.16, written by Peter Selinger 2001-2019
</metadata>
<g transform="translate(0.000000,397.000000) scale(0.100000,-0.100000)"
fill="#000000" stroke="none">
<path d="M2075 3871 c-264 -67 -440 -174 -535 -324 l-37 -58 -24 46 c-13 25
-27 45 -30 45 -10 0 -195 -195 -255 -270 -90 -112 -211 -291 -239 -353 -30
-68 -62 -177 -70 -240 l-6 -48 -36 45 c-20 25 -39 46 -43 46 -23 0 -174 -409
-241 -655 -35 -128 -49 -319 -30 -419 6 -33 9 -61 7 -64 -3 -2 -32 12 -65 32
l-61 35 0 -79 c0 -209 98 -436 242 -558 16 -13 28 -27 28 -32 0 -4 -29 -14
-65 -21 -36 -7 -65 -16 -65 -20 0 -4 15 -10 33 -13 44 -8 157 -62 185 -89 52
-48 55 -65 53 -304 l-2 -223 88 -126 88 -126 5 309 c6 336 8 348 69 437 36 52
84 84 143 95 l43 8 -48 23 c-26 13 -46 27 -45 31 2 3 37 34 80 68 177 142 319
351 392 575 14 44 24 81 23 83 -2 2 -26 -4 -53 -12 -27 -8 -52 -15 -56 -15 -5
0 25 45 66 99 40 55 92 132 114 173 53 96 159 350 260 618 44 118 85 228 91
243 l11 28 -45 -7 c-25 -3 -45 -4 -45 0 0 3 15 27 34 53 101 143 144 297 166
590 10 135 4 404 -9 402 -3 0 -55 -13 -116 -28z m42 -263 c-9 -256 -40 -405
-118 -561 -39 -79 -110 -185 -148 -221 -17 -17 -31 -33 -31 -38 0 -4 29 -8 64
-8 l65 0 -36 -77 c-19 -43 -82 -186 -140 -318 -151 -347 -274 -585 -405 -784
l-22 -34 39 6 c135 23 128 28 91 -57 -59 -134 -191 -279 -325 -359 -118 -70
-117 -70 -124 10 -6 75 6 288 23 403 16 106 72 336 113 460 73 221 203 521
386 889 61 123 109 226 106 229 -7 8 -34 -23 -142 -166 -288 -382 -501 -886
-622 -1472 -25 -119 -71 -383 -71 -405 0 -11 -40 16 -97 66 -68 59 -142 164
-172 244 -33 87 -31 88 44 61 56 -20 65 -21 61 -7 -15 47 -26 158 -26 252 0
129 25 269 78 444 35 115 124 364 138 387 3 4 28 -8 57 -27 l52 -35 7 77 c17
185 109 396 257 588 70 91 222 256 231 250 4 -3 11 -16 14 -29 3 -14 11 -37
17 -52 10 -27 11 -26 59 55 28 45 65 100 82 123 49 60 177 159 261 200 61 31
194 75 231 77 5 1 6 -72 3 -171z"/>
</g>
</svg>
