<svg width="1123" height="1123" viewBox="0 0 1123 1123" fill="none" xmlns="http://www.w3.org/2000/svg">
<circle cx="561.5" cy="561.5" r="561.5" fill="white"/>
<path d="M874.949 440.059C804.241 460.844 794.575 310.669 819.567 282.979C844.563 249.897 912.44 298.174 938.418 341.057C956.675 371.194 955.819 416.288 874.949 440.059Z" fill="#C3E8D3"/>
<path d="M488.983 268.267C421.152 297.085 271.211 350.197 204.719 373.15C94.1996 426.327 146.836 607.112 204.719 638.791C277.259 678.49 349.792 667.462 375.523 730.686C409.033 813.025 466.193 855.665 539.465 867.182C612.736 878.7 823.729 885.806 905.577 790.97C987.425 696.134 967.085 619.431 899.205 562.334C852.987 523.457 782.069 394.715 738.939 319.973C695.81 245.232 573.772 232.244 488.983 268.267Z" fill="#C3E8D3"/>
<path d="M732.374 779.955C776.817 728.011 879.432 621.987 925.184 575.468C995.027 485.666 876.663 357.236 815.504 354.822C738.861 351.798 683.166 390.906 635.69 349.015C573.859 294.459 508.775 282.643 443.159 303.329C377.543 324.015 199.355 405.228 170.527 517.795C141.699 630.362 190.264 685.673 270.221 705.073C324.662 718.282 436.723 795.936 503.408 840.21C570.092 884.484 676.821 844.885 732.374 779.955Z" stroke="white" stroke-width="6.81923"/>
<path fill-rule="evenodd" clip-rule="evenodd" d="M378.587 434.334H306.758V822.57H775.908V802.337H776.684C793.442 802.337 807.027 788.752 807.027 771.994V400.875C807.027 384.117 793.442 370.532 776.684 370.532H750.231C733.473 370.532 719.888 384.117 719.888 400.875V434.334H560.925C561.09 431.382 561.174 428.4 561.174 425.393C561.174 359.005 520.245 305.188 469.756 305.188C419.267 305.188 378.338 359.005 378.338 425.393C378.338 428.4 378.422 431.382 378.587 434.334Z" fill="white"/>
<path d="M449.731 297.414C408.133 305.298 375.767 336.316 366.43 377.292C364.459 386.006 363.837 406.131 365.185 415.363L366.015 420.343H334.791C300.972 420.343 299.209 420.654 296.719 426.048C294.956 429.99 294.956 817.344 296.719 821.286C299.416 827.199 294.437 826.991 410.104 826.991C525.77 826.991 520.791 827.199 523.488 821.286C525.044 817.862 525.044 815.373 523.488 811.949C520.791 806.036 525.148 806.244 416.328 806.244H316.222V782.384V758.628L365.808 758.317L415.29 758.006L422.137 754.79C437.698 747.425 444.959 736.636 446.93 718.275C447.967 708.212 450.353 703.752 456.578 699.602L460.831 696.801L550.045 696.283L639.362 695.764L646.312 692.444C655.96 687.88 661.977 682.071 666.645 672.631C670.276 665.162 670.483 664.228 670.483 654.788C670.483 645.348 670.276 644.414 666.645 636.945C661.977 627.505 655.96 621.696 646.312 617.131L639.362 613.812L612.39 613.293C586.249 612.774 585.315 612.671 581.477 610.285C575.045 606.343 572.555 601.467 571.311 590.886C569.443 573.769 561.871 562.462 547.762 555.408L539.878 551.57L519.961 551.258L500.147 550.844L529.608 499.909C545.791 471.796 559.796 447.107 560.729 444.928L562.493 441.09H637.495H712.496V464.846V488.705L681.583 489.016L650.669 489.328L642.785 493.166C633.345 497.834 627.536 503.851 622.972 513.498C619.963 519.826 619.652 521.382 619.652 530.407C619.652 539.744 619.859 540.677 623.49 548.146C628.158 557.586 634.175 563.396 643.823 567.96L650.773 571.28L681.687 571.591L712.496 571.902V633.003C712.496 678.129 712.808 694.83 713.741 696.801C716.024 701.884 718.928 702.507 739.883 702.507C750.464 702.507 761.564 703.025 764.572 703.648C788.121 708.524 805.86 730.516 805.86 754.686C805.86 778.131 787.706 800.227 764.572 805.103C760.838 805.829 734.385 806.244 682.309 806.244C599.008 806.244 601.291 806.14 598.593 811.949C596.207 817.24 597.867 823.049 602.639 825.539C607.204 827.821 756.896 827.717 768.307 825.331C790.507 820.767 808.868 806.555 818.723 786.326C827.126 769.106 826.607 781.762 826.607 592.546C826.607 403.33 827.126 415.986 818.723 398.765C808.764 378.433 789.78 363.806 767.788 359.553C757 357.478 721.833 357.478 717.787 359.553C712.808 362.146 712.496 364.325 712.496 393.371V420.343H640.814H569.132L569.755 417.957C570.17 416.712 570.688 410.488 571.103 404.263C572.555 375.217 561.663 347.208 540.708 326.253C527.637 313.182 510.106 303.327 492.056 298.867C480.956 296.066 460.52 295.34 449.731 297.414ZM487.387 318.992C497.761 321.896 504.815 324.905 512.596 330.091C545.065 351.254 558.551 390.985 545.584 427.604C543.82 432.583 529.505 458.518 505.541 499.909C485.002 535.49 467.989 564.537 467.677 564.537C467.366 564.537 450.353 535.49 429.814 499.909C405.85 458.518 391.535 432.583 389.771 427.604C380.953 402.811 384.066 376.151 398.174 354.573C410.415 335.901 429.606 322.83 452.117 318.058C460.416 316.294 479.296 316.813 487.387 318.992ZM764.572 379.989C783.971 384.035 800.673 400.736 804.719 420.135C805.548 423.973 805.86 467.232 805.86 564.744V703.855L801.399 699.706C796.42 695.141 786.98 689.332 779.925 686.531C772.041 683.419 760.63 681.759 746.626 681.759H733.244V530.304V378.848H746.211C753.265 378.848 761.564 379.366 764.572 379.989ZM374.107 443.891C374.626 445.551 388.63 470.24 405.228 498.871L435.312 551.051H375.767H316.222V496.07V441.09H344.646H373.069L374.107 443.891ZM712.496 530.407V551.155L683.243 550.844C654.404 550.532 653.781 550.532 649.943 548.043C642.059 543.167 638.428 533.519 640.814 524.287C642.267 518.893 648.698 512.15 653.574 510.697C655.441 510.179 669.446 509.66 684.799 509.66L712.496 509.556V530.407ZM453.673 582.794C459.897 593.791 462.802 596.695 467.677 596.695C472.553 596.695 475.458 593.791 481.682 582.794L487.906 571.695L512.284 572.006C535.833 572.317 536.766 572.421 540.605 574.807C547.036 578.749 549.526 583.624 550.667 594.206C552.638 611.426 560.729 623.252 575.356 630.202L582.307 633.522L609.278 634.04C635.42 634.559 636.354 634.663 640.192 637.049C642.37 638.397 645.379 641.406 646.935 643.688C649.217 647.215 649.736 649.082 649.736 654.684C649.736 662.879 647.142 667.962 640.607 672.216L636.354 675.017L547.036 675.535L457.719 676.054L449.835 679.892C435.727 686.946 428.05 698.461 426.286 715.163C425.249 725.744 423.278 729.686 416.95 734.147L412.489 737.259L364.356 737.57L316.222 737.881V654.788V571.798H381.887H447.449L453.673 582.794Z" fill="#27B45F"/>
<path d="M457.926 359.145C451.391 360.804 442.054 366.406 437.49 371.282C435.208 373.772 431.784 378.958 430.021 382.797C427.012 389.125 426.701 390.681 426.701 399.706C426.701 409.042 426.909 409.976 430.539 417.445C435.208 426.885 441.224 432.694 450.872 437.259C457.2 440.267 458.756 440.578 467.677 440.578C476.599 440.578 478.155 440.267 484.483 437.259C494.13 432.694 500.147 426.885 504.815 417.445C508.446 409.976 508.653 409.042 508.653 399.602C508.653 390.162 508.446 389.228 504.815 381.759C497.761 367.651 485.313 359.248 469.959 358.522C465.602 358.315 460.208 358.626 457.926 359.145ZM479.088 382.382C485.209 386.427 487.906 391.614 487.906 399.602C487.906 407.694 485.209 412.777 478.777 417.03C472.968 420.868 462.905 421.076 456.992 417.341C449.108 412.465 445.478 402.818 447.863 393.585C449.316 388.295 455.644 381.448 460.623 379.996C466.121 378.336 474.628 379.373 479.088 382.382Z" fill="#27B45F"/>
<path d="M555.958 807.697C546.933 812.676 550.771 826.992 561.041 826.992C566.332 826.992 571.415 821.909 571.415 816.722C571.415 808.942 562.805 803.859 555.958 807.697Z" fill="#27B45F"/>
</svg>
